{
.appVersion = "1352";
copyright = "Copyright 2020 The Dangrek Project Authors (https://github.com/danhhong/Dangrek)";
customParameters = (
{
name = fsType;
value = (
);
},
{
name = "Use Typo Metrics";
value = 1;
},
{
name = license;
value = "This Font Software is licensed under the SIL Open Font License, Version 1.1. This license is available with a FAQ at: https://scripts.sil.org/OFL";
},
{
name = licenseURL;
value = "https://scripts.sil.org/OFL";
}
);
date = "2020-02-19 02:17:00 +0000";
designer = "Danh Hong";
designerURL = "http://www.nextspell.com";
disablesAutomaticAlignment = 1;
disablesNiceNames = 1;
familyName = Dangrek;
featurePrefixes = (
{
code = "lookup lookup_0 {\012sub uni17B7 by uni17B7.r;\012sub uni17B8 by uni17B8.r;\012sub uni17B9 by uni17B9.r;\012sub uni17BA by uni17BA.r;\012sub uni17C6 by uni17C6.r;\012sub uni17C9 by uni17C9.r;\012sub uni17CD by uni17CD.r;\012sub uni17B7_17CD by iMark_17CDkhmer.r;\012} lookup_0;\012";
name = lookup_0;
},
{
code = "lookup lookup_1 {\012sub uni17BB by uni17BB.b;\012sub uni17BC by uni17BC.b;\012sub uni17BD by uni17BD.b;\012} lookup_1;\012";
name = lookup_1;
},
{
code = "lookup lookup_10 {\012sub uni17D2_1798 by coeng_1798khmer.b;\012sub uni17D2_17A0 by coeng_17A0khmer.b;\012} lookup_10;\012";
name = lookup_10;
},
{
code = "lookup lookup_11 {\012sub uni1794 by uni1794.a;\012} lookup_11;\012";
name = lookup_11;
},
{
code = "lookup lookup_12 {\012sub uni17D2179A by uni17D2179A.b;\012} lookup_12;\012";
name = lookup_12;
},
{
code = "lookup lookup_13 {\012sub uni17B7 by uni17B7.a;\012sub uni17B8 by uni17B8.a;\012sub uni17B9 by uni17B9.a;\012sub uni17BA by uni17BA.a;\012sub uni17BE by uni17B8.a;\012sub uni17C6 by uni17C6.a;\012} lookup_13;\012";
name = lookup_13;
},
{
code = "lookup lookup_14 {\012sub uni1789 by uni1789.a;\012} lookup_14;\012";
name = lookup_14;
},
{
code = "lookup lookup_15 {\012sub uni17BF by uni17BF.b;\012sub uni17C0 by uni17C0.b;\012} lookup_15;\012";
name = lookup_15;
},
{

glyphs = (
{
glyphname = A;
lastChange = "2021-04-15 12:05:57 +0000";
layers = (
{
layerId = "D08966C8-96EF-481A-BF9E-1465DF9248E1";
paths = (
{
closed = 1;
nodes = (
"781 1323 OFFCURVE",
"744 1400 OFFCURVE",
"602 1400 CURVE SMOOTH",
"502 1400 LINE SMOOTH",
"363 1400 OFFCURVE",
"320 1323 OFFCURVE",
"290 1212 CURVE SMOOTH",
"257 1095 OFFCURVE",
"222 978 OFFCURVE",
"185 859 CURVE SMOOTH",
"148 740 OFFCURVE",
"113 622 OFFCURVE",
"80 506 CURVE",
"78 435 OFFCURVE",
"74 299 OFFCURVE",
"74 230 CURVE SMOOTH",
"74 200 LINE SMOOTH",
"74 86 OFFCURVE",
"80 0 OFFCURVE",
"212 0 CURVE SMOOTH",
"343 0 OFFCURVE",
"352 86 OFFCURVE",
"352 200 CURVE SMOOTH",
"352 340 LINE",
"752 340 LINE",
"752 200 LINE SMOOTH",
"752 86 OFFCURVE",
"761 0 OFFCURVE",
"892 0 CURVE SMOOTH",
"1021 0 OFFCURVE",
"1030 86 OFFCURVE",
"1030 200 CURVE SMOOTH",
"1030 230 LINE SMOOTH",
"1030 274 OFFCURVE",
"1029 320 OFFCURVE",
"1027 367 CURVE SMOOTH",
"1025 414 OFFCURVE",
"1023 461 OFFCURVE",
"1022 506 CURVE",
"814 1212 LINE SMOOTH"
);
},
{
closed = 1;
nodes = (
"712 604 LINE",
"394 604 LINE",
"542 1140 LINE",
"564 1140 LINE"
);
}
);
width = 1104;
}
);
note = A;
unicode = 0041;
},
{
glyphname = B;
lastChange = "2021-04-15 12:05:57 +0000";
layers = (
{
layerId = "D08966C8-96EF-481A-BF9E-1465DF9248E1";
paths = (
{
closed = 1;
nodes = (
"127 1400 OFFCURVE",
"120 1301 OFFCURVE",
"120 1172 CURVE SMOOTH",
"120 230 LINE SMOOTH",
"120 98 OFFCURVE",
"127 0 OFFCURVE",
"272 0 CURVE SMOOTH",
"600 0 LINE",
"682 4 OFFCURVE",
"756 21 OFFCURVE",
"821 52 CURVE SMOOTH",
"876 77 OFFCURVE",
"932 118 OFFCURVE",
"973 176 CURVE SMOOTH",
"1014 234 OFFCURVE",
"1042 312 OFFCURVE",
"1042 416 CURVE SMOOTH",
"1042 460 OFFCURVE",
"1037 519 OFFCURVE",
"1009 582 CURVE SMOOTH",
"988 626 OFFCURVE",
"952 669 OFFCURVE",
"897 705 CURVE SMOOTH",
"870 722 OFFCURVE",
"836 737 OFFCURVE",
"796 748 CURVE",
"818 754 OFFCURVE",
"871 793 OFFCURVE",
"905 825 CURVE SMOOTH",
"936 856 OFFCURVE",
"963 897 OFFCURVE",
"980 949 CURVE SMOOTH",
"988 974 OFFCURVE",
"992 1003 OFFCURVE",
"992 1034 CURVE SMOOTH",
"992 1155 OFFCURVE",
"945 1247 OFFCURVE",
"867 1308 CURVE SMOOTH",
"789 1369 OFFCURVE",
"681 1400 OFFCURVE",
"562 1400 CURVE SMOOTH",
"272 1400 LINE SMOOTH"
);
},
{
closed = 1;
nodes = (
"574 1161 OFFCURVE",
"601 1154 OFFCURVE",
"625 1141 CURVE SMOOTH",
"672 1113 OFFCURVE",
"706 1066 OFFCURVE",
"706 984 CURVE SMOOTH",
"706 912 OFFCURVE",
"674 866 OFFCURVE",
"629 844 CURVE SMOOTH",
"606 832 OFFCURVE",
"581 825 OFFCURVE",
"552 824 CURVE SMOOTH",
"424 824 LINE",
"424 1164 LINE",
"544 1164 LINE"
);
},
{
closed = 1;
nodes = (
"595 609 OFFCURVE",
"624 601 OFFCURVE",
"650 587 CURVE SMOOTH",
"701 558 OFFCURVE",
"738 503 OFFCURVE",
"738 416 CURVE SMOOTH",
"738 335 OFFCURVE",
"703 282 OFFCURVE",
"654 258 CURVE SMOOTH",
"629 245 OFFCURVE",
"601 237 OFFCURVE",
"570 236 CURVE SMOOTH",
"424 236 LINE",
"424 612 LINE",
"562 612 LINE"
);
}
);
width = 1104;
}
);
note = B;
unicode = 0042;
},
{
glyphname = C;
lastChange = "2021-04-15 12:05:57 +0000";
layers = (
{
layerId = "D08966C8-96EF-481A-BF9E-1465DF9248E1";
paths = (
{
closed = 1;
nodes = (
"469 1403 OFFCURVE",
"391 1385 OFFCURVE",
"323 1353 CURVE SMOOTH",
"264 1325 OFFCURVE",
"206 1285 OFFCURVE",
"163 1223 CURVE SMOOTH",
"119 1161 OFFCURVE",
"90 1077 OFFCURVE",
"90 968 CURVE SMOOTH",
"90 410 LINE SMOOTH",
"90 277 OFFCURVE",
"132 187 OFFCURVE",
"190 125 CURVE SMOOTH",
"219 94 OFFCURVE",
"251 69 OFFCURVE",
"286 52 CURVE SMOOTH",
"357 17 OFFCURVE",
"426 1 OFFCURVE",
"480 -3 CURVE SMOOTH",
"507 -5 OFFCURVE",
"526 -6 OFFCURVE",
"538 -6 CURVE SMOOTH",
"687 -6 OFFCURVE",
"815 37 OFFCURVE",
"905 117 CURVE SMOOTH",
"995 197 OFFCURVE",
"1046 313 OFFCURVE",
"1046 460 CURVE SMOOTH",
"1046 511 OFFCURVE",
"1006 560 OFFCURVE",
"886 560 CURVE SMOOTH",
"754 560 OFFCURVE",
"710 525 OFFCURVE",
"710 468 CURVE SMOOTH",
"710 339 OFFCURVE",
"679 230 OFFCURVE",
"556 230 CURVE SMOOTH",
"491 230 OFFCURVE",
"458 268 OFFCURVE",
"442 307 CURVE SMOOTH",
"433 329 OFFCURVE",
"427 355 OFFCURVE",
"426 384 CURVE SMOOTH",
"426 1018 LINE SMOOTH",
"427 1042 OFFCURVE",
"433 1064 OFFCURVE",
"442 1083 CURVE SMOOTH",
"458 1115 OFFCURVE",
"491 1148 OFFCURVE",
"556 1148 CURVE SMOOTH",
"682 1148 OFFCURVE",
"710 1059 OFFCURVE",
"710 916 CURVE SMOOTH",
"710 829 OFFCURVE",
"819 816 OFFCURVE",
"886 816 CURVE SMOOTH",
"1022 816 OFFCURVE",
"1046 875 OFFCURVE",
"1046 942 CURVE SMOOTH",
"1046 989 OFFCURVE",
"1041 1056 OFFCURVE",
"1018 1125 CURVE SMOOTH",
"1006 1160 OFFCURVE",
"989 1194 OFFCURVE",
"967 1228 CURVE SMOOTH",
"923 1295 OFFCURVE",
"852 1350 OFFCURVE",
"746 1383 CURVE SMOOTH",
"693 1400 OFFCURVE",
"629 1408 OFFCURVE",
"556 1408 CURVE"
);
}
);
width = 1110;
}
);
note = C;
unicode = 0043;
},
{
glyphname = D;
lastChange = "2021-04-15 12:05:57 +0000";
layers = (
{
layerId = "D08966C8-96EF-481A-BF9E-1465DF9248E1";
paths = (
{
closed = 1;
nodes = (
"141 1400 OFFCURVE",
"134 1301 OFFCURVE",
"134 1172 CURVE SMOOTH",
"134 230 LINE SMOOTH",
"134 98 OFFCURVE",
"141 0 OFFCURVE",
"286 0 CURVE SMOOTH",
"618 0 LINE",
"691 4 OFFCURVE",
"756 21 OFFCURVE",
"813 52 CURVE SMOOTH",
"861 77 OFFCURVE",
"910 118 OFFCURVE",
"947 176 CURVE SMOOTH",
"983 234 OFFCURVE",
"1008 312 OFFCURVE",
"1008 416 CURVE SMOOTH",
"1008 1036 LINE SMOOTH",
"1008 1157 OFFCURVE",
"961 1248 OFFCURVE",
"883 1309 CURVE SMOOTH",
"805 1369 OFFCURVE",
"697 1400 OFFCURVE",
"576 1400 CURVE SMOOTH",
"286 1400 LINE SMOOTH"
);
},
{
closed = 1;
nodes = (
"597 1164 OFFCURVE",
"622 1157 OFFCURVE",
"645 1144 CURVE SMOOTH",
"690 1118 OFFCURVE",
"722 1067 OFFCURVE",
"722 988 CURVE SMOOTH",
"722 398 LINE SMOOTH",
"722 326 OFFCURVE",
"690 280 OFFCURVE",
"645 258 CURVE SMOOTH",
"622 246 OFFCURVE",
"597 239 OFFCURVE",
"568 238 CURVE SMOOTH",
"438 238 LINE",
"438 1166 LINE",
"568 1166 LINE"
);
}
);
width = 1094;
}
);
note = D;
unicode = 0044;
},
{
glyphname = E;
lastChange = "2021-04-15 12:05:57 +0000";
layers = (
{
layerId = "D08966C8-96EF-481A-BF9E-1465DF9248E1";
paths = (
{
closed = 1;
nodes = (
"148 1400 OFFCURVE",
"140 1298 OFFCURVE",
"140 1170 CURVE SMOOTH",
"140 230 LINE SMOOTH",
"140 102 OFFCURVE",
"148 0 OFFCURVE",
"290 0 CURVE SMOOTH",
"682 0 LINE SMOOTH",
"800 0 OFFCURVE",
"912 12 OFFCURVE",
"912 144 CURVE SMOOTH",
"912 273 OFFCURVE",
"801 284 OFFCURVE",
"682 284 CURVE SMOOTH",
"444 284 LINE",
"444 572 LINE",
"570 572 LINE SMOOTH",
"687 572 OFFCURVE",
"794 580 OFFCURVE",
"794 708 CURVE SMOOTH",
"794 836 OFFCURVE",
"687 844 OFFCURVE",
"570 844 CURVE SMOOTH",
"444 844 LINE",
"444 1116 LINE",
"682 1116 LINE SMOOTH",
"801 1116 OFFCURVE",
"912 1128 OFFCURVE",
"912 1258 CURVE SMOOTH",
"912 1388 OFFCURVE",
"801 1400 OFFCURVE",
"682 1400 CURVE SMOOTH",
"290 1400 LINE SMOOTH"
);
}
);
width = 986;
}
);
note = E;
unicode = 0045;
},
{
glyphname = F;
lastChange = "2021-04-15 12:05:57 +0000";
layers = (
{
layerId = "D08966C8-96EF-481A-BF9E-1465DF9248E1";
paths = (
{
closed = 1;
nodes = (
"148 1400 OFFCURVE",
"140 1299 OFFCURVE",
"140 1170 CURVE SMOOTH",
"140 230 LINE SMOOTH",
"140 98 OFFCURVE",
"147 0 OFFCURVE",
"292 0 CURVE SMOOTH",
"436 0 OFFCURVE",
"444 100 OFFCURVE",
"444 230 CURVE SMOOTH",
"444 548 LINE",
"570 548 LINE SMOOTH",
"692 548 OFFCURVE",
"800 559 OFFCURVE",
"800 696 CURVE SMOOTH",
"800 832 OFFCURVE",
"689 844 OFFCURVE",
"570 844 CURVE SMOOTH",
"444 844 LINE",
"444 1104 LINE",
"682 1104 LINE SMOOTH",
"801 1104 OFFCURVE",
"912 1122 OFFCURVE",
"912 1252 CURVE SMOOTH",
"912 1382 OFFCURVE",
"801 1400 OFFCURVE",
"682 1400 CURVE SMOOTH",
"292 1400 LINE SMOOTH"
);
}
);
width = 938;
}
);
note = F;
unicode = 0046;
},
{
glyphname = G;
lastChange = "2021-04-15 12:05:57 +0000";
layers = (
{
layerId = "D08966C8-96EF-481A-BF9E-1465DF9248E1";
paths = (
{
closed = 1;
nodes = (
"1072 613 OFFCURVE",
"1015 636 OFFCURVE",
"976 636 CURVE SMOOTH",
"716 636 LINE SMOOTH",
"697 635 OFFCURVE",
"680 630 OFFCURVE",
"665 623 CURVE SMOOTH",
"638 610 OFFCURVE",
"614 585 OFFCURVE",
"614 534 CURVE SMOOTH",
"614 487 OFFCURVE",
"638 462 OFFCURVE",
"665 449 CURVE SMOOTH",
"680 441 OFFCURVE",
"697 436 OFFCURVE",
"716 434 CURVE",
"812 434 LINE",
"770 326 OFFCURVE",
"704 224 OFFCURVE",
"598 224 CURVE SMOOTH",
"508 224 OFFCURVE",
"442 292 OFFCURVE",
"442 378 CURVE SMOOTH",
"442 1018 LINE SMOOTH",
"443 1042 OFFCURVE",
"449 1063 OFFCURVE",
"458 1082 CURVE SMOOTH",
"474 1114 OFFCURVE",
"507 1146 OFFCURVE",
"572 1146 CURVE SMOOTH",
"698 1146 OFFCURVE",
"726 1059 OFFCURVE",
"726 916 CURVE SMOOTH",
"726 831 OFFCURVE",
"835 818 OFFCURVE",
"904 818 CURVE SMOOTH",
"1041 818 OFFCURVE",
"1064 874 OFFCURVE",
"1064 942 CURVE SMOOTH",
"1064 989 OFFCURVE",
"1059 1056 OFFCURVE",
"1035 1125 CURVE SMOOTH",
"1023 1160 OFFCURVE",
"1006 1194 OFFCURVE",
"984 1228 CURVE SMOOTH",
"940 1295 OFFCURVE",
"867 1350 OFFCURVE",
"762 1383 CURVE SMOOTH",
"709 1400 OFFCURVE",
"646 1408 OFFCURVE",
"572 1408 CURVE",
"485 1403 OFFCURVE",
"407 1385 OFFCURVE",
"339 1353 CURVE SMOOTH",
"280 1325 OFFCURVE",
"222 1285 OFFCURVE",
"179 1223 CURVE SMOOTH",
"135 1161 OFFCURVE",
"106 1077 OFFCURVE",
"106 968 CURVE SMOOTH",
"106 408 LINE SMOOTH",
"106 275 OFFCURVE",
"148 185 OFFCURVE",
"206 123 CURVE SMOOTH",
"235 92 OFFCURVE",
"267 67 OFFCURVE",
"302 50 CURVE SMOOTH",
"373 15 OFFCURVE",
"442 -1 OFFCURVE",
"495 -5 CURVE SMOOTH",
"522 -7 OFFCURVE",
"541 -8 OFFCURVE",
"554 -8 CURVE SMOOTH",
"699 -8 OFFCURVE",
"796 57 OFFCURVE",
"860 152 CURVE",
"860 92 LINE SMOOTH",
"860 41 OFFCURVE",
"884 -8 OFFCURVE",
"972 -8 CURVE SMOOTH",
"1054 -8 OFFCURVE",
"1072 45 OFFCURVE",
"1072 92 CURVE SMOOTH",
"1072 518 LINE SMOOTH"
);
}
);
width = 1156;
}
);
note = G;
unicode = 0047;
},
{
glyphname = H;
lastChange = "2021-04-15 12:05:57 +0000";
layers = (
{
layerId = "D08966C8-96EF-481A-BF9E-1465DF9248E1";
paths = (
{
closed = 1;
nodes = (
"146 104 OFFCURVE",
"163 0 OFFCURVE",
"298 0 CURVE SMOOTH",
"432 0 OFFCURVE",
"450 103 OFFCURVE",
"450 230 CURVE SMOOTH",
"450 562 LINE",
"724 562 LINE",
"724 230 LINE SMOOTH",
"724 104 OFFCURVE",
"741 0 OFFCURVE",
"876 0 CURVE SMOOTH",
"1010 0 OFFCURVE",
"1028 103 OFFCURVE",
"1028 230 CURVE SMOOTH",
"1028 1170 LINE SMOOTH",
"1028 1295 OFFCURVE",
"1010 1400 OFFCURVE",
"876 1400 CURVE SMOOTH",
"741 1400 OFFCURVE",
"724 1294 OFFCURVE",
"724 1170 CURVE SMOOTH",
"724 856 LINE",
"450 856 LINE",
"450 1170 LINE SMOOTH",
"450 1295 OFFCURVE",
"432 1400 OFFCURVE",
"298 1400 CURVE SMOOTH",
"163 1400 OFFCURVE",
"146 1294 OFFCURVE",
"146 1170 CURVE SMOOTH",
"146 230 LINE SMOOTH"
);
}
);
width = 1166;
}
);
note = H;
unicode = 0048;
},
{
glyphname = I;
lastChange = "2021-04-15 12:05:57 +0000";
layers = (
{
layerId = "D08966C8-96EF-481A-BF9E-1465DF9248E1";
paths = (
{
closed = 1;
nodes = (
"168 100 OFFCURVE",
"189 0 OFFCURVE",
"334 0 CURVE SMOOTH",
"482 0 OFFCURVE",
"500 99 OFFCURVE",
"500 230 CURVE SMOOTH",
"500 1170 LINE SMOOTH",
"500 1298 OFFCURVE",
"480 1400 OFFCURVE",
"334 1400 CURVE SMOOTH",
"188 1400 OFFCURVE",
"168 1298 OFFCURVE",
"168 1170 CURVE SMOOTH",
"168 230 LINE SMOOTH"
);
}
);
width = 666;
}
);
note = I;
unicode = 0049;
},
{
glyphname = J;
lastChange = "2021-04-15 12:05:57 +0000";
layers = (
{
layerId = "D08966C8-96EF-481A-BF9E-1465DF9248E1";
paths = (
{
closed = 1;
nodes = (
"556 -8 OFFCURVE",
"616 -5 OFFCURVE",
"671 8 CURVE SMOOTH",
"704 15 OFFCURVE",
"738 27 OFFCURVE",
"775 44 CURVE SMOOTH",
"847 77 OFFCURVE",
"910 138 OFFCURVE",
"950 234 CURVE SMOOTH",
"970 282 OFFCURVE",
"980 341 OFFCURVE",
"980 410 CURVE SMOOTH",
"980 1170 LINE SMOOTH",
"980 1297 OFFCURVE",
"956 1400 OFFCURVE",
"812 1400 CURVE SMOOTH",
"404 1400 LINE SMOOTH",
"286 1400 OFFCURVE",
"178 1382 OFFCURVE",
"178 1256 CURVE SMOOTH",
"178 1134 OFFCURVE",
"288 1116 OFFCURVE",
"404 1116 CURVE SMOOTH",
"666 1116 LINE",
"666 382 LINE SMOOTH",
"665 357 OFFCURVE",
"659 336 OFFCURVE",
"650 317 CURVE SMOOTH",
"634 284 OFFCURVE",
"601 252 OFFCURVE",
"536 252 CURVE SMOOTH",
"410 252 OFFCURVE",
"382 341 OFFCURVE",
"382 484 CURVE SMOOTH",
"382 570 OFFCURVE",
"274 584 OFFCURVE",
"206 584 CURVE SMOOTH",
"70 584 OFFCURVE",
"46 525 OFFCURVE",
"46 458 CURVE SMOOTH",
"46 411 OFFCURVE",
"51 344 OFFCURVE",
"75 275 CURVE SMOOTH",
"86 240 OFFCURVE",
"103 206 OFFCURVE",
"125 173 CURVE SMOOTH",
"169 105 OFFCURVE",
"241 50 OFFCURVE",
"347 17 CURVE SMOOTH",
"400 0 OFFCURVE",
"463 -8 OFFCURVE",
"536 -8 CURVE SMOOTH"
);
}
);
width = 1126;
}
);
note = J;
unicode = 004A;
},
{
glyphname = K;
lastChange = "2021-04-15 12:05:57 +0000";
layers = (
{
layerId = "D08966C8-96EF-481A-BF9E-1465DF9248E1";
paths = (
{
closed = 1;
nodes = (
"140 103 OFFCURVE",
"157 0 OFFCURVE",
"290 0 CURVE SMOOTH",
"426 0 OFFCURVE",
"444 102 OFFCURVE",
"444 230 CURVE SMOOTH",
"444 566 LINE",
"556 566 LINE SMOOTH",
"680 566 OFFCURVE",
"710 483 OFFCURVE",
"710 362 CURVE SMOOTH",
"710 156 LINE SMOOTH",
"710 51 OFFCURVE",
"808 -8 OFFCURVE",
"902 -8 CURVE SMOOTH",
"990 -8 OFFCURVE",
"1064 25 OFFCURVE",
"1064 118 CURVE SMOOTH",
"1064 133 OFFCURVE",
"1065 155 OFFCURVE",
"1038 186 CURVE SMOOTH",
"1033 192 OFFCURVE",
"1027 197 OFFCURVE",
"1022 202 CURVE SMOOTH",
"1017 207 OFFCURVE",
"1014 213 OFFCURVE",
"1014 220 CURVE SMOOTH",
"1014 362 LINE SMOOTH",
"1014 490 OFFCURVE",
"976 583 OFFCURVE",
"922 640 CURVE SMOOTH",
"895 669 OFFCURVE",
"865 689 OFFCURVE",
"830 702 CURVE",
"1010 1128 LINE SMOOTH",
"1030 1175 OFFCURVE",
"1042 1225 OFFCURVE",
"1042 1260 CURVE SMOOTH",
"1042 1348 OFFCURVE",
"966 1400 OFFCURVE",
"886 1400 CURVE SMOOTH",
"807 1400 OFFCURVE",
"768 1331 OFFCURVE",
"736 1256 CURVE SMOOTH",
"720 1221 OFFCURVE",
"702 1175 OFFCURVE",
"683 1127 CURVE SMOOTH",
"666 1087 OFFCURVE",
"640 1020 OFFCURVE",
"624 981 CURVE SMOOTH",
"602 926 OFFCURVE",
"580 869 OFFCURVE",
"558 812 CURVE",
"444 812 LINE",
"444 1172 LINE SMOOTH",
"444 1298 OFFCURVE",
"426 1400 OFFCURVE",
"290 1400 CURVE SMOOTH",
"157 1400 OFFCURVE",
"140 1297 OFFCURVE",
"140 1172 CURVE SMOOTH",
"140 230 LINE SMOOTH"
);
}
);
width = 1142;
}
);
note = K;
unicode = 004B;
},
{
glyphname = L;
lastChange = "2021-04-15 12:05:57 +0000";
layers = (
{
layerId = "D08966C8-96EF-481A-BF9E-1465DF9248E1";
paths = (
{
closed = 1;
nodes = (
"178 14 OFFCURVE",
"257 0 OFFCURVE",
"400 0 CURVE SMOOTH",
"684 0 LINE SMOOTH",
"805 0 OFFCURVE",
"906 18 OFFCURVE",
"906 148 CURVE SMOOTH",
"906 276 OFFCURVE",
"804 294 OFFCURVE",
"684 294 CURVE SMOOTH",
"488 294 LINE",
"488 1170 LINE SMOOTH",
"488 1299 OFFCURVE",
"474 1400 OFFCURVE",
"330 1400 CURVE SMOOTH",
"195 1400 OFFCURVE",
"178 1294 OFFCURVE",
"178 1170 CURVE SMOOTH",
"178 148 LINE SMOOTH"
);
}
);
width = 968;
}
);
note = L;
unicode = 004C;
},
{
glyphname = M;
lastChange = "2021-04-15 12:05:57 +0000";
layers = (
{
layerId = "D08966C8-96EF-481A-BF9E-1465DF9248E1";
paths = (
{
closed = 1;
nodes = (
"876 324 OFFCURVE",
"907 384 OFFCURVE",
"930 442 CURVE",
"1118 990 LINE",
"1146 990 LINE",
"1146 156 LINE SMOOTH",
"1146 61 OFFCURVE",
"1166 0 OFFCURVE",
"1280 0 CURVE SMOOTH",
"1408 0 OFFCURVE",
"1430 57 OFFCURVE",
"1430 156 CURVE SMOOTH",
"1430 1172 LINE SMOOTH",
"1430 1300 OFFCURVE",
"1423 1400 OFFCURVE",
"1280 1400 CURVE SMOOTH",
"1134 1400 LINE SMOOTH",
"1067 1400 OFFCURVE",
"1034 1397 OFFCURVE",
"999 1336 CURVE SMOOTH",
"975 1295 OFFCURVE",
"947 1221 OFFCURVE",
"908 1105 CURVE SMOOTH",
"889 1047 OFFCURVE",
"865 976 OFFCURVE",
"838 892 CURVE SMOOTH",
"806 792 LINE",
"782 792 LINE",
"756 872 LINE SMOOTH",
"696 1048 OFFCURVE",
"657 1166 OFFCURVE",
"626 1244 CURVE SMOOTH",
"610 1283 OFFCURVE",
"596 1313 OFFCURVE",
"583 1334 CURVE SMOOTH",
"544 1398 OFFCURVE",
"511 1400 OFFCURVE",
"442 1400 CURVE SMOOTH",
"306 1400 LINE SMOOTH",
"163 1400 OFFCURVE",
"156 1300 OFFCURVE",
"156 1172 CURVE SMOOTH",
"156 156 LINE SMOOTH",
"156 57 OFFCURVE",
"178 0 OFFCURVE",
"306 0 CURVE SMOOTH",
"420 0 OFFCURVE",
"440 61 OFFCURVE",
"440 156 CURVE SMOOTH",
"440 990 LINE",
"466 990 LINE",
"656 442 LINE SMOOTH",
"676 384 OFFCURVE",
"713 324 OFFCURVE",
"784 324 CURVE SMOOTH",
"804 324 LINE SMOOTH"
);
}
);
width = 1594;
}
);
note = M;
unicode = 004D;
},
{
glyphname = N;
lastChange = "2021-04-15 12:05:57 +0000";
layers = (
{
layerId = "D08966C8-96EF-481A-BF9E-1465DF9248E1";
paths = (
{
closed = 1;
nodes = (
"589 1299 OFFCURVE",
"578 1320 OFFCURVE",
"563 1338 CURVE SMOOTH",
"536 1369 OFFCURVE",
"497 1400 OFFCURVE",
"430 1400 CURVE SMOOTH",
"298 1400 LINE SMOOTH",
"155 1400 OFFCURVE",
"148 1300 OFFCURVE",
"148 1170 CURVE SMOOTH",
"148 156 LINE SMOOTH",
"148 57 OFFCURVE",
"170 0 OFFCURVE",
"298 0 CURVE SMOOTH",
"412 0 OFFCURVE",
"432 61 OFFCURVE",
"432 156 CURVE SMOOTH",
"432 986 LINE",
"456 986 LINE",
"758 168 LINE SMOOTH",
"783 95 OFFCURVE",
"828 0 OFFCURVE",
"942 0 CURVE SMOOTH",
"1074 0 LINE SMOOTH",
"1215 0 OFFCURVE",
"1222 99 OFFCURVE",
"1222 230 CURVE SMOOTH",
"1222 1244 LINE SMOOTH",
"1222 1342 OFFCURVE",
"1200 1400 OFFCURVE",
"1074 1400 CURVE SMOOTH",
"960 1400 OFFCURVE",
"940 1339 OFFCURVE",
"940 1244 CURVE SMOOTH",
"940 414 LINE",
"916 414 LINE",
"598 1276 LINE SMOOTH"
);
}
);
width = 1360;
}
);
note = N;
unicode = 004E;
},
{
glyphname = O;
lastChange = "2021-04-15 12:05:57 +0000";
layers = (
{
layerId = "D08966C8-96EF-481A-BF9E-1465DF9248E1";
paths = (
{
closed = 1;
nodes = (
"104 274 OFFCURVE",
"146 184 OFFCURVE",
"204 123 CURVE SMOOTH",
"233 92 OFFCURVE",
"265 68 OFFCURVE",
"300 51 CURVE SMOOTH",
"370 15 OFFCURVE",
"438 -1 OFFCURVE",
"491 -5 CURVE SMOOTH",
"518 -7 OFFCURVE",
"537 -8 OFFCURVE",
"550 -8 CURVE SMOOTH",
"584 -8 LINE SMOOTH",
"609 -8 OFFCURVE",
"667 -6 OFFCURVE",
"732 11 CURVE SMOOTH",
"765 20 OFFCURVE",
"799 33 OFFCURVE",
"834 51 CURVE SMOOTH",
"904 86 OFFCURVE",
"962 146 OFFCURVE",
"999 238 CURVE SMOOTH",
"1017 284 OFFCURVE",
"1026 340 OFFCURVE",
"1026 406 CURVE SMOOTH",
"1026 1004 LINE SMOOTH",
"1026 1132 OFFCURVE",
"985 1220 OFFCURVE",
"929 1280 CURVE SMOOTH",
"900 1310 OFFCURVE",
"869 1334 OFFCURVE",
"834 1351 CURVE SMOOTH",
"764 1385 OFFCURVE",
"696 1401 OFFCURVE",
"643 1405 CURVE SMOOTH",
"616 1407 OFFCURVE",
"597 1408 OFFCURVE",
"584 1408 CURVE SMOOTH",
"550 1408 LINE SMOOTH",
"525 1408 OFFCURVE",
"468 1406 OFFCURVE",
"402 1389 CURVE SMOOTH",
"369 1380 OFFCURVE",
"335 1368 OFFCURVE",
"300 1351 CURVE SMOOTH",
"230 1317 OFFCURVE",
"169 1258 OFFCURVE",
"132 1168 CURVE SMOOTH",
"113 1123 OFFCURVE",
"104 1068 OFFCURVE",
"104 1004 CURVE SMOOTH",
"104 406 LINE SMOOTH"
);
},
{
closed = 1;
nodes = (
"437 1044 OFFCURVE",
"443 1066 OFFCURVE",
"453 1085 CURVE SMOOTH",
"470 1117 OFFCURVE",
"503 1150 OFFCURVE",
"568 1150 CURVE SMOOTH",
"632 1150 OFFCURVE",
"664 1117 OFFCURVE",
"681 1085 CURVE SMOOTH",
"690 1066 OFFCURVE",
"696 1044 OFFCURVE",
"698 1020 CURVE",
"698 368 LINE",
"696 343 OFFCURVE",
"690 322 OFFCURVE",
"681 303 CURVE SMOOTH",
"664 270 OFFCURVE",
"632 238 OFFCURVE",
"568 238 CURVE SMOOTH",
"503 238 OFFCURVE",
"470 270 OFFCURVE",
"453 303 CURVE SMOOTH",
"443 322 OFFCURVE",
"437 343 OFFCURVE",
"436 368 CURVE SMOOTH",
"436 1020 LINE SMOOTH"
);
}
);
width = 1128;
}
);
note = O;
unicode = 004F;
},
{
glyphname = P;
lastChange = "2021-04-15 12:05:57 +0000";
layers = (
{
layerId = "D08966C8-96EF-481A-BF9E-1465DF9248E1";
paths = (
{
closed = 1;
nodes = (
"727 552 OFFCURVE",
"851 589 OFFCURVE",
"936 662 CURVE SMOOTH",
"1020 734 OFFCURVE",
"1066 841 OFFCURVE",
"1066 984 CURVE SMOOTH",
"1066 1088 OFFCURVE",
"1039 1167 OFFCURVE",
"997 1225 CURVE SMOOTH",
"955 1283 OFFCURVE",
"900 1321 OFFCURVE",
"844 1348 CURVE SMOOTH",
"779 1379 OFFCURVE",
"705 1396 OFFCURVE",
"622 1400 CURVE",
"292 1400 LINE SMOOTH",
"149 1400 OFFCURVE",
"142 1300 OFFCURVE",
"142 1172 CURVE SMOOTH",
"142 228 LINE SMOOTH",
"142 100 OFFCURVE",
"149 0 OFFCURVE",
"292 0 CURVE SMOOTH",
"438 0 OFFCURVE",
"446 99 OFFCURVE",
"446 228 CURVE SMOOTH",
"446 552 LINE",
"574 552 LINE SMOOTH"
);
},
{
closed = 1;
nodes = (
"592 1164 LINE",
"623 1161 OFFCURVE",
"652 1154 OFFCURVE",
"677 1141 CURVE SMOOTH",
"725 1114 OFFCURVE",
"762 1066 OFFCURVE",
"762 984 CURVE SMOOTH",
"762 896 OFFCURVE",
"725 842 OFFCURVE",
"672 814 CURVE SMOOTH",
"645 800 OFFCURVE",
"615 792 OFFCURVE",
"582 790 CURVE",
"446 790 LINE",
"446 1164 LINE"
);
}
);
width = 1082;
}
);
note = P;
unicode = 0050;
},
{
glyphname = Q;
lastChange = "2021-04-15 12:05:57 +0000";
layers = (
{
layerId = "D08966C8-96EF-481A-BF9E-1465DF9248E1";
paths = (
{
closed = 1;
nodes = (
"122 274 OFFCURVE",
"164 184 OFFCURVE",
"222 123 CURVE SMOOTH",
"251 92 OFFCURVE",
"283 68 OFFCURVE",
"318 51 CURVE SMOOTH",
"388 15 OFFCURVE",
"456 -1 OFFCURVE",
"509 -5 CURVE SMOOTH",
"536 -7 OFFCURVE",
"555 -8 OFFCURVE",
"568 -8 CURVE SMOOTH",
"602 -8 LINE SMOOTH",
"648 -8 OFFCURVE",
"721 -4 OFFCURVE",
"810 26 CURVE",
"922 -80 LINE SMOOTH",
"937 -95 OFFCURVE",
"957 -110 OFFCURVE",
"1004 -110 CURVE SMOOTH",
"1027 -110 OFFCURVE",
"1053 -104 OFFCURVE",
"1080 -80 CURVE SMOOTH",
"1107 -53 OFFCURVE",
"1114 -24 OFFCURVE",
"1114 -4 CURVE SMOOTH",
"1114 43 OFFCURVE",
"1099 57 OFFCURVE",
"1080 76 CURVE SMOOTH",
"980 166 LINE",
"1019 229 OFFCURVE",
"1044 306 OFFCURVE",
"1044 406 CURVE SMOOTH",
"1044 1002 LINE SMOOTH",
"1044 1131 OFFCURVE",
"1003 1220 OFFCURVE",
"946 1281 CURVE SMOOTH",
"917 1311 OFFCURVE",
"886 1335 OFFCURVE",
"851 1352 CURVE SMOOTH",
"782 1386 OFFCURVE",
"713 1401 OFFCURVE",
"661 1405 CURVE SMOOTH",
"634 1407 OFFCURVE",
"615 1408 OFFCURVE",
"602 1408 CURVE SMOOTH",
"568 1408 LINE SMOOTH",
"543 1408 OFFCURVE",
"486 1406 OFFCURVE",
"420 1390 CURVE SMOOTH",
"387 1381 OFFCURVE",
"353 1369 OFFCURVE",
"318 1352 CURVE SMOOTH",
"248 1318 OFFCURVE",
"187 1258 OFFCURVE",
"150 1167 CURVE SMOOTH",
"131 1122 OFFCURVE",
"122 1067 OFFCURVE",
"122 1002 CURVE SMOOTH",
"122 406 LINE SMOOTH"
);
},
{
closed = 1;
nodes = (
"455 1044 OFFCURVE",
"461 1065 OFFCURVE",
"471 1084 CURVE SMOOTH",
"488 1116 OFFCURVE",
"521 1148 OFFCURVE",
"586 1148 CURVE SMOOTH",
"650 1148 OFFCURVE",
"682 1116 OFFCURVE",
"699 1084 CURVE SMOOTH",
"708 1065 OFFCURVE",
"714 1044 OFFCURVE",
"716 1020 CURVE",
"716 368 LINE",
"714 343 OFFCURVE",
"708 322 OFFCURVE",
"699 303 CURVE SMOOTH",
"682 270 OFFCURVE",
"650 238 OFFCURVE",
"586 238 CURVE SMOOTH",
"521 238 OFFCURVE",
"488 270 OFFCURVE",
"471 303 CURVE SMOOTH",
"461 322 OFFCURVE",
"455 343 OFFCURVE",
"454 368 CURVE SMOOTH",
"454 1020 LINE SMOOTH"
);
}
);
width = 1156;
}
);
note = Q;
unicode = 0051;
},
{
glyphname = R;
lastChange = "2021-04-15 12:05:57 +0000";
layers = (
{
layerId = "D08966C8-96EF-481A-BF9E-1465DF9248E1";
paths = (
{
closed = 1;
nodes = (
"142 100 OFFCURVE",
"149 0 OFFCURVE",
"292 0 CURVE SMOOTH",
"437 0 OFFCURVE",
"444 99 OFFCURVE",
"444 232 CURVE SMOOTH",
"444 566 LINE",
"556 566 LINE SMOOTH",
"681 566 OFFCURVE",
"710 486 OFFCURVE",
"710 364 CURVE SMOOTH",
"710 152 LINE SMOOTH",
"710 52 OFFCURVE",
"808 -8 OFFCURVE",
"902 -8 CURVE SMOOTH",
"985 -8 OFFCURVE",
"1062 28 OFFCURVE",
"1062 118 CURVE SMOOTH",
"1062 125 OFFCURVE",
"1061 135 OFFCURVE",
"1058 147 CURVE SMOOTH",
"1055 158 OFFCURVE",
"1046 172 OFFCURVE",
"1030 188 CURVE SMOOTH",
"1022 196 OFFCURVE",
"1012 206 OFFCURVE",
"1012 222 CURVE SMOOTH",
"1012 364 LINE SMOOTH",
"1012 527 OFFCURVE",
"919 613 OFFCURVE",
"810 656 CURVE",
"883 677 OFFCURVE",
"937 714 OFFCURVE",
"974 755 CURVE SMOOTH",
"993 776 OFFCURVE",
"1008 797 OFFCURVE",
"1019 820 CURVE SMOOTH",
"1050 883 OFFCURVE",
"1062 942 OFFCURVE",
"1062 986 CURVE SMOOTH",
"1062 1090 OFFCURVE",
"1034 1168 OFFCURVE",
"993 1226 CURVE SMOOTH",
"952 1284 OFFCURVE",
"897 1321 OFFCURVE",
"842 1348 CURVE SMOOTH",
"777 1379 OFFCURVE",
"704 1396 OFFCURVE",
"622 1400 CURVE",
"292 1400 LINE SMOOTH",
"149 1400 OFFCURVE",
"142 1300 OFFCURVE",
"142 1172 CURVE SMOOTH",
"142 232 LINE SMOOTH"
);
},
{
closed = 1;
nodes = (
"588 1164 LINE",
"620 1162 OFFCURVE",
"649 1155 OFFCURVE",
"674 1142 CURVE SMOOTH",
"723 1118 OFFCURVE",
"760 1066 OFFCURVE",
"760 986 CURVE SMOOTH",
"760 897 OFFCURVE",
"723 842 OFFCURVE",
"670 814 CURVE SMOOTH",
"643 799 OFFCURVE",
"613 791 OFFCURVE",
"580 790 CURVE SMOOTH",
"444 790 LINE",
"444 1164 LINE"
);
}
);
width = 1142;
}
);
note = R;
unicode = 0052;
},
{
glyphname = S;
lastChange = "2021-04-15 12:05:57 +0000";
layers = (
{
layerId = "D08966C8-96EF-481A-BF9E-1465DF9248E1";
paths = (
{
closed = 1;
nodes = (
"398 1171 OFFCURVE",
"450 1188 OFFCURVE",
"538 1188 CURVE SMOOTH",
"614 1188 OFFCURVE",
"654 1151 OFFCURVE",
"654 1042 CURVE SMOOTH",
"654 988 OFFCURVE",
"726 934 OFFCURVE",
"788 934 CURVE SMOOTH",
"869 934 OFFCURVE",
"934 987 OFFCURVE",
"934 1066 CURVE SMOOTH",
"934 1093 OFFCURVE",
"932 1139 OFFCURVE",
"916 1190 CURVE SMOOTH",
"908 1215 OFFCURVE",
"896 1241 OFFCURVE",
"880 1267 CURVE SMOOTH",
"847 1319 OFFCURVE",
"791 1361 OFFCURVE",
"706 1388 CURVE SMOOTH",
"663 1401 OFFCURVE",
"611 1408 OFFCURVE",
"550 1408 CURVE SMOOTH",
"524 1408 LINE SMOOTH",
"389 1408 OFFCURVE",
"285 1387 OFFCURVE",
"214 1331 CURVE SMOOTH",
"142 1275 OFFCURVE",
"105 1183 OFFCURVE",
"104 1040 CURVE SMOOTH",
"104 1024 LINE SMOOTH",
"107 855 OFFCURVE",
"237 760 OFFCURVE",
"378 670 CURVE SMOOTH",
"511 585 OFFCURVE",
"650 502 OFFCURVE",
"650 364 CURVE SMOOTH",
"650 257 OFFCURVE",
"599 223 OFFCURVE",
"512 220 CURVE SMOOTH",
"432 220 OFFCURVE",
"389 250 OFFCURVE",
"386 350 CURVE SMOOTH",
"383 437 OFFCURVE",
"306 484 OFFCURVE",
"230 484 CURVE SMOOTH",
"151 484 OFFCURVE",
"88 438 OFFCURVE",
"88 348 CURVE SMOOTH",
"88 303 OFFCURVE",
"98 249 OFFCURVE",
"122 197 CURVE SMOOTH",
"134 170 OFFCURVE",
"150 145 OFFCURVE",
"171 120 CURVE SMOOTH",
"211 71 OFFCURVE",
"272 32 OFFCURVE",
"357 9 CURVE SMOOTH",
"400 -2 OFFCURVE",
"449 -8 OFFCURVE",
"506 -8 CURVE SMOOTH",
"516 -8 LINE SMOOTH",
"575 -7 OFFCURVE",
"643 1 OFFCURVE",
"708 24 CURVE SMOOTH",
"740 35 OFFCURVE",
"771 51 OFFCURVE",
"800 70 CURVE SMOOTH",
"859 108 OFFCURVE",
"903 166 OFFCURVE",
"930 247 CURVE SMOOTH",
"943 288 OFFCURVE",
"950 335 OFFCURVE",
"950 390 CURVE SMOOTH",
"950 398 LINE SMOOTH",
"947 498 OFFCURVE",
"913 575 OFFCURVE",
"861 638 CURVE SMOOTH",
"809 701 OFFCURVE",
"741 749 OFFCURVE",
"673 791 CURVE SMOOTH",
"617 824 OFFCURVE",
"528 875 OFFCURVE",
"485 909 CURVE SMOOTH",
"433 949 OFFCURVE",
"399 992 OFFCURVE",
"398 1048 CURVE SMOOTH"
);
}
);
width = 1014;
}
);
note = S;
unicode = 0053;
},
{
glyphname = T;
lastChange = "2021-04-15 12:05:57 +0000";
layers = (
{
layerId = "D08966C8-96EF-481A-BF9E-1465DF9248E1";
paths = (
{
closed = 1;
nodes = (
"119 1400 OFFCURVE",
"10 1388 OFFCURVE",
"10 1258 CURVE SMOOTH",
"10 1130 OFFCURVE",
"119 1116 OFFCURVE",
"238 1116 CURVE SMOOTH",
"340 1116 LINE",
"340 228 LINE SMOOTH",
"340 99 OFFCURVE",
"347 0 OFFCURVE",
"492 0 CURVE SMOOTH",
"637 0 OFFCURVE",
"644 99 OFFCURVE",
"644 228 CURVE SMOOTH",
"644 1116 LINE",
"746 1116 LINE SMOOTH",
"865 1116 OFFCURVE",
"974 1130 OFFCURVE",
"974 1258 CURVE SMOOTH",
"974 1388 OFFCURVE",
"865 1400 OFFCURVE",
"746 1400 CURVE SMOOTH",
"238 1400 LINE SMOOTH"
);
}
);
width = 982;
}
);
note = T;
unicode = 0054;
},
{
glyphname = U;
lastChange = "2021-04-15 12:05:57 +0000";
layers = (
{
layerId = "D08966C8-96EF-481A-BF9E-1465DF9248E1";
paths = (
{
closed = 1;
nodes = (
"142 275 OFFCURVE",
"189 171 OFFCURVE",
"271 100 CURVE SMOOTH",
"353 29 OFFCURVE",
"467 -8 OFFCURVE",
"606 -8 CURVE SMOOTH",
"743 -8 OFFCURVE",
"860 28 OFFCURVE",
"942 98 CURVE SMOOTH",
"1024 168 OFFCURVE",
"1070 271 OFFCURVE",
"1070 410 CURVE SMOOTH",
"1070 1172 LINE SMOOTH",
"1070 1300 OFFCURVE",
"1049 1400 OFFCURVE",
"904 1400 CURVE SMOOTH",
"756 1400 OFFCURVE",
"738 1301 OFFCURVE",
"738 1172 CURVE SMOOTH",
"738 384 LINE SMOOTH",
"737 355 OFFCURVE",
"731 329 OFFCURVE",
"721 306 CURVE SMOOTH",
"703 261 OFFCURVE",
"665 228 OFFCURVE",
"606 228 CURVE SMOOTH",
"548 228 OFFCURVE",
"510 262 OFFCURVE",
"492 306 CURVE SMOOTH",
"482 329 OFFCURVE",
"476 355 OFFCURVE",
"474 384 CURVE",
"474 1172 LINE SMOOTH",
"474 1301 OFFCURVE",
"456 1400 OFFCURVE",
"308 1400 CURVE SMOOTH",
"163 1400 OFFCURVE",
"142 1300 OFFCURVE",
"142 1172 CURVE SMOOTH",
"142 410 LINE SMOOTH"
);
}
);
width = 1208;
}
);
note = U;
unicode = 0055;
},
{
glyphname = V;
lastChange = "2021-04-15 12:05:57 +0000";
layers = (
{
layerId = "D08966C8-96EF-481A-BF9E-1465DF9248E1";
paths = (
{
closed = 1;
nodes = (
"780 1400 OFFCURVE",
"744 1367 OFFCURVE",
"721 1332 CURVE SMOOTH",
"708 1312 OFFCURVE",
"699 1289 OFFCURVE",
"692 1264 CURVE",
"679 1200 OFFCURVE",
"661 1117 OFFCURVE",
"642 1030 CURVE SMOOTH",
"623 943 OFFCURVE",
"603 851 OFFCURVE",
"586 767 CURVE SMOOTH",
"565 668 OFFCURVE",
"543 567 OFFCURVE",
"520 464 CURVE",
"488 464 LINE",
"467 567 OFFCURVE",
"447 668 OFFCURVE",
"426 767 CURVE SMOOTH",
"409 851 OFFCURVE",
"389 943 OFFCURVE",
"370 1030 CURVE SMOOTH",
"351 1117 OFFCURVE",
"332 1200 OFFCURVE",
"316 1264 CURVE SMOOTH",
"310 1289 OFFCURVE",
"301 1312 OFFCURVE",
"288 1332 CURVE SMOOTH",
"265 1367 OFFCURVE",
"228 1400 OFFCURVE",
"164 1400 CURVE SMOOTH",
"83 1400 OFFCURVE",
"16 1345 OFFCURVE",
"16 1272 CURVE SMOOTH",
"16 1255 OFFCURVE",
"18 1240 OFFCURVE",
"21 1227 CURVE SMOOTH",
"22 1220 OFFCURVE",
"24 1213 OFFCURVE",
"26 1208 CURVE",
"310 120 LINE",
"319 97 OFFCURVE",
"332 77 OFFCURVE",
"349 60 CURVE SMOOTH",
"377 29 OFFCURVE",
"421 0 OFFCURVE",
"488 0 CURVE SMOOTH",
"520 0 LINE SMOOTH",
"587 0 OFFCURVE",
"630 29 OFFCURVE",
"658 60 CURVE SMOOTH",
"675 77 OFFCURVE",
"688 97 OFFCURVE",
"698 120 CURVE",
"743 297 OFFCURVE",
"791 479 OFFCURVE",
"840 664 CURVE SMOOTH",
"889 849 OFFCURVE",
"937 1030 OFFCURVE",
"982 1208 CURVE SMOOTH",
"983 1213 OFFCURVE",
"985 1220 OFFCURVE",
"987 1227 CURVE SMOOTH",
"990 1239 OFFCURVE",
"992 1255 OFFCURVE",
"992 1272 CURVE SMOOTH",
"992 1344 OFFCURVE",
"922 1400 OFFCURVE",
"844 1400 CURVE SMOOTH"
);
}
);
width = 1000;
}
);
note = V;
unicode = 0056;
},
{
glyphname = W;
lastChange = "2021-04-15 12:05:57 +0000";
layers = (
{
layerId = "D08966C8-96EF-481A-BF9E-1465DF9248E1";
paths = (
{
closed = 1;
nodes = (
"767 1394 OFFCURVE",
"711 1338 OFFCURVE",
"692 1262 CURVE SMOOTH",
"664 1138 OFFCURVE",
"634 1001 OFFCURVE",
"604 863 CURVE SMOOTH",
"574 725 OFFCURVE",
"543 587 OFFCURVE",
"518 464 CURVE",
"484 464 LINE",
"310 1262 LINE SMOOTH",
"304 1287 OFFCURVE",
"295 1310 OFFCURVE",
"283 1331 CURVE SMOOTH",
"262 1366 OFFCURVE",
"225 1400 OFFCURVE",
"164 1400 CURVE SMOOTH",
"77 1400 OFFCURVE",
"24 1333 OFFCURVE",
"24 1268 CURVE SMOOTH",
"24 1252 OFFCURVE",
"25 1237 OFFCURVE",
"28 1226 CURVE SMOOTH",
"29 1219 OFFCURVE",
"31 1213 OFFCURVE",
"32 1208 CURVE SMOOTH",
"302 120 LINE",
"312 97 OFFCURVE",
"326 77 OFFCURVE",
"343 60 CURVE SMOOTH",
"372 29 OFFCURVE",
"417 0 OFFCURVE",
"484 0 CURVE SMOOTH",
"518 0 LINE SMOOTH",
"585 0 OFFCURVE",
"624 29 OFFCURVE",
"651 60 CURVE SMOOTH",
"666 77 OFFCURVE",
"677 97 OFFCURVE",
"686 120 CURVE",
"708 215 OFFCURVE",
"731 312 OFFCURVE",
"756 413 CURVE SMOOTH",
"780 514 OFFCURVE",
"803 611 OFFCURVE",
"824 706 CURVE",
"858 706 LINE",
"998 120 LINE",
"1005 97 OFFCURVE",
"1016 77 OFFCURVE",
"1031 60 CURVE SMOOTH",
"1056 29 OFFCURVE",
"1097 0 OFFCURVE",
"1164 0 CURVE SMOOTH",
"1198 0 LINE SMOOTH",
"1265 0 OFFCURVE",
"1308 29 OFFCURVE",
"1336 60 CURVE SMOOTH",
"1353 77 OFFCURVE",
"1366 97 OFFCURVE",
"1376 120 CURVE",
"1650 1208 LINE SMOOTH",
"1651 1213 OFFCURVE",
"1653 1219 OFFCURVE",
"1654 1226 CURVE SMOOTH",
"1657 1237 OFFCURVE",
"1658 1252 OFFCURVE",
"1658 1268 CURVE SMOOTH",
"1658 1333 OFFCURVE",
"1605 1400 OFFCURVE",
"1518 1400 CURVE SMOOTH",
"1457 1400 OFFCURVE",
"1420 1366 OFFCURVE",
"1399 1331 CURVE SMOOTH",
"1387 1310 OFFCURVE",
"1378 1287 OFFCURVE",
"1372 1262 CURVE SMOOTH",
"1313 1001 OFFCURVE",
"1254 724 OFFCURVE",
"1198 464 CURVE",
"1164 464 LINE",
"992 1262 LINE SMOOTH",
"976 1337 OFFCURVE",
"916 1394 OFFCURVE",
"842 1394 CURVE SMOOTH"
);
}
);
width = 1666;
}
);
note = W;
unicode = 0057;
},
{
glyphname = X;
lastChange = "2021-04-15 12:05:57 +0000";
layers = (
{
layerId = "D08966C8-96EF-481A-BF9E-1465DF9248E1";
paths = (
{
closed = 1;
nodes = (
"80 214 OFFCURVE",
"56 171 OFFCURVE",
"56 128 CURVE SMOOTH",
"56 92 OFFCURVE",
"73 56 OFFCURVE",
"128 24 CURVE SMOOTH",
"156 8 OFFCURVE",
"183 0 OFFCURVE",
"208 0 CURVE SMOOTH",
"275 0 OFFCURVE",
"316 61 OFFCURVE",
"356 122 CURVE SMOOTH",
"558 450 LINE",
"588 450 LINE",
"790 122 LINE SMOOTH",
"830 61 OFFCURVE",
"871 0 OFFCURVE",
"940 0 CURVE SMOOTH",
"965 0 OFFCURVE",
"992 8 OFFCURVE",
"1022 24 CURVE SMOOTH",
"1074 56 OFFCURVE",
"1090 92 OFFCURVE",
"1090 128 CURVE SMOOTH",
"1090 171 OFFCURVE",
"1066 214 OFFCURVE",
"1038 258 CURVE SMOOTH",
"760 696 LINE",
"760 714 LINE",
"1010 1096 LINE SMOOTH",
"1026 1118 OFFCURVE",
"1040 1140 OFFCURVE",
"1052 1162 CURVE SMOOTH",
"1073 1199 OFFCURVE",
"1094 1243 OFFCURVE",
"1094 1272 CURVE SMOOTH",
"1094 1307 OFFCURVE",
"1076 1343 OFFCURVE",
"1020 1374 CURVE SMOOTH",
"989 1390 OFFCURVE",
"962 1400 OFFCURVE",
"938 1400 CURVE SMOOTH",
"862 1400 OFFCURVE",
"818 1327 OFFCURVE",
"774 1256 CURVE SMOOTH",
"588 950 LINE",
"558 950 LINE",
"372 1256 LINE SMOOTH",
"329 1327 OFFCURVE",
"284 1400 OFFCURVE",
"208 1400 CURVE SMOOTH",
"183 1400 OFFCURVE",
"156 1392 OFFCURVE",
"126 1376 CURVE SMOOTH",
"74 1345 OFFCURVE",
"56 1306 OFFCURVE",
"56 1270 CURVE SMOOTH",
"56 1242 OFFCURVE",
"76 1198 OFFCURVE",
"96 1162 CURVE SMOOTH",
"108 1140 OFFCURVE",
"121 1118 OFFCURVE",
"136 1096 CURVE SMOOTH",
"388 714 LINE",
"388 696 LINE",
"108 258 LINE SMOOTH"
);
}
);
width = 1146;
}
);
note = X;
unicode = 0058;
},
{
glyphname = Y;
lastChange = "2021-04-15 12:05:57 +0000";
layers = (
{
layerId = "D08966C8-96EF-481A-BF9E-1465DF9248E1";
paths = (
{
closed = 1;
nodes = (
"978 1149 OFFCURVE",
"995 1185 OFFCURVE",
"1006 1212 CURVE SMOOTH",
"1017 1239 OFFCURVE",
"1022 1258 OFFCURVE",
"1022 1270 CURVE SMOOTH",
"1022 1306 OFFCURVE",
"1002 1344 OFFCURVE",
"950 1376 CURVE",
"919 1392 OFFCURVE",
"894 1400 OFFCURVE",
"866 1400 CURVE SMOOTH",
"787 1400 OFFCURVE",
"737 1322 OFFCURVE",
"702 1246 CURVE SMOOTH",
"520 864 LINE",
"488 864 LINE",
"306 1246 LINE SMOOTH",
"271 1322 OFFCURVE",
"221 1400 OFFCURVE",
"142 1400 CURVE SMOOTH",
"116 1400 OFFCURVE",
"88 1392 OFFCURVE",
"58 1376 CURVE SMOOTH",
"3 1344 OFFCURVE",
"-14 1306 OFFCURVE",
"-14 1270 CURVE SMOOTH",
"-14 1215 OFFCURVE",
"22 1162 OFFCURVE",
"54 1106 CURVE SMOOTH",
"352 574 LINE",
"352 226 LINE SMOOTH",
"352 103 OFFCURVE",
"370 0 OFFCURVE",
"504 0 CURVE SMOOTH",
"637 0 OFFCURVE",
"654 103 OFFCURVE",
"654 226 CURVE SMOOTH",
"654 574 LINE",
"954 1106 LINE SMOOTH"
);
}
);
width = 1000;
}
);
note = Y;
unicode = 0059;
},
{
glyphname = Z;
lastChange = "2021-04-15 12:05:57 +0000";
layers = (
{
layerId = "D08966C8-96EF-481A-BF9E-1465DF9248E1";
paths = (
{
closed = 1;
nodes = (
"72 184 OFFCURVE",
"70 168 OFFCURVE",
"70 144 CURVE SMOOTH",
"70 67 OFFCURVE",
"135 0 OFFCURVE",
"230 0 CURVE SMOOTH",
"756 0 LINE SMOOTH",
"872 0 OFFCURVE",
"982 18 OFFCURVE",
"982 144 CURVE SMOOTH",
"982 268 OFFCURVE",
"871 286 OFFCURVE",
"756 286 CURVE SMOOTH",
"468 286 LINE",
"454 300 LINE",
"968 1194 LINE SMOOTH",
"976 1209 OFFCURVE",
"980 1228 OFFCURVE",
"980 1248 CURVE SMOOTH",
"980 1326 OFFCURVE",
"917 1400 OFFCURVE",
"822 1400 CURVE SMOOTH",
"296 1400 LINE SMOOTH",
"178 1400 OFFCURVE",
"70 1381 OFFCURVE",
"70 1248 CURVE SMOOTH",
"70 1131 OFFCURVE",
"182 1114 OFFCURVE",
"296 1114 CURVE SMOOTH",
"584 1114 LINE",
"600 1098 LINE",
"84 204 LINE SMOOTH"
);
}
);
width = 1042;
}
);
note = Z;
unicode = 005A;
},
{
glyphname = a;
lastChange = "2021-04-15 12:05:57 +0000";
layers = (
{
layerId = "D08966C8-96EF-481A-BF9E-1465DF9248E1";
paths = (
{
closed = 1;
nodes = (
"912 896 OFFCURVE",
"892 1000 OFFCURVE",
"762 1000 CURVE SMOOTH",
"677 1000 OFFCURVE",
"608 952 OFFCURVE",
"608 830 CURVE",
"581 920 OFFCURVE",
"514 998 OFFCURVE",
"392 998 CURVE SMOOTH",
"319 998 OFFCURVE",
"242 976 OFFCURVE",
"183 921 CURVE SMOOTH",
"124 865 OFFCURVE",
"84 777 OFFCURVE",
"84 644 CURVE SMOOTH",
"84 354 LINE SMOOTH",
"84 222 OFFCURVE",
"124 134 OFFCURVE",
"183 78 CURVE SMOOTH",
"242 22 OFFCURVE",
"319 0 OFFCURVE",
"392 0 CURVE SMOOTH",
"514 0 OFFCURVE",
"581 80 OFFCURVE",
"608 168 CURVE",
"608 88 OFFCURVE",
"632 0 OFFCURVE",
"762 0 CURVE SMOOTH",
"900 0 OFFCURVE",
"912 102 OFFCURVE",
"912 226 CURVE SMOOTH",
"912 772 LINE SMOOTH"
);
},
{
closed = 1;
nodes = (
"392 697 OFFCURVE",
"400 764 OFFCURVE",
"480 764 CURVE SMOOTH",
"580 764 OFFCURVE",
"608 624 OFFCURVE",
"608 530 CURVE SMOOTH",
"607 427 OFFCURVE",
"601 354 OFFCURVE",
"582 306 CURVE SMOOTH",
"563 257 OFFCURVE",
"532 234 OFFCURVE",
"480 234 CURVE SMOOTH",
"400 234 OFFCURVE",
"392 302 OFFCURVE",
"392 380 CURVE SMOOTH",
"392 622 LINE SMOOTH"
);
}
);
width = 1020;
}
);
note = a;
unicode = 0061;
},
{
glyphname = b;
lastChange = "2021-04-15 12:05:57 +0000";
layers = (
{
layerId = "D08966C8-96EF-481A-BF9E-1465DF9248E1";
paths = (
{
closed = 1;
nodes = (
"120 102 OFFCURVE",
"132 0 OFFCURVE",
"270 0 CURVE SMOOTH",
"400 0 OFFCURVE",
"424 88 OFFCURVE",
"424 168 CURVE",
"451 80 OFFCURVE",
"518 0 OFFCURVE",
"640 0 CURVE SMOOTH",
"713 0 OFFCURVE",
"790 22 OFFCURVE",
"849 78 CURVE SMOOTH",
"908 134 OFFCURVE",
"948 222 OFFCURVE",
"948 354 CURVE SMOOTH",
"948 644 LINE SMOOTH",
"948 777 OFFCURVE",
"908 865 OFFCURVE",
"849 921 CURVE SMOOTH",
"790 976 OFFCURVE",
"713 998 OFFCURVE",
"640 998 CURVE SMOOTH",
"518 998 OFFCURVE",
"451 920 OFFCURVE",
"424 830 CURVE",
"424 1172 LINE SMOOTH",
"424 1298 OFFCURVE",
"404 1400 OFFCURVE",
"270 1400 CURVE SMOOTH",
"140 1400 OFFCURVE",
"120 1296 OFFCURVE",
"120 1172 CURVE SMOOTH",
"120 226 LINE SMOOTH"
);
},
{
closed = 1;
nodes = (
"640 302 OFFCURVE",
"632 234 OFFCURVE",
"552 234 CURVE SMOOTH",
"500 234 OFFCURVE",
"469 257 OFFCURVE",
"450 306 CURVE SMOOTH",
"431 354 OFFCURVE",
"425 427 OFFCURVE",
"424 530 CURVE SMOOTH",
"424 624 OFFCURVE",
"452 764 OFFCURVE",
"552 764 CURVE SMOOTH",
"632 764 OFFCURVE",
"640 697 OFFCURVE",
"640 622 CURVE SMOOTH",
"640 380 LINE SMOOTH"
);
}
);
width = 1042;
}
);
note = b;
unicode = 0062;
},
{
glyphname = c;
lastChange = "2021-04-15 12:05:57 +0000";
layers = (
{
layerId = "D08966C8-96EF-481A-BF9E-1465DF9248E1";
paths = (
{
closed = 1;
nodes = (
"388 714 OFFCURVE",
"407 772 OFFCURVE",
"496 772 CURVE SMOOTH",
"604 772 OFFCURVE",
"618 724 OFFCURVE",
"618 648 CURVE SMOOTH",
"618 561 OFFCURVE",
"719 554 OFFCURVE",
"786 554 CURVE SMOOTH",
"910 554 OFFCURVE",
"928 615 OFFCURVE",
"928 680 CURVE SMOOTH",
"928 721 OFFCURVE",
"919 771 OFFCURVE",
"895 819 CURVE SMOOTH",
"883 843 OFFCURVE",
"867 866 OFFCURVE",
"846 888 CURVE SMOOTH",
"804 931 OFFCURVE",
"740 965 OFFCURVE",
"652 985 CURVE SMOOTH",
"607 995 OFFCURVE",
"555 1000 OFFCURVE",
"496 1000 CURVE SMOOTH",
"456 1000 OFFCURVE",
"398 998 OFFCURVE",
"337 982 CURVE SMOOTH",
"306 974 OFFCURVE",
"276 962 OFFCURVE",
"246 946 CURVE SMOOTH",
"186 913 OFFCURVE",
"137 855 OFFCURVE",
"107 767 CURVE SMOOTH",
"92 723 OFFCURVE",
"84 669 OFFCURVE",
"84 606 CURVE SMOOTH",
"84 372 LINE SMOOTH",
"84 240 OFFCURVE",
"135 147 OFFCURVE",
"212 87 CURVE SMOOTH",
"288 27 OFFCURVE",
"391 0 OFFCURVE",
"496 0 CURVE SMOOTH",
"557 0 OFFCURVE",
"626 7 OFFCURVE",
"691 26 CURVE SMOOTH",
"723 35 OFFCURVE",
"753 48 OFFCURVE",
"782 64 CURVE SMOOTH",
"839 96 OFFCURVE",
"885 143 OFFCURVE",
"911 208 CURVE SMOOTH",
"924 240 OFFCURVE",
"930 277 OFFCURVE",
"930 320 CURVE SMOOTH",
"930 373 OFFCURVE",
"908 422 OFFCURVE",
"788 422 CURVE SMOOTH",
"660 422 OFFCURVE",
"620 384 OFFCURVE",
"620 328 CURVE SMOOTH",
"620 245 OFFCURVE",
"604 200 OFFCURVE",
"496 200 CURVE SMOOTH",
"406 200 OFFCURVE",
"388 287 OFFCURVE",
"388 346 CURVE SMOOTH",
"388 656 LINE SMOOTH"
);
}
);
width = 1000;
}
);
note = c;
unicode = 0063;
},
{
glyphname = d;
lastChange = "2021-04-15 12:05:57 +0000";
layers = (
{
layerId = "D08966C8-96EF-481A-BF9E-1465DF9248E1";
paths = (
{
closed = 1;
nodes = (
"910 1296 OFFCURVE",
"890 1400 OFFCURVE",
"760 1400 CURVE SMOOTH",
"626 1400 OFFCURVE",
"606 1297 OFFCURVE",
"606 1172 CURVE SMOOTH",
"606 830 LINE",
"579 920 OFFCURVE",
"512 998 OFFCURVE",
"390 998 CURVE SMOOTH",
"317 998 OFFCURVE",
"240 976 OFFCURVE",
"181 921 CURVE SMOOTH",
"122 865 OFFCURVE",
"82 777 OFFCURVE",
"82 644 CURVE SMOOTH",
"82 354 LINE SMOOTH",
"82 222 OFFCURVE",
"122 134 OFFCURVE",
"181 78 CURVE SMOOTH",
"240 22 OFFCURVE",
"317 0 OFFCURVE",
"390 0 CURVE SMOOTH",
"512 0 OFFCURVE",
"579 80 OFFCURVE",
"606 168 CURVE",
"606 88 OFFCURVE",
"630 0 OFFCURVE",
"760 0 CURVE SMOOTH",
"898 0 OFFCURVE",
"910 102 OFFCURVE",
"910 226 CURVE SMOOTH",
"910 1172 LINE SMOOTH"
);
},
{
closed = 1;
nodes = (
"390 697 OFFCURVE",
"398 764 OFFCURVE",
"478 764 CURVE SMOOTH",
"578 764 OFFCURVE",
"606 624 OFFCURVE",
"606 530 CURVE SMOOTH",
"605 427 OFFCURVE",
"599 354 OFFCURVE",
"580 306 CURVE SMOOTH",
"561 257 OFFCURVE",
"530 234 OFFCURVE",
"478 234 CURVE SMOOTH",
"398 234 OFFCURVE",
"390 302 OFFCURVE",
"390 380 CURVE SMOOTH",
"390 622 LINE SMOOTH"
);
}
);
width = 1020;
}
);
note = d;
unicode = 0064;
},
{
glyphname = e;
lastChange = "2021-04-15 12:05:58 +0000";
layers = (
{
layerId = "D08966C8-96EF-481A-BF9E-1465DF9248E1";
paths = (
{
closed = 1;
nodes = (
"936 680 OFFCURVE",
"933 738 OFFCURVE",
"914 792 CURVE SMOOTH",
"905 819 OFFCURVE",
"891 845 OFFCURVE",
"872 870 CURVE SMOOTH",
"835 921 OFFCURVE",
"772 960 OFFCURVE",
"677 984 CURVE SMOOTH",
"629 996 OFFCURVE",
"571 1002 OFFCURVE",
"504 1002 CURVE SMOOTH",
"464 1002 OFFCURVE",
"406 1000 OFFCURVE",
"345 984 CURVE SMOOTH",
"314 976 OFFCURVE",
"284 964 OFFCURVE",
"254 948 CURVE SMOOTH",
"194 915 OFFCURVE",
"145 857 OFFCURVE",
"115 769 CURVE SMOOTH",
"100 725 OFFCURVE",
"92 671 OFFCURVE",
"92 608 CURVE SMOOTH",
"92 374 LINE SMOOTH",
"92 237 OFFCURVE",
"141 144 OFFCURVE",
"218 85 CURVE SMOOTH",
"294 26 OFFCURVE",
"397 1 OFFCURVE",
"508 0 CURVE SMOOTH",
"592 0 OFFCURVE",
"695 13 OFFCURVE",
"778 48 CURVE SMOOTH",
"861 83 OFFCURVE",
"922 139 OFFCURVE",
"922 226 CURVE SMOOTH",
"922 305 OFFCURVE",
"864 326 OFFCURVE",
"792 326 CURVE SMOOTH",
"723 326 OFFCURVE",
"687 312 OFFCURVE",
"665 293 CURVE SMOOTH",
"654 284 OFFCURVE",
"645 274 OFFCURVE",
"638 263 CURVE SMOOTH",
"615 225 OFFCURVE",
"590 200 OFFCURVE",
"520 200 CURVE SMOOTH",
"431 200 OFFCURVE",
"396 275 OFFCURVE",
"396 348 CURVE SMOOTH",
"396 444 LINE",
"794 444 LINE SMOOTH",
"918 444 OFFCURVE",
"936 505 OFFCURVE",
"936 570 CURVE SMOOTH",
"936 632 LINE SMOOTH"
);
},
{
closed = 1;
nodes = (
"396 727 OFFCURVE",
"416 790 OFFCURVE",
"514 790 CURVE SMOOTH",
"641 790 OFFCURVE",
"646 724 OFFCURVE",
"646 594 CURVE",
"396 594 LINE",
"396 664 LINE SMOOTH"
);
}
);
width = 1020;
}
);
note = e;
unicode = 0065;
},
{
glyphname = f;
lastChange = "2021-04-15 12:05:58 +0000";
layers = (
{
layerId = "D08966C8-96EF-481A-BF9E-1465DF9248E1";
paths = (
{
closed = 1;
nodes = (
"504 1088 OFFCURVE",
"508 1144 OFFCURVE",
"544 1144 CURVE SMOOTH",
"555 1144 OFFCURVE",
"565 1142 OFFCURVE",
"574 1137 CURVE SMOOTH",
"583 1132 OFFCURVE",
"592 1130 OFFCURVE",
"602 1130 CURVE SMOOTH",
"660 1130 OFFCURVE",
"724 1168 OFFCURVE",
"724 1256 CURVE SMOOTH",
"724 1360 OFFCURVE",
"623 1400 OFFCURVE",
"504 1400 CURVE SMOOTH",
"363 1400 OFFCURVE",
"286 1359 OFFCURVE",
"245 1289 CURVE SMOOTH",
"204 1219 OFFCURVE",
"198 1117 OFFCURVE",
"198 1000 CURVE",
"142 1000 LINE SMOOTH",
"56 1000 OFFCURVE",
"0 985 OFFCURVE",
"0 876 CURVE SMOOTH",
"0 774 OFFCURVE",
"59 756 OFFCURVE",
"142 756 CURVE SMOOTH",
"198 756 LINE",
"198 226 LINE SMOOTH",
"198 101 OFFCURVE",
"215 0 OFFCURVE",
"346 0 CURVE SMOOTH",
"483 0 OFFCURVE",
"504 100 OFFCURVE",
"504 226 CURVE SMOOTH",
"504 756 LINE",
"564 756 LINE SMOOTH",
"642 756 OFFCURVE",
"708 775 OFFCURVE",
"708 876 CURVE SMOOTH",
"708 984 OFFCURVE",
"646 1000 OFFCURVE",
"564 1000 CURVE SMOOTH",
"504 1000 LINE",
"504 1042 LINE SMOOTH"
);
}
);
width = 750;
}
);
note = f;
unicode = 0066;
},
{
glyphname = g;
lastChange = "2021-04-15 12:05:58 +0000";
layers = (
{
layerId = "D08966C8-96EF-481A-BF9E-1465DF9248E1";
paths = (
{
closed = 1;
nodes = (
"922 898 OFFCURVE",
"910 1000 OFFCURVE",
"772 1000 CURVE SMOOTH",
"642 1000 OFFCURVE",
"618 912 OFFCURVE",
"618 832 CURVE",
"591 920 OFFCURVE",
"524 1000 OFFCURVE",
"402 1000 CURVE SMOOTH",
"329 1000 OFFCURVE",
"252 978 OFFCURVE",
"193 922 CURVE SMOOTH",
"133 866 OFFCURVE",
"92 778 OFFCURVE",
"92 646 CURVE SMOOTH",
"92 356 LINE SMOOTH",
"92 221 OFFCURVE",
"133 133 OFFCURVE",
"193 78 CURVE SMOOTH",
"252 22 OFFCURVE",
"329 0 OFFCURVE",
"402 0 CURVE SMOOTH",
"524 0 OFFCURVE",
"591 78 OFFCURVE",
"618 168 CURVE",
"618 -56 LINE SMOOTH",
"618 -115 OFFCURVE",
"600 -202 OFFCURVE",
"510 -202 CURVE SMOOTH",
"455 -202 OFFCURVE",
"425 -192 OFFCURVE",
"414 -164 CURVE SMOOTH",
"387 -93 OFFCURVE",
"367 -74 OFFCURVE",
"250 -74 CURVE SMOOTH",
"144 -74 OFFCURVE",
"110 -114 OFFCURVE",
"110 -162 CURVE",
"117 -258 OFFCURVE",
"173 -317 OFFCURVE",
"251 -353 CURVE SMOOTH",
"329 -389 OFFCURVE",
"427 -400 OFFCURVE",
"522 -400 CURVE SMOOTH",
"547 -400 OFFCURVE",
"600 -399 OFFCURVE",
"660 -384 CURVE SMOOTH",
"689 -376 OFFCURVE",
"720 -364 OFFCURVE",
"751 -349 CURVE SMOOTH",
"813 -318 OFFCURVE",
"865 -265 OFFCURVE",
"898 -182 CURVE SMOOTH",
"914 -141 OFFCURVE",
"922 -90 OFFCURVE",
"922 -30 CURVE SMOOTH",
"922 774 LINE SMOOTH"
);
},
{
closed = 1;
nodes = (
"402 698 OFFCURVE",
"410 766 OFFCURVE",
"490 766 CURVE SMOOTH",
"542 766 OFFCURVE",
"573 743 OFFCURVE",
"592 695 CURVE SMOOTH",
"611 646 OFFCURVE",
"617 571 OFFCURVE",
"618 470 CURVE SMOOTH",
"618 375 OFFCURVE",
"589 234 OFFCURVE",
"490 234 CURVE SMOOTH",
"410 234 OFFCURVE",
"402 302 OFFCURVE",
"402 378 CURVE SMOOTH",
"402 620 LINE SMOOTH"
);
}
);
width = 1042;
}
);
note = g;
unicode = 0067;
},
{
glyphname = h;
lastChange = "2021-04-15 12:05:58 +0000";
layers = (
{
layerId = "D08966C8-96EF-481A-BF9E-1465DF9248E1";
paths = (
{
closed = 1;
nodes = (
"956 775 OFFCURVE",
"916 865 OFFCURVE",
"858 921 CURVE SMOOTH",
"800 977 OFFCURVE",
"721 1000 OFFCURVE",
"648 1000 CURVE SMOOTH",
"528 1000 OFFCURVE",
"457 919 OFFCURVE",
"430 832 CURVE",
"430 1174 LINE SMOOTH",
"430 1297 OFFCURVE",
"409 1400 OFFCURVE",
"274 1400 CURVE SMOOTH",
"142 1400 OFFCURVE",
"122 1297 OFFCURVE",
"122 1174 CURVE SMOOTH",
"122 226 LINE SMOOTH",
"122 103 OFFCURVE",
"142 0 OFFCURVE",
"274 0 CURVE SMOOTH",
"409 0 OFFCURVE",
"430 103 OFFCURVE",
"430 226 CURVE SMOOTH",
"430 416 LINE SMOOTH",
"430 513 OFFCURVE",
"436 601 OFFCURVE",
"456 663 CURVE SMOOTH",
"475 725 OFFCURVE",
"507 762 OFFCURVE",
"560 762 CURVE SMOOTH",
"640 762 OFFCURVE",
"648 695 OFFCURVE",
"648 620 CURVE SMOOTH",
"648 226 LINE SMOOTH",
"648 104 OFFCURVE",
"672 0 OFFCURVE",
"804 0 CURVE SMOOTH",
"936 0 OFFCURVE",
"956 103 OFFCURVE",
"956 226 CURVE SMOOTH",
"956 642 LINE SMOOTH"
);
}
);
width = 1042;
}
);
note = h;
unicode = 0068;
},
{
glyphname = i;
lastChange = "2021-04-15 12:05:58 +0000";
layers = (
{
layerId = "D08966C8-96EF-481A-BF9E-1465DF9248E1";
paths = (
{
closed = 1;
nodes = (
"460 1355 OFFCURVE",
"411 1400 OFFCURVE",
"308 1400 CURVE SMOOTH",
"212 1400 OFFCURVE",
"156 1355 OFFCURVE",
"156 1248 CURVE SMOOTH",
"156 1145 OFFCURVE",
"212 1096 OFFCURVE",
"308 1096 CURVE SMOOTH",
"404 1096 OFFCURVE",
"460 1145 OFFCURVE",
"460 1248 CURVE SMOOTH"
);
},
{
closed = 1;
nodes = (
"154 101 OFFCURVE",
"175 0 OFFCURVE",
"306 0 CURVE SMOOTH",
"437 0 OFFCURVE",
"458 101 OFFCURVE",
"458 224 CURVE SMOOTH",
"458 776 LINE SMOOTH",
"458 896 OFFCURVE",
"437 1000 OFFCURVE",
"306 1000 CURVE SMOOTH",
"175 1000 OFFCURVE",
"154 896 OFFCURVE",
"154 776 CURVE SMOOTH",
"154 224 LINE SMOOTH"
);
}
);
width = 626;
}
);
note = i;
unicode = 0069;
},
{
glyphname = j;
lastChange = "2021-04-15 12:05:58 +0000";
layers = (
{
layerId = "D08966C8-96EF-481A-BF9E-1465DF9248E1";
paths = (
{
closed = 1;
nodes = (
"480 1354 OFFCURVE",
"433 1402 OFFCURVE",
"330 1402 CURVE SMOOTH",
"234 1402 OFFCURVE",
"176 1354 OFFCURVE",
"176 1250 CURVE SMOOTH",
"176 1150 OFFCURVE",
"234 1100 OFFCURVE",
"330 1100 CURVE SMOOTH",
"425 1100 OFFCURVE",
"480 1150 OFFCURVE",
"480 1250 CURVE SMOOTH"
);
},
{
closed = 1;
nodes = (
"176 -52 OFFCURVE",
"173 -120 OFFCURVE",
"92 -120 CURVE SMOOTH",
"-6 -120 OFFCURVE",
"-44 -149 OFFCURVE",
"-44 -246 CURVE SMOOTH",
"-44 -353 OFFCURVE",
"59 -400 OFFCURVE",
"176 -400 CURVE SMOOTH",
"320 -400 OFFCURVE",
"396 -354 OFFCURVE",
"436 -278 CURVE SMOOTH",
"476 -202 OFFCURVE",
"480 -94 OFFCURVE",
"480 30 CURVE SMOOTH",
"480 776 LINE SMOOTH",
"480 901 OFFCURVE",
"459 1000 OFFCURVE",
"330 1000 CURVE SMOOTH",
"197 1000 OFFCURVE",
"176 902 OFFCURVE",
"176 776 CURVE SMOOTH",
"176 30 LINE SMOOTH"
);
}
);
width = 626;
}
);
note = j;
unicode = 006A;
},
{
glyphname = k;
lastChange = "2021-04-15 12:05:58 +0000";
layers = (
{
layerId = "D08966C8-96EF-481A-BF9E-1465DF9248E1";
paths = (
{
closed = 1;
nodes = (
"150 100 OFFCURVE",
"161 0 OFFCURVE",
"292 0 CURVE SMOOTH",
"424 0 OFFCURVE",
"434 99 OFFCURVE",
"434 224 CURVE SMOOTH",
"434 392 LINE",
"490 392 LINE",
"602 154 LINE SMOOTH",
"631 87 OFFCURVE",
"683 -2 OFFCURVE",
"766 -2 CURVE SMOOTH",
"842 -2 OFFCURVE",
"920 47 OFFCURVE",
"920 130 CURVE SMOOTH",
"920 174 OFFCURVE",
"900 224 OFFCURVE",
"876 272 CURVE SMOOTH",
"680 646 LINE",
"860 858 LINE SMOOTH",
"879 881 OFFCURVE",
"888 905 OFFCURVE",
"888 932 CURVE SMOOTH",
"888 1011 OFFCURVE",
"818 1066 OFFCURVE",
"748 1066 CURVE SMOOTH",
"713 1066 OFFCURVE",
"680 1054 OFFCURVE",
"656 1026 CURVE SMOOTH",
"450 784 LINE",
"434 784 LINE",
"434 1178 LINE SMOOTH",
"434 1301 OFFCURVE",
"424 1400 OFFCURVE",
"292 1400 CURVE SMOOTH",
"161 1400 OFFCURVE",
"150 1300 OFFCURVE",
"150 1178 CURVE SMOOTH",
"150 224 LINE SMOOTH"
);
}
);
width = 1014;
}
);
note = k;
unicode = 006B;
},
{
glyphname = l;
lastChange = "2021-04-15 12:05:58 +0000";
layers = (
{
layerId = "D08966C8-96EF-481A-BF9E-1465DF9248E1";
paths = (
{
closed = 1;
nodes = (
"140 101 OFFCURVE",
"161 0 OFFCURVE",
"292 0 CURVE SMOOTH",
"424 0 OFFCURVE",
"444 101 OFFCURVE",
"444 224 CURVE SMOOTH",
"444 1178 LINE SMOOTH",
"444 1300 OFFCURVE",
"424 1400 OFFCURVE",
"292 1400 CURVE SMOOTH",
"161 1400 OFFCURVE",
"140 1299 OFFCURVE",
"140 1178 CURVE SMOOTH",
"140 224 LINE SMOOTH"
);
}
);
width = 586;
}
);
note = l;
unicode = 006C;
},
{
glyphname = m;
lastChange = "2021-04-15 12:05:58 +0000";
layers = (
{
layerId = "D08966C8-96EF-481A-BF9E-1465DF9248E1";
paths = (
{
closed = 1;
nodes = (
"941 0 OFFCURVE",
"962 103 OFFCURVE",
"962 226 CURVE SMOOTH",
"962 502 LINE",
"969 640 OFFCURVE",
"998 766 OFFCURVE",
"1088 766 CURVE SMOOTH",
"1165 766 OFFCURVE",
"1178 699 OFFCURVE",
"1178 622 CURVE SMOOTH",
"1178 226 LINE SMOOTH",
"1178 103 OFFCURVE",
"1199 0 OFFCURVE",
"1332 0 CURVE SMOOTH",
"1462 0 OFFCURVE",
"1486 104 OFFCURVE",
"1486 226 CURVE SMOOTH",
"1486 646 LINE SMOOTH",
"1486 778 OFFCURVE",
"1446 866 OFFCURVE",
"1387 922 CURVE SMOOTH",
"1328 978 OFFCURVE",
"1251 1000 OFFCURVE",
"1178 1000 CURVE SMOOTH",
"1070 1000 OFFCURVE",
"946 955 OFFCURVE",
"906 864 CURVE",
"847 960 OFFCURVE",
"760 1000 OFFCURVE",
"672 1000 CURVE SMOOTH",
"552 1000 OFFCURVE",
"465 918 OFFCURVE",
"438 832 CURVE",
"438 911 OFFCURVE",
"417 1000 OFFCURVE",
"286 1000 CURVE SMOOTH",
"149 1000 OFFCURVE",
"134 899 OFFCURVE",
"134 774 CURVE SMOOTH",
"134 226 LINE SMOOTH",
"134 103 OFFCURVE",
"154 0 OFFCURVE",
"286 0 CURVE SMOOTH",
"418 0 OFFCURVE",
"438 103 OFFCURVE",
"438 226 CURVE SMOOTH",
"438 420 LINE SMOOTH",
"438 517 OFFCURVE",
"444 604 OFFCURVE",
"464 666 CURVE SMOOTH",
"483 728 OFFCURVE",
"515 766 OFFCURVE",
"568 766 CURVE SMOOTH",
"645 766 OFFCURVE",
"656 698 OFFCURVE",
"656 622 CURVE SMOOTH",
"656 226 LINE SMOOTH",
"656 104 OFFCURVE",
"677 0 OFFCURVE",
"808 0 CURVE SMOOTH"
);
}
);
width = 1604;
}
);
note = m;
unicode = 006D;
},
{
glyphname = n;
lastChange = "2021-04-15 12:05:58 +0000";
layers = (
{
layerId = "D08966C8-96EF-481A-BF9E-1465DF9248E1";
paths = (
{
closed = 1;
nodes = (
"966 777 OFFCURVE",
"926 866 OFFCURVE",
"867 922 CURVE SMOOTH",
"808 978 OFFCURVE",
"731 1000 OFFCURVE",
"658 1000 CURVE SMOOTH",
"538 1000 OFFCURVE",
"464 920 OFFCURVE",
"440 832 CURVE",
"440 912 OFFCURVE",
"414 1000 OFFCURVE",
"284 1000 CURVE SMOOTH",
"143 1000 OFFCURVE",
"132 899 OFFCURVE",
"132 774 CURVE SMOOTH",
"132 228 LINE SMOOTH",
"132 104 OFFCURVE",
"153 0 OFFCURVE",
"284 0 CURVE SMOOTH",
"416 0 OFFCURVE",
"440 105 OFFCURVE",
"440 228 CURVE SMOOTH",
"440 418 LINE SMOOTH",
"440 515 OFFCURVE",
"445 602 OFFCURVE",
"465 665 CURVE SMOOTH",
"484 728 OFFCURVE",
"515 766 OFFCURVE",
"570 766 CURVE SMOOTH",
"648 766 OFFCURVE",
"658 698 OFFCURVE",
"658 618 CURVE SMOOTH",
"658 228 LINE SMOOTH",
"658 104 OFFCURVE",
"679 0 OFFCURVE",
"810 0 CURVE SMOOTH",
"942 0 OFFCURVE",
"966 105 OFFCURVE",
"966 228 CURVE SMOOTH",
"966 644 LINE SMOOTH"
);
}
);
width = 1082;
}
);
note = n;
unicode = 006E;
},
{
glyphname = o;
lastChange = "2021-04-15 12:05:58 +0000";
layers = (
{
layerId = "D08966C8-96EF-481A-BF9E-1465DF9248E1";
paths = (
{
closed = 1;
nodes = (
"78 253 OFFCURVE",
"115 170 OFFCURVE",
"168 113 CURVE SMOOTH",
"194 84 OFFCURVE",
"223 62 OFFCURVE",
"256 46 CURVE SMOOTH",
"320 14 OFFCURVE",
"385 -1 OFFCURVE",
"439 -5 CURVE SMOOTH",
"466 -7 OFFCURVE",
"487 -8 OFFCURVE",
"502 -8 CURVE SMOOTH",
"533 -8 OFFCURVE",
"590 -6 OFFCURVE",
"651 10 CURVE SMOOTH",
"681 18 OFFCURVE",
"712 30 OFFCURVE",
"743 46 CURVE SMOOTH",
"805 78 OFFCURVE",
"856 135 OFFCURVE",
"888 220 CURVE SMOOTH",
"904 263 OFFCURVE",
"912 315 OFFCURVE",
"912 376 CURVE SMOOTH",
"912 624 LINE SMOOTH",
"912 747 OFFCURVE",
"877 830 OFFCURVE",
"827 887 CURVE SMOOTH",
"802 916 OFFCURVE",
"774 938 OFFCURVE",
"743 954 CURVE SMOOTH",
"681 986 OFFCURVE",
"618 1001 OFFCURVE",
"565 1005 CURVE SMOOTH",
"538 1007 OFFCURVE",
"517 1008 OFFCURVE",
"502 1008 CURVE SMOOTH",
"471 1008 OFFCURVE",
"414 1006 OFFCURVE",
"351 990 CURVE SMOOTH",
"320 982 OFFCURVE",
"288 970 OFFCURVE",
"256 954 CURVE SMOOTH",
"191 922 OFFCURVE",
"136 865 OFFCURVE",
"103 780 CURVE SMOOTH",
"86 737 OFFCURVE",
"78 685 OFFCURVE",
"78 624 CURVE SMOOTH",
"78 376 LINE SMOOTH"
);
},
{
closed = 1;
nodes = (
"387 688 OFFCURVE",
"391 706 OFFCURVE",
"400 723 CURVE SMOOTH",
"415 750 OFFCURVE",
"443 778 OFFCURVE",
"502 778 CURVE SMOOTH",
"558 778 OFFCURVE",
"585 750 OFFCURVE",
"600 723 CURVE SMOOTH",
"608 706 OFFCURVE",
"613 688 OFFCURVE",
"614 668 CURVE SMOOTH",
"614 306 LINE SMOOTH",
"613 287 OFFCURVE",
"608 270 OFFCURVE",
"600 255 CURVE SMOOTH",
"585 228 OFFCURVE",
"558 204 OFFCURVE",
"502 204 CURVE SMOOTH",
"443 204 OFFCURVE",
"415 228 OFFCURVE",
"400 255 CURVE SMOOTH",
"391 270 OFFCURVE",
"387 287 OFFCURVE",
"386 306 CURVE SMOOTH",
"386 668 LINE SMOOTH"
);
}
);
width = 990;
}
);
note = o;
unicode = 006F;
},
{
glyphname = p;
lastChange = "2021-04-15 12:05:58 +0000";
layers = (
{
layerId = "D08966C8-96EF-481A-BF9E-1465DF9248E1";
paths = (
{
closed = 1;
nodes = (
"132 -297 OFFCURVE",
"152 -400 OFFCURVE",
"282 -400 CURVE SMOOTH",
"416 -400 OFFCURVE",
"436 -298 OFFCURVE",
"436 -172 CURVE SMOOTH",
"436 170 LINE",
"463 80 OFFCURVE",
"530 2 OFFCURVE",
"652 2 CURVE SMOOTH",
"725 2 OFFCURVE",
"802 24 OFFCURVE",
"861 80 CURVE SMOOTH",
"920 135 OFFCURVE",
"960 223 OFFCURVE",
"960 356 CURVE SMOOTH",
"960 646 LINE SMOOTH",
"960 778 OFFCURVE",
"920 866 OFFCURVE",
"861 922 CURVE SMOOTH",
"802 978 OFFCURVE",
"725 1000 OFFCURVE",
"652 1000 CURVE SMOOTH",
"530 1000 OFFCURVE",
"463 920 OFFCURVE",
"436 832 CURVE",
"436 912 OFFCURVE",
"412 1000 OFFCURVE",
"282 1000 CURVE SMOOTH",
"144 1000 OFFCURVE",
"132 898 OFFCURVE",
"132 774 CURVE SMOOTH",
"132 -172 LINE SMOOTH"
);
},
{
closed = 1;
nodes = (
"652 303 OFFCURVE",
"644 236 OFFCURVE",
"564 236 CURVE SMOOTH",
"464 236 OFFCURVE",
"436 374 OFFCURVE",
"436 470 CURVE SMOOTH",
"437 571 OFFCURVE",
"443 646 OFFCURVE",
"462 695 CURVE SMOOTH",
"481 743 OFFCURVE",
"512 766 OFFCURVE",
"564 766 CURVE SMOOTH",
"644 766 OFFCURVE",
"652 698 OFFCURVE",
"652 620 CURVE SMOOTH",
"652 378 LINE SMOOTH"
);
}
);
width = 1062;
}
);
note = p;
unicode = 0070;
},
{
glyphname = q;
lastChange = "2021-04-15 12:05:58 +0000";
layers = (
{
layerId = "D08966C8-96EF-481A-BF9E-1465DF9248E1";
paths = (
{
closed = 1;
nodes = (
"932 898 OFFCURVE",
"920 1000 OFFCURVE",
"782 1000 CURVE SMOOTH",
"652 1000 OFFCURVE",
"628 912 OFFCURVE",
"628 832 CURVE",
"601 920 OFFCURVE",
"534 1000 OFFCURVE",
"412 1000 CURVE SMOOTH",
"339 1000 OFFCURVE",
"262 978 OFFCURVE",
"203 922 CURVE SMOOTH",
"144 866 OFFCURVE",
"104 778 OFFCURVE",
"104 646 CURVE SMOOTH",
"104 356 LINE SMOOTH",
"104 223 OFFCURVE",
"144 135 OFFCURVE",
"203 80 CURVE SMOOTH",
"262 24 OFFCURVE",
"339 2 OFFCURVE",
"412 2 CURVE SMOOTH",
"534 2 OFFCURVE",
"601 80 OFFCURVE",
"628 170 CURVE",
"628 -172 LINE SMOOTH",
"628 -298 OFFCURVE",
"647 -400 OFFCURVE",
"782 -400 CURVE SMOOTH",
"912 -400 OFFCURVE",
"932 -297 OFFCURVE",
"932 -172 CURVE SMOOTH",
"932 774 LINE SMOOTH"
);
},
{
closed = 1;
nodes = (
"412 698 OFFCURVE",
"420 766 OFFCURVE",
"500 766 CURVE SMOOTH",
"552 766 OFFCURVE",
"583 743 OFFCURVE",
"602 695 CURVE SMOOTH",
"621 646 OFFCURVE",
"627 571 OFFCURVE",
"628 470 CURVE SMOOTH",
"628 374 OFFCURVE",
"600 236 OFFCURVE",
"500 236 CURVE SMOOTH",
"420 236 OFFCURVE",
"412 303 OFFCURVE",
"412 378 CURVE SMOOTH",
"412 620 LINE SMOOTH"
);
}
);
width = 1062;
}
);
note = q;
unicode = 0071;
},
{
glyphname = r;
lastChange = "2021-04-15 12:05:58 +0000";
layers = (
{
layerId = "D08966C8-96EF-481A-BF9E-1465DF9248E1";
paths = (
{
closed = 1;
nodes = (
"770 954 OFFCURVE",
"747 998 OFFCURVE",
"644 998 CURVE SMOOTH",
"550 998 OFFCURVE",
"466 890 OFFCURVE",
"432 754 CURVE",
"416 754 LINE",
"416 877 OFFCURVE",
"411 998 OFFCURVE",
"280 998 CURVE SMOOTH",
"153 998 OFFCURVE",
"132 899 OFFCURVE",
"132 778 CURVE SMOOTH",
"132 218 LINE SMOOTH",
"132 101 OFFCURVE",
"153 0 OFFCURVE",
"280 0 CURVE SMOOTH",
"410 0 OFFCURVE",
"432 100 OFFCURVE",
"432 218 CURVE SMOOTH",
"432 504 LINE SMOOTH",
"432 565 OFFCURVE",
"448 609 OFFCURVE",
"472 638 CURVE SMOOTH",
"484 652 OFFCURVE",
"497 663 OFFCURVE",
"512 672 CURVE SMOOTH",
"551 695 OFFCURVE",
"592 700 OFFCURVE",
"622 700 CURVE SMOOTH",
"717 700 OFFCURVE",
"770 746 OFFCURVE",
"770 850 CURVE SMOOTH"
);
}
);
width = 792;
}
);
note = r;
unicode = 0072;
},
{
glyphname = s;
lastChange = "2021-04-15 12:05:58 +0000";
layers = (
{
layerId = "D08966C8-96EF-481A-BF9E-1465DF9248E1";
paths = (
{
closed = 1;
nodes = (
"386 793 OFFCURVE",
"426 812 OFFCURVE",
"474 812 CURVE SMOOTH",
"529 812 OFFCURVE",
"571 785 OFFCURVE",
"574 734 CURVE SMOOTH",
"574 693 OFFCURVE",
"621 650 OFFCURVE",
"680 650 CURVE SMOOTH",
"758 653 OFFCURVE",
"826 673 OFFCURVE",
"826 752 CURVE SMOOTH",
"826 798 OFFCURVE",
"819 855 OFFCURVE",
"779 907 CURVE SMOOTH",
"750 944 OFFCURVE",
"701 975 OFFCURVE",
"626 994 CURVE SMOOTH",
"588 1003 OFFCURVE",
"542 1008 OFFCURVE",
"488 1008 CURVE SMOOTH",
"472 1008 LINE SMOOTH",
"352 1005 OFFCURVE",
"257 989 OFFCURVE",
"192 946 CURVE SMOOTH",
"127 902 OFFCURVE",
"92 834 OFFCURVE",
"92 730 CURVE SMOOTH",
"92 591 OFFCURVE",
"224 516 OFFCURVE",
"348 450 CURVE SMOOTH",
"438 400 OFFCURVE",
"540 350 OFFCURVE",
"540 272 CURVE SMOOTH",
"540 228 OFFCURVE",
"504 198 OFFCURVE",
"452 198 CURVE SMOOTH",
"399 198 OFFCURVE",
"341 211 OFFCURVE",
"338 262 CURVE SMOOTH",
"335 342 OFFCURVE",
"289 376 OFFCURVE",
"222 376 CURVE SMOOTH",
"130 376 OFFCURVE",
"86 340 OFFCURVE",
"86 260 CURVE SMOOTH",
"86 205 OFFCURVE",
"105 140 OFFCURVE",
"155 89 CURVE SMOOTH",
"190 52 OFFCURVE",
"244 22 OFFCURVE",
"320 5 CURVE SMOOTH",
"358 -4 OFFCURVE",
"403 -8 OFFCURVE",
"454 -8 CURVE SMOOTH",
"506 -8 OFFCURVE",
"567 -1 OFFCURVE",
"624 16 CURVE SMOOTH",
"652 25 OFFCURVE",
"679 36 OFFCURVE",
"705 51 CURVE SMOOTH",
"756 80 OFFCURVE",
"795 125 OFFCURVE",
"819 186 CURVE SMOOTH",
"830 217 OFFCURVE",
"836 252 OFFCURVE",
"836 292 CURVE SMOOTH",
"836 463 OFFCURVE",
"690 539 OFFCURVE",
"548 608 CURVE SMOOTH",
"470 645 OFFCURVE",
"386 683 OFFCURVE",
"386 738 CURVE SMOOTH"
);
}
);
width = 910;
}
);
note = s;
unicode = 0073;
},
{
glyphname = t;
lastChange = "2021-04-15 12:05:58 +0000";
layers = (
{
layerId = "D08966C8-96EF-481A-BF9E-1465DF9248E1";
paths = (
{
closed = 1;
nodes = (
"121 1000 OFFCURVE",
"60 987 OFFCURVE",
"60 880 CURVE SMOOTH",
"60 778 OFFCURVE",
"121 760 OFFCURVE",
"202 760 CURVE SMOOTH",
"258 760 LINE",
"258 430 LINE SMOOTH",
"258 349 OFFCURVE",
"260 274 OFFCURVE",
"273 210 CURVE SMOOTH",
"279 178 OFFCURVE",
"289 149 OFFCURVE",
"302 124 CURVE SMOOTH",
"328 72 OFFCURVE",
"371 35 OFFCURVE",
"439 15 CURVE SMOOTH",
"472 5 OFFCURVE",
"513 0 OFFCURVE",
"560 0 CURVE SMOOTH",
"679 0 OFFCURVE",
"786 47 OFFCURVE",
"786 154 CURVE SMOOTH",
"786 255 OFFCURVE",
"747 282 OFFCURVE",
"650 282 CURVE SMOOTH",
"568 282 OFFCURVE",
"560 346 OFFCURVE",
"560 410 CURVE SMOOTH",
"560 760 LINE",
"642 760 LINE SMOOTH",
"724 760 OFFCURVE",
"786 778 OFFCURVE",
"786 880 CURVE SMOOTH",
"786 987 OFFCURVE",
"725 1000 OFFCURVE",
"642 1000 CURVE SMOOTH",
"560 1000 LINE",
"560 1176 LINE SMOOTH",
"560 1297 OFFCURVE",
"539 1400 OFFCURVE",
"410 1400 CURVE SMOOTH",
"279 1400 OFFCURVE",
"258 1296 OFFCURVE",
"258 1176 CURVE SMOOTH",
"258 1000 LINE",
"202 1000 LINE SMOOTH"
);
}
);
width = 870;
}
);
note = t;
unicode = 0074;
},
{
glyphname = u;
lastChange = "2021-04-15 12:05:58 +0000";
layers = (
{
layerId = "D08966C8-96EF-481A-BF9E-1465DF9248E1";
paths = (
{
closed = 1;
nodes = (
"118 223 OFFCURVE",
"158 134 OFFCURVE",
"217 78 CURVE SMOOTH",
"276 22 OFFCURVE",
"353 0 OFFCURVE",
"426 0 CURVE SMOOTH",
"546 0 OFFCURVE",
"620 80 OFFCURVE",
"644 168 CURVE",
"644 88 OFFCURVE",
"670 0 OFFCURVE",
"800 0 CURVE SMOOTH",
"941 0 OFFCURVE",
"952 101 OFFCURVE",
"952 226 CURVE SMOOTH",
"952 772 LINE SMOOTH",
"952 896 OFFCURVE",
"931 1000 OFFCURVE",
"800 1000 CURVE SMOOTH",
"668 1000 OFFCURVE",
"644 895 OFFCURVE",
"644 772 CURVE SMOOTH",
"644 582 LINE SMOOTH",
"644 485 OFFCURVE",
"639 398 OFFCURVE",
"620 335 CURVE SMOOTH",
"600 272 OFFCURVE",
"567 234 OFFCURVE",
"514 234 CURVE SMOOTH",
"436 234 OFFCURVE",
"426 302 OFFCURVE",
"426 382 CURVE SMOOTH",
"426 772 LINE SMOOTH",
"426 896 OFFCURVE",
"405 1000 OFFCURVE",
"274 1000 CURVE SMOOTH",
"142 1000 OFFCURVE",
"118 895 OFFCURVE",
"118 772 CURVE SMOOTH",
"118 356 LINE SMOOTH"
);
}
);
width = 1076;
}
);
note = u;
unicode = 0075;
},
{
glyphname = v;
lastChange = "2021-04-15 12:05:58 +0000";
layers = (
{
layerId = "D08966C8-96EF-481A-BF9E-1465DF9248E1";
paths = (
{
closed = 1;
nodes = (
"835 783 OFFCURVE",
"844 817 OFFCURVE",
"844 852 CURVE SMOOTH",
"844 932 OFFCURVE",
"804 1000 OFFCURVE",
"712 1000 CURVE SMOOTH",
"629 1000 OFFCURVE",
"578 929 OFFCURVE",
"558 856 CURVE SMOOTH",
"454 492 LINE",
"438 492 LINE",
"326 856 LINE SMOOTH",
"305 931 OFFCURVE",
"251 1000 OFFCURVE",
"178 1000 CURVE SMOOTH",
"79 1000 OFFCURVE",
"36 937 OFFCURVE",
"36 854 CURVE SMOOTH",
"36 818 OFFCURVE",
"48 780 OFFCURVE",
"60 748 CURVE SMOOTH",
"286 156 LINE SMOOTH",
"336 22 OFFCURVE",
"372 0 OFFCURVE",
"446 0 CURVE SMOOTH",
"516 0 OFFCURVE",
"548 24 OFFCURVE",
"598 156 CURVE SMOOTH",
"820 748 LINE"
);
}
);
width = 876;
}
);
note = v;
unicode = 0076;
},
{
glyphname = w;
lastChange = "2021-04-15 12:05:58 +0000";
layers = (
{
layerId = "D08966C8-96EF-481A-BF9E-1465DF9248E1";
paths = (
{
closed = 1;
nodes = (
"636 884 OFFCURVE",
"577 849 OFFCURVE",
"544 744 CURVE SMOOTH",
"452 462 LINE",
"436 462 LINE",
"310 854 LINE SMOOTH",
"286 928 OFFCURVE",
"240 1000 OFFCURVE",
"166 1000 CURVE SMOOTH",
"66 1000 OFFCURVE",
"24 937 OFFCURVE",
"24 852 CURVE SMOOTH",
"24 816 OFFCURVE",
"36 778 OFFCURVE",
"48 746 CURVE SMOOTH",
"272 156 LINE SMOOTH",
"322 22 OFFCURVE",
"359 0 OFFCURVE",
"434 0 CURVE SMOOTH",
"505 0 OFFCURVE",
"534 23 OFFCURVE",
"584 156 CURVE",
"692 516 LINE",
"708 516 LINE",
"812 156 LINE",
"862 22 OFFCURVE",
"899 0 OFFCURVE",
"974 0 CURVE SMOOTH",
"1046 0 OFFCURVE",
"1074 23 OFFCURVE",
"1126 156 CURVE SMOOTH",
"1348 746 LINE SMOOTH",
"1360 781 OFFCURVE",
"1372 814 OFFCURVE",
"1372 850 CURVE SMOOTH",
"1372 930 OFFCURVE",
"1332 1000 OFFCURVE",
"1240 1000 CURVE SMOOTH",
"1153 1000 OFFCURVE",
"1108 932 OFFCURVE",
"1086 854 CURVE SMOOTH",
"974 462 LINE",
"958 462 LINE",
"852 744 LINE SMOOTH",
"813 849 OFFCURVE",
"764 884 OFFCURVE",
"700 884 CURVE SMOOTH"
);
}
);
width = 1396;
}
);
note = w;
unicode = 0077;
},
{
glyphname = x;
lastChange = "2021-04-15 12:05:58 +0000";
layers = (
{
layerId = "D08966C8-96EF-481A-BF9E-1465DF9248E1";
paths = (
{
closed = 1;
nodes = (
"670 1000 OFFCURVE",
"630 948 OFFCURVE",
"592 892 CURVE SMOOTH",
"472 724 LINE",
"348 892 LINE",
"312 948 OFFCURVE",
"269 1000 OFFCURVE",
"214 1000 CURVE SMOOTH",
"191 1000 OFFCURVE",
"167 991 OFFCURVE",
"140 974 CURVE SMOOTH",
"100 946 OFFCURVE",
"84 915 OFFCURVE",
"84 880 CURVE SMOOTH",
"84 836 OFFCURVE",
"109 791 OFFCURVE",
"140 744 CURVE SMOOTH",
"308 500 LINE",
"140 258 LINE SMOOTH",
"109 211 OFFCURVE",
"84 164 OFFCURVE",
"84 120 CURVE SMOOTH",
"84 85 OFFCURVE",
"100 54 OFFCURVE",
"140 26 CURVE SMOOTH",
"167 9 OFFCURVE",
"191 0 OFFCURVE",
"214 0 CURVE SMOOTH",
"269 0 OFFCURVE",
"313 52 OFFCURVE",
"348 110 CURVE",
"472 278 LINE",
"592 110 LINE SMOOTH",
"633 54 OFFCURVE",
"672 0 OFFCURVE",
"730 0 CURVE SMOOTH",
"753 0 OFFCURVE",
"777 9 OFFCURVE",
"804 26 CURVE SMOOTH",
"844 53 OFFCURVE",
"860 85 OFFCURVE",
"860 120 CURVE SMOOTH",
"860 164 OFFCURVE",
"835 211 OFFCURVE",
"804 258 CURVE",
"626 500 LINE",
"804 744 LINE SMOOTH",
"836 788 OFFCURVE",
"860 838 OFFCURVE",
"860 882 CURVE SMOOTH",
"860 917 OFFCURVE",
"844 947 OFFCURVE",
"804 974 CURVE SMOOTH",
"776 993 OFFCURVE",
"751 1000 OFFCURVE",
"728 1000 CURVE SMOOTH"
);
}
);
width = 938;
}
);
note = x;
unicode = 0078;
},
{
glyphname = y;
lastChange = "2021-04-15 12:05:58 +0000";
layers = (
{
layerId = "D08966C8-96EF-481A-BF9E-1465DF9248E1";
paths = (
{
closed = 1;
nodes = (
"290 -400 OFFCURVE",
"346 -368 OFFCURVE",
"395 -317 CURVE SMOOTH",
"420 -292 OFFCURVE",
"443 -262 OFFCURVE",
"465 -229 CURVE SMOOTH",
"509 -162 OFFCURVE",
"548 -87 OFFCURVE",
"581 -9 CURVE SMOOTH",
"597 31 OFFCURVE",
"612 68 OFFCURVE",
"626 104 CURVE SMOOTH",
"866 740 LINE SMOOTH",
"881 779 OFFCURVE",
"892 818 OFFCURVE",
"892 858 CURVE SMOOTH",
"892 941 OFFCURVE",
"827 1004 OFFCURVE",
"748 1004 CURVE SMOOTH",
"671 1004 OFFCURVE",
"620 926 OFFCURVE",
"596 850 CURVE SMOOTH",
"468 428 LINE",
"334 850 LINE SMOOTH",
"307 930 OFFCURVE",
"260 1000 OFFCURVE",
"184 1000 CURVE SMOOTH",
"102 1000 OFFCURVE",
"32 941 OFFCURVE",
"32 864 CURVE SMOOTH",
"32 824 OFFCURVE",
"43 783 OFFCURVE",
"58 740 CURVE SMOOTH",
"91 637 OFFCURVE",
"134 527 OFFCURVE",
"176 417 CURVE SMOOTH",
"210 327 OFFCURVE",
"268 181 OFFCURVE",
"300 100 CURVE SMOOTH",
"316 60 LINE",
"273 -23 OFFCURVE",
"228 -164 OFFCURVE",
"178 -164 CURVE SMOOTH",
"172 -164 OFFCURVE",
"165 -164 OFFCURVE",
"156 -163 CURVE SMOOTH",
"147 -162 OFFCURVE",
"138 -162 OFFCURVE",
"128 -162 CURVE SMOOTH",
"64 -162 OFFCURVE",
"20 -194 OFFCURVE",
"20 -272 CURVE SMOOTH",
"20 -356 OFFCURVE",
"78 -400 OFFCURVE",
"230 -400 CURVE SMOOTH"
);
}
);
width = 916;
}
);
note = y;
unicode = 0079;
},
{
glyphname = z;
lastChange = "2021-04-15 12:05:58 +0000";
layers = (
{
layerId = "D08966C8-96EF-481A-BF9E-1465DF9248E1";
paths = (
{
closed = 1;
nodes = (
"158 1000 OFFCURVE",
"72 981 OFFCURVE",
"72 872 CURVE SMOOTH",
"72 764 OFFCURVE",
"157 748 OFFCURVE",
"258 748 CURVE SMOOTH",
"478 748 LINE",
"132 260 LINE SMOOTH",
"104 220 OFFCURVE",
"76 170 OFFCURVE",
"76 122 CURVE SMOOTH",
"76 21 OFFCURVE",
"174 0 OFFCURVE",
"264 0 CURVE SMOOTH",
"658 0 LINE SMOOTH",
"759 0 OFFCURVE",
"844 19 OFFCURVE",
"844 128 CURVE SMOOTH",
"844 238 OFFCURVE",
"760 254 OFFCURVE",
"658 254 CURVE SMOOTH",
"438 254 LINE",
"786 740 LINE",
"809 785 OFFCURVE",
"840 835 OFFCURVE",
"840 876 CURVE SMOOTH",
"840 973 OFFCURVE",
"740 1000 OFFCURVE",
"654 1000 CURVE SMOOTH",
"258 1000 LINE SMOOTH"
);
}
);
width = 916;
}
);
note = z;
unicode = 007A;
},
{
glyphname = uni1780;
lastChange = "2021-04-15 12:05:58 +0000";
layers = (
{
layerId = "D08966C8-96EF-481A-BF9E-1465DF9248E1";
paths = (
{
closed = 1;
nodes = (
"950 1300 LINE SMOOTH",
"1017 1300 OFFCURVE",
"1050 1333 OFFCURVE",
"1050 1400 CURVE SMOOTH",
"1050 1467 OFFCURVE",
"1017 1500 OFFCURVE",
"950 1500 CURVE SMOOTH",
"250 1500 LINE SMOOTH",
"183 1500 OFFCURVE",
"150 1467 OFFCURVE",
"150 1400 CURVE SMOOTH",
"150 1333 OFFCURVE",
"183 1300 OFFCURVE",
"250 1300 CURVE SMOOTH"
);
},
{
closed = 1;
nodes = (
"1008 0 OFFCURVE",
"1050 33 OFFCURVE",
"1050 100 CURVE SMOOTH",
"1050 800 LINE SMOOTH",
"1050 1000 OFFCURVE",
"933 1100 OFFCURVE",
"700 1100 CURVE SMOOTH",
"500 1100 LINE SMOOTH",
"267 1100 OFFCURVE",
"150 1000 OFFCURVE",
"150 800 CURVE SMOOTH",
"150 100 LINE SMOOTH",
"150 33 OFFCURVE",
"192 0 OFFCURVE",
"275 0 CURVE SMOOTH",
"358 0 OFFCURVE",
"400 33 OFFCURVE",
"400 100 CURVE SMOOTH",
"400 800 LINE SMOOTH",
"400 867 OFFCURVE",
"433 900 OFFCURVE",
"500 900 CURVE SMOOTH",
"700 900 LINE SMOOTH",
"767 900 OFFCURVE",
"800 867 OFFCURVE",
"800 800 CURVE SMOOTH",
"800 100 LINE SMOOTH",
"800 33 OFFCURVE",
"842 0 OFFCURVE",
"925 0 CURVE SMOOTH"
);
}
);
width = 1200;
}
);
note = uni1780;
unicode = 1780;
},
{
glyphname = uni1781;
lastChange = "2021-04-15 12:05:58 +0000";
layers = (
{
layerId = "D08966C8-96EF-481A-BF9E-1465DF9248E1";
paths = (
{
closed = 1;
nodes = (
"800 969 OFFCURVE",
"746 909 OFFCURVE",
"638 872 CURVE SMOOTH",
"475 815 LINE SMOOTH",
"258 740 OFFCURVE",
"150 618 OFFCURVE",
"150 450 CURVE SMOOTH",
"150 300 LINE SMOOTH",
"150 100 OFFCURVE",
"267 0 OFFCURVE",
"500 0 CURVE SMOOTH",
"700 0 LINE SMOOTH",
"933 0 OFFCURVE",
"1050 100 OFFCURVE",
"1050 300 CURVE SMOOTH",
"1050 500 LINE SMOOTH",
"1050 567 OFFCURVE",
"1008 600 OFFCURVE",
"925 600 CURVE SMOOTH",
"842 600 OFFCURVE",
"800 567 OFFCURVE",
"800 500 CURVE SMOOTH",
"800 300 LINE SMOOTH",
"800 233 OFFCURVE",
"767 200 OFFCURVE",
"700 200 CURVE SMOOTH",
"500 200 LINE SMOOTH",
"433 200 OFFCURVE",
"400 233 OFFCURVE",
"400 300 CURVE SMOOTH",
"400 450 LINE SMOOTH",
"400 531 OFFCURVE",
"454 591 OFFCURVE",
"563 629 CURVE SMOOTH",
"725 685 LINE SMOOTH",
"942 760 OFFCURVE",
"1050 882 OFFCURVE",
"1050 1050 CURVE SMOOTH",
"1050 1200 LINE SMOOTH",
"1050 1400 OFFCURVE",
"933 1500 OFFCURVE",
"700 1500 CURVE SMOOTH",
"500 1500 LINE SMOOTH",
"267 1500 OFFCURVE",
"150 1400 OFFCURVE",
"150 1200 CURVE SMOOTH",
"150 1000 LINE SMOOTH",
"150 933 OFFCURVE",
"192 900 OFFCURVE",
"275 900 CURVE SMOOTH",
"358 900 OFFCURVE",
"400 933 OFFCURVE",
"400 1000 CURVE SMOOTH",
"400 1200 LINE SMOOTH",
"400 1267 OFFCURVE",
"433 1300 OFFCURVE",
"500 1300 CURVE SMOOTH",
"700 1300 LINE SMOOTH",
"767 1300 OFFCURVE",
"800 1267 OFFCURVE",
"800 1200 CURVE SMOOTH",
"800 1050 LINE SMOOTH"
);
}
);
width = 1200;
}
);
note = uni1781;
unicode = 1781;
},
{
glyphname = uni1782;
lastChange = "2021-04-15 12:05:58 +0000";
layers = (
{
layerId = "D08966C8-96EF-481A-BF9E-1465DF9248E1";
paths = (
{
closed = 1;
nodes = (
"950 1300 LINE SMOOTH",
"1017 1300 OFFCURVE",
"1050 1333 OFFCURVE",
"1050 1400 CURVE SMOOTH",
"1050 1467 OFFCURVE",
"1017 1500 OFFCURVE",
"950 1500 CURVE SMOOTH",
"250 1500 LINE SMOOTH",
"183 1500 OFFCURVE",
"150 1467 OFFCURVE",
"150 1400 CURVE SMOOTH",
"150 1333 OFFCURVE",
"183 1300 OFFCURVE",
"250 1300 CURVE SMOOTH"
);
},
{
closed = 1;
nodes = (
"400 867 OFFCURVE",
"433 900 OFFCURVE",
"500 900 CURVE SMOOTH",
"700 900 LINE SMOOTH",
"767 900 OFFCURVE",
"800 867 OFFCURVE",
"800 800 CURVE SMOOTH",
"800 100 LINE SMOOTH",
"800 33 OFFCURVE",
"842 0 OFFCURVE",
"925 0 CURVE SMOOTH",
"1008 0 OFFCURVE",
"1050 33 OFFCURVE",
"1050 100 CURVE SMOOTH",
"1050 800 LINE SMOOTH",
"1050 1000 OFFCURVE",
"933 1100 OFFCURVE",
"700 1100 CURVE SMOOTH",
"500 1100 LINE SMOOTH",
"267 1100 OFFCURVE",
"150 1000 OFFCURVE",
"150 800 CURVE SMOOTH",
"150 100 LINE SMOOTH",
"150 33 OFFCURVE",
"192 0 OFFCURVE",
"275 0 CURVE SMOOTH",
"342 0 OFFCURVE",
"383 22 OFFCURVE",
"396 66 CURVE",
"647 411 LINE SMOOTH",
"653 418 OFFCURVE",
"656 426 OFFCURVE",
"656 435 CURVE SMOOTH",
"656 456 OFFCURVE",
"639 480 OFFCURVE",
"604 508 CURVE SMOOTH",
"576 531 OFFCURVE",
"553 543 OFFCURVE",
"534 543 CURVE SMOOTH",
"521 543 OFFCURVE",
"510 537 OFFCURVE",
"502 526 CURVE SMOOTH",
"400 388 LINE",
"400 800 LINE SMOOTH"
);
}
);
width = 1200;
}
);
note = uni1782;
unicode = 1782;
},
{
glyphname = uni1783;
lastChange = "2021-04-15 12:05:58 +0000";
layers = (
{
layerId = "D08966C8-96EF-481A-BF9E-1465DF9248E1";
paths = (
{
closed = 1;
nodes = (
"150 100 OFFCURVE",
"267 0 OFFCURVE",
"500 0 CURVE SMOOTH",
"700 0 LINE SMOOTH",
"785 0 OFFCURVE",
"853 15 OFFCURVE",
"905 46 CURVE",
"960 15 OFFCURVE",
"1034 0 OFFCURVE",
"1125 0 CURVE SMOOTH",
"1325 0 LINE SMOOTH",
"1542 0 OFFCURVE",
"1650 100 OFFCURVE",
"1650 300 CURVE SMOOTH",
"1650 1400 LINE SMOOTH",
"1650 1467 OFFCURVE",
"1608 1500 OFFCURVE",
"1525 1500 CURVE SMOOTH",
"1442 1500 OFFCURVE",
"1400 1467 OFFCURVE",
"1400 1400 CURVE SMOOTH",
"1400 300 LINE SMOOTH",
"1400 233 OFFCURVE",
"1375 200 OFFCURVE",
"1325 200 CURVE SMOOTH",
"1125 200 LINE SMOOTH",
"1058 200 OFFCURVE",
"1025 233 OFFCURVE",
"1025 300 CURVE SMOOTH",
"1025 1400 LINE SMOOTH",
"1025 1467 OFFCURVE",
"983 1500 OFFCURVE",
"900 1500 CURVE SMOOTH",
"817 1500 OFFCURVE",
"775 1467 OFFCURVE",
"775 1400 CURVE SMOOTH",
"775 300 LINE SMOOTH",
"775 233 OFFCURVE",
"750 200 OFFCURVE",
"700 200 CURVE SMOOTH",
"500 200 LINE SMOOTH",
"433 200 OFFCURVE",
"400 233 OFFCURVE",
"400 300 CURVE SMOOTH",
"400 1400 LINE SMOOTH",
"400 1467 OFFCURVE",
"350 1500 OFFCURVE",
"250 1500 CURVE SMOOTH",
"100 1500 LINE SMOOTH",
"33 1500 OFFCURVE",
"0 1467 OFFCURVE",
"0 1400 CURVE SMOOTH",
"0 1333 OFFCURVE",
"33 1300 OFFCURVE",
"100 1300 CURVE SMOOTH",
"133 1300 OFFCURVE",
"150 1283 OFFCURVE",
"150 1250 CURVE SMOOTH",
"150 300 LINE SMOOTH"
);
}
);
width = 1800;
}
);
note = uni1783;
unicode = 1783;
},
{
glyphname = uni1784;
lastChange = "2021-04-15 12:05:58 +0000";
layers = (
{
layerId = "D08966C8-96EF-481A-BF9E-1465DF9248E1";
paths = (
{
closed = 1;
nodes = (
"600 439 LINE",
"400 263 LINE",
"400 900 LINE SMOOTH",
"400 967 OFFCURVE",
"358 1000 OFFCURVE",
"275 1000 CURVE SMOOTH",
"192 1000 OFFCURVE",
"150 967 OFFCURVE",
"150 900 CURVE SMOOTH",
"150 100 LINE SMOOTH",
"150 33 OFFCURVE",
"208 0 OFFCURVE",
"325 0 CURVE SMOOTH",
"375 0 OFFCURVE",
"433 33 OFFCURVE",
"500 98 CURVE SMOOTH",
"600 196 LINE",
"700 98 LINE SMOOTH",
"767 33 OFFCURVE",
"825 0 OFFCURVE",
"875 0 CURVE SMOOTH",
"992 0 OFFCURVE",
"1050 33 OFFCURVE",
"1050 100 CURVE SMOOTH",
"1050 1000 LINE",
"881 1106 LINE",
"900 1111 OFFCURVE",
"918 1118 OFFCURVE",
"937 1127 CURVE SMOOTH",
"1009 1162 OFFCURVE",
"1050 1231 OFFCURVE",
"1050 1300 CURVE SMOOTH",
"1050 1433 OFFCURVE",
"1000 1500 OFFCURVE",
"900 1500 CURVE SMOOTH",
"800 1500 OFFCURVE",
"750 1433 OFFCURVE",
"750 1300 CURVE",
"550 1300 LINE SMOOTH",
"450 1300 OFFCURVE",
"400 1333 OFFCURVE",
"400 1400 CURVE SMOOTH",
"400 1500 LINE SMOOTH",
"400 1567 OFFCURVE",
"358 1600 OFFCURVE",
"275 1600 CURVE SMOOTH",
"192 1600 OFFCURVE",
"150 1567 OFFCURVE",
"150 1500 CURVE SMOOTH",
"150 1400 LINE SMOOTH",
"150 1200 OFFCURVE",
"243 1100 OFFCURVE",
"430 1100 CURVE SMOOTH",
"800 1100 LINE",
"800 263 LINE"
);
}
);
width = 1200;
}
);
note = uni1784;
unicode = 1784;
},
{
glyphname = uni1785;
lastChange = "2021-04-15 12:05:58 +0000";
layers = (
{
layerId = "D08966C8-96EF-481A-BF9E-1465DF9248E1";
paths = (
{
closed = 1;
nodes = (
"150 1333 OFFCURVE",
"183 1300 OFFCURVE",
"250 1300 CURVE SMOOTH",
"950 1300 LINE SMOOTH",
"1017 1300 OFFCURVE",
"1050 1333 OFFCURVE",
"1050 1400 CURVE SMOOTH",
"1050 1467 OFFCURVE",
"1017 1500 OFFCURVE",
"950 1500 CURVE SMOOTH",
"250 1500 LINE SMOOTH",
"183 1500 OFFCURVE",
"150 1467 OFFCURVE",
"150 1400 CURVE SMOOTH"
);
},
{
closed = 1;
nodes = (
"1050 1067 OFFCURVE",
"1000 1100 OFFCURVE",
"900 1100 CURVE SMOOTH",
"750 1100 LINE SMOOTH",
"683 1100 OFFCURVE",
"650 1067 OFFCURVE",
"650 1000 CURVE SMOOTH",
"650 933 OFFCURVE",
"683 900 OFFCURVE",
"750 900 CURVE SMOOTH",
"800 900 LINE",
"800 300 LINE SMOOTH",
"800 233 OFFCURVE",
"767 200 OFFCURVE",
"700 200 CURVE SMOOTH",
"500 200 LINE SMOOTH",
"433 200 OFFCURVE",
"400 233 OFFCURVE",
"400 300 CURVE SMOOTH",
"400 1000 LINE SMOOTH",
"400 1067 OFFCURVE",
"358 1100 OFFCURVE",
"275 1100 CURVE SMOOTH",
"192 1100 OFFCURVE",
"150 1067 OFFCURVE",
"150 1000 CURVE SMOOTH",
"150 300 LINE SMOOTH",
"150 100 OFFCURVE",
"267 0 OFFCURVE",
"500 0 CURVE SMOOTH",
"700 0 LINE SMOOTH",
"933 0 OFFCURVE",
"1050 100 OFFCURVE",
"1050 300 CURVE SMOOTH",
"1050 1000 LINE SMOOTH"
);
}
);
width = 1200;
}
);
note = uni1785;
unicode = 1785;
},
{
glyphname = uni1786;
lastChange = "2021-04-15 12:05:58 +0000";
layers = (
{
layerId = "D08966C8-96EF-481A-BF9E-1465DF9248E1";
paths = (
{
closed = 1;
nodes = (
"150 1333 OFFCURVE",
"183 1300 OFFCURVE",
"250 1300 CURVE SMOOTH",
"950 1300 LINE SMOOTH",
"1017 1300 OFFCURVE",
"1050 1333 OFFCURVE",
"1050 1400 CURVE SMOOTH",
"1050 1467 OFFCURVE",
"1017 1500 OFFCURVE",
"950 1500 CURVE SMOOTH",
"250 1500 LINE SMOOTH",
"183 1500 OFFCURVE",
"150 1467 OFFCURVE",
"150 1400 CURVE SMOOTH"
);
},
{
closed = 1;
nodes = (
"698 364 OFFCURVE",
"585 400 OFFCURVE",
"460 400 CURVE SMOOTH",
"400 400 LINE",
"400 1000 LINE SMOOTH",
"400 1067 OFFCURVE",
"358 1100 OFFCURVE",
"275 1100 CURVE SMOOTH",
"192 1100 OFFCURVE",
"150 1067 OFFCURVE",
"150 1000 CURVE SMOOTH",
"150 450 LINE",
"283 399 LINE",
"255 397 OFFCURVE",
"228 389 OFFCURVE",
"202 374 CURVE SMOOTH",
"138 339 OFFCURVE",
"100 269 OFFCURVE",
"100 200 CURVE SMOOTH",
"100 67 OFFCURVE",
"150 0 OFFCURVE",
"250 0 CURVE SMOOTH",
"350 0 OFFCURVE",
"400 67 OFFCURVE",
"400 200 CURVE",
"460 200 LINE SMOOTH",
"551 200 OFFCURVE",
"630 167 OFFCURVE",
"698 100 CURVE SMOOTH",
"766 33 OFFCURVE",
"833 0 OFFCURVE",
"900 0 CURVE SMOOTH",
"1000 0 OFFCURVE",
"1050 67 OFFCURVE",
"1050 200 CURVE SMOOTH",
"1050 1000 LINE SMOOTH",
"1050 1067 OFFCURVE",
"1000 1100 OFFCURVE",
"900 1100 CURVE SMOOTH",
"750 1100 LINE SMOOTH",
"683 1100 OFFCURVE",
"650 1067 OFFCURVE",
"650 1000 CURVE SMOOTH",
"650 933 OFFCURVE",
"683 900 OFFCURVE",
"750 900 CURVE SMOOTH",
"800 900 LINE",
"800 291 LINE"
);
}
);
width = 1200;
}
);
note = uni1786;
unicode = 1786;
},
{
glyphname = uni1787;
lastChange = "2021-04-15 12:05:58 +0000";
layers = (
{
layerId = "D08966C8-96EF-481A-BF9E-1465DF9248E1";
paths = (
{
closed = 1;
nodes = (
"1017 1300 OFFCURVE",
"1050 1333 OFFCURVE",
"1050 1400 CURVE SMOOTH",
"1050 1525 LINE SMOOTH",
"1050 1592 OFFCURVE",
"1008 1625 OFFCURVE",
"925 1625 CURVE SMOOTH",
"842 1625 OFFCURVE",
"800 1592 OFFCURVE",
"800 1525 CURVE SMOOTH",
"800 1500 LINE",
"250 1500 LINE SMOOTH",
"183 1500 OFFCURVE",
"150 1467 OFFCURVE",
"150 1400 CURVE SMOOTH",
"150 1333 OFFCURVE",
"183 1300 OFFCURVE",
"250 1300 CURVE SMOOTH",
"950 1300 LINE SMOOTH"
);
},
{
closed = 1;
nodes = (
"150 33 OFFCURVE",
"208 0 OFFCURVE",
"325 0 CURVE SMOOTH",
"375 0 OFFCURVE",
"433 33 OFFCURVE",
"500 98 CURVE SMOOTH",
"600 196 LINE",
"700 98 LINE SMOOTH",
"767 33 OFFCURVE",
"825 0 OFFCURVE",
"875 0 CURVE SMOOTH",
"992 0 OFFCURVE",
"1050 33 OFFCURVE",
"1050 100 CURVE SMOOTH",
"1050 1000 LINE SMOOTH",
"1050 1067 OFFCURVE",
"1008 1100 OFFCURVE",
"925 1100 CURVE SMOOTH",
"842 1100 OFFCURVE",
"800 1067 OFFCURVE",
"800 1000 CURVE SMOOTH",
"800 263 LINE",
"600 439 LINE",
"400 263 LINE",
"400 1000 LINE SMOOTH",
"400 1067 OFFCURVE",
"358 1100 OFFCURVE",
"275 1100 CURVE SMOOTH",
"192 1100 OFFCURVE",
"150 1067 OFFCURVE",
"150 1000 CURVE SMOOTH",
"150 100 LINE SMOOTH"
);
}
);
width = 1200;
}
);
note = uni1787;
unicode = 1787;
},
{
glyphname = uni1788;
lastChange = "2021-04-15 12:05:58 +0000";
layers = (
{
layerId = "D08966C8-96EF-481A-BF9E-1465DF9248E1";
paths = (
{
closed = 1;
nodes = (
"775 100 OFFCURVE",
"892 0 OFFCURVE",
"1125 0 CURVE SMOOTH",
"1325 0 LINE SMOOTH",
"1410 0 OFFCURVE",
"1478 15 OFFCURVE",
"1530 46 CURVE",
"1585 15 OFFCURVE",
"1659 0 OFFCURVE",
"1750 0 CURVE SMOOTH",
"1950 0 LINE SMOOTH",
"2167 0 OFFCURVE",
"2275 100 OFFCURVE",
"2275 300 CURVE SMOOTH",
"2275 1400 LINE SMOOTH",
"2275 1467 OFFCURVE",
"2233 1500 OFFCURVE",
"2150 1500 CURVE SMOOTH",
"2067 1500 OFFCURVE",
"2025 1467 OFFCURVE",
"2025 1400 CURVE SMOOTH",
"2025 300 LINE SMOOTH",
"2025 233 OFFCURVE",
"2000 200 OFFCURVE",
"1950 200 CURVE SMOOTH",
"1750 200 LINE SMOOTH",
"1683 200 OFFCURVE",
"1650 233 OFFCURVE",
"1650 300 CURVE SMOOTH",
"1650 1400 LINE SMOOTH",
"1650 1467 OFFCURVE",
"1608 1500 OFFCURVE",
"1525 1500 CURVE SMOOTH",
"1442 1500 OFFCURVE",
"1400 1467 OFFCURVE",
"1400 1400 CURVE SMOOTH",
"1400 300 LINE SMOOTH",
"1400 233 OFFCURVE",
"1375 200 OFFCURVE",
"1325 200 CURVE SMOOTH",
"1125 200 LINE SMOOTH",
"1058 200 OFFCURVE",
"1025 233 OFFCURVE",
"1025 300 CURVE SMOOTH",
"1025 1200 LINE SMOOTH",
"1025 1400 OFFCURVE",
"908 1500 OFFCURVE",
"675 1500 CURVE SMOOTH",
"500 1500 LINE SMOOTH",
"267 1500 OFFCURVE",
"150 1400 OFFCURVE",
"150 1200 CURVE SMOOTH",
"150 100 LINE SMOOTH",
"150 33 OFFCURVE",
"200 0 OFFCURVE",
"300 0 CURVE SMOOTH",
"450 0 LINE SMOOTH",
"517 0 OFFCURVE",
"550 33 OFFCURVE",
"550 100 CURVE SMOOTH",
"550 167 OFFCURVE",
"517 200 OFFCURVE",
"450 200 CURVE SMOOTH",
"400 200 LINE",
"400 1200 LINE SMOOTH",
"400 1267 OFFCURVE",
"433 1300 OFFCURVE",
"500 1300 CURVE SMOOTH",
"675 1300 LINE SMOOTH",
"742 1300 OFFCURVE",
"775 1267 OFFCURVE",
"775 1200 CURVE SMOOTH",
"775 300 LINE SMOOTH"
);
}
);
width = 2425;
}
);
note = uni1788;
unicode = 1788;
},
{
glyphname = uni1789;
lastChange = "2021-04-15 12:05:58 +0000";
layers = (
{
layerId = "D08966C8-96EF-481A-BF9E-1465DF9248E1";
paths = (
{
closed = 1;
nodes = (
"1050 1467 OFFCURVE",
"992 1500 OFFCURVE",
"875 1500 CURVE SMOOTH",
"825 1500 OFFCURVE",
"767 1467 OFFCURVE",
"700 1402 CURVE SMOOTH",
"600 1304 LINE",
"500 1402 LINE SMOOTH",
"433 1467 OFFCURVE",
"375 1500 OFFCURVE",
"325 1500 CURVE SMOOTH",
"208 1500 OFFCURVE",
"150 1467 OFFCURVE",
"150 1400 CURVE SMOOTH",
"150 100 LINE SMOOTH",
"150 33 OFFCURVE",
"200 0 OFFCURVE",
"300 0 CURVE SMOOTH",
"450 0 LINE SMOOTH",
"517 0 OFFCURVE",
"550 33 OFFCURVE",
"550 100 CURVE SMOOTH",
"550 167 OFFCURVE",
"517 200 OFFCURVE",
"450 200 CURVE SMOOTH",
"400 200 LINE",
"400 1237 LINE",
"600 1061 LINE",
"800 1237 LINE",
"800 100 LINE SMOOTH",
"800 33 OFFCURVE",
"842 0 OFFCURVE",
"925 0 CURVE SMOOTH",
"1008 0 OFFCURVE",
"1050 33 OFFCURVE",
"1050 100 CURVE SMOOTH",
"1050 1400 LINE SMOOTH"
);
},
{
closed = 1;
nodes = (
"1608 0 OFFCURVE",
"1650 33 OFFCURVE",
"1650 100 CURVE SMOOTH",
"1650 1200 LINE SMOOTH",
"1650 1400 OFFCURVE",
"1530 1500 OFFCURVE",
"1290 1500 CURVE SMOOTH",
"1200 1500 LINE SMOOTH",
"1133 1500 OFFCURVE",
"1100 1467 OFFCURVE",
"1100 1400 CURVE SMOOTH",
"1100 1333 OFFCURVE",
"1133 1300 OFFCURVE",
"1200 1300 CURVE SMOOTH",
"1290 1300 LINE SMOOTH",
"1363 1300 OFFCURVE",
"1400 1267 OFFCURVE",
"1400 1200 CURVE SMOOTH",
"1400 100 LINE SMOOTH",
"1400 33 OFFCURVE",
"1442 0 OFFCURVE",
"1525 0 CURVE SMOOTH"
);
},
{
closed = 1;
nodes = (
"150 -367 OFFCURVE",
"183 -400 OFFCURVE",
"250 -400 CURVE SMOOTH",
"400 -400 LINE SMOOTH",
"565 -400 OFFCURVE",
"700 -450 OFFCURVE",
"805 -550 CURVE SMOOTH",
"910 -650 OFFCURVE",
"1050 -700 OFFCURVE",
"1227 -700 CURVE SMOOTH",
"1509 -700 OFFCURVE",
"1650 -600 OFFCURVE",
"1650 -400 CURVE SMOOTH",
"1650 -200 OFFCURVE",
"1533 -100 OFFCURVE",
"1300 -100 CURVE SMOOTH",
"1233 -100 OFFCURVE",
"1200 -133 OFFCURVE",
"1200 -200 CURVE SMOOTH",
"1200 -267 OFFCURVE",
"1233 -300 OFFCURVE",
"1300 -300 CURVE SMOOTH",
"1367 -300 OFFCURVE",
"1400 -333 OFFCURVE",
"1400 -400 CURVE SMOOTH",
"1400 -467 OFFCURVE",
"1342 -500 OFFCURVE",
"1227 -500 CURVE SMOOTH",
"1112 -500 OFFCURVE",
"1016 -462 OFFCURVE",
"939 -387 CURVE SMOOTH",
"812 -262 OFFCURVE",
"632 -200 OFFCURVE",
"400 -200 CURVE SMOOTH",
"250 -200 LINE SMOOTH",
"183 -200 OFFCURVE",
"150 -233 OFFCURVE",
"150 -300 CURVE SMOOTH"
);
}
);
width = 1800;
}
);
note = uni1789;
unicode = 1789;
},
{
glyphname = uni178A;
lastChange = "2021-04-15 12:05:58 +0000";
layers = (
{
layerId = "D08966C8-96EF-481A-BF9E-1465DF9248E1";
paths = (
{
closed = 1;
nodes = (
"400 1467 OFFCURVE",
"358 1500 OFFCURVE",
"275 1500 CURVE SMOOTH",
"192 1500 OFFCURVE",
"150 1467 OFFCURVE",
"150 1400 CURVE SMOOTH",
"150 1300 LINE SMOOTH",
"150 1233 OFFCURVE",
"183 1200 OFFCURVE",
"250 1200 CURVE SMOOTH",
"950 1200 LINE SMOOTH",
"1017 1200 OFFCURVE",
"1050 1233 OFFCURVE",
"1050 1300 CURVE SMOOTH",
"1050 1525 LINE SMOOTH",
"1050 1592 OFFCURVE",
"1008 1625 OFFCURVE",
"925 1625 CURVE SMOOTH",
"842 1625 OFFCURVE",
"800 1592 OFFCURVE",
"800 1525 CURVE SMOOTH",
"800 1400 LINE",
"400 1400 LINE"
);
},
{
closed = 1;
nodes = (
"150 33 OFFCURVE",
"208 0 OFFCURVE",
"325 0 CURVE SMOOTH",
"375 0 OFFCURVE",
"433 33 OFFCURVE",
"500 98 CURVE SMOOTH",
"600 196 LINE",
"700 98 LINE SMOOTH",
"767 33 OFFCURVE",
"825 0 OFFCURVE",
"875 0 CURVE SMOOTH",
"992 0 OFFCURVE",
"1050 33 OFFCURVE",
"1050 100 CURVE SMOOTH",
"1050 950 LINE SMOOTH",
"1050 1017 OFFCURVE",
"1008 1050 OFFCURVE",
"925 1050 CURVE SMOOTH",
"842 1050 OFFCURVE",
"800 1017 OFFCURVE",
"800 950 CURVE SMOOTH",
"800 263 LINE",
"600 439 LINE",
"400 263 LINE",
"400 950 LINE SMOOTH",
"400 1017 OFFCURVE",
"358 1050 OFFCURVE",
"275 1050 CURVE SMOOTH",
"192 1050 OFFCURVE",
"150 1017 OFFCURVE",
"150 950 CURVE SMOOTH",
"150 100 LINE SMOOTH"
);
}
);
width = 1200;
}
);
note = uni178A;
unicode = 178A;
},
{
glyphname = uni178B;
lastChange = "2021-04-15 12:05:58 +0000";
layers = (
{
layerId = "D08966C8-96EF-481A-BF9E-1465DF9248E1";
paths = (
{
closed = 1;
nodes = (
"650 1349 OFFCURVE",
"675 1303 OFFCURVE",
"725 1262 CURVE SMOOTH",
"775 1221 OFFCURVE",
"800 1167 OFFCURVE",
"800 1100 CURVE SMOOTH",
"800 300 LINE SMOOTH",
"800 233 OFFCURVE",
"767 200 OFFCURVE",
"700 200 CURVE SMOOTH",
"500 200 LINE SMOOTH",
"433 200 OFFCURVE",
"400 233 OFFCURVE",
"400 300 CURVE SMOOTH",
"400 1400 LINE SMOOTH",
"400 1467 OFFCURVE",
"350 1500 OFFCURVE",
"250 1500 CURVE SMOOTH",
"100 1500 LINE SMOOTH",
"33 1500 OFFCURVE",
"0 1467 OFFCURVE",
"0 1400 CURVE SMOOTH",
"0 1333 OFFCURVE",
"33 1300 OFFCURVE",
"100 1300 CURVE SMOOTH",
"133 1300 OFFCURVE",
"150 1283 OFFCURVE",
"150 1250 CURVE SMOOTH",
"150 300 LINE SMOOTH",
"150 100 OFFCURVE",
"267 0 OFFCURVE",
"500 0 CURVE SMOOTH",
"700 0 LINE SMOOTH",
"933 0 OFFCURVE",
"1050 100 OFFCURVE",
"1050 300 CURVE SMOOTH",
"1050 1100 LINE SMOOTH",
"1050 1171 OFFCURVE",
"996 1238 OFFCURVE",
"889 1300 CURVE",
"950 1300 LINE SMOOTH",
"1017 1300 OFFCURVE",
"1050 1333 OFFCURVE",
"1050 1400 CURVE SMOOTH",
"1050 1525 LINE SMOOTH",
"1050 1592 OFFCURVE",
"1008 1625 OFFCURVE",
"925 1625 CURVE SMOOTH",
"842 1625 OFFCURVE",
"800 1592 OFFCURVE",
"800 1525 CURVE SMOOTH",
"800 1500 LINE",
"750 1500 LINE SMOOTH",
"683 1500 OFFCURVE",
"650 1467 OFFCURVE",
"650 1400 CURVE SMOOTH"
);
}
);
width = 1200;
}
);
note = uni178B;
unicode = 178B;
},
{
glyphname = uni178C;
lastChange = "2021-04-15 12:05:58 +0000";
layers = (
{
layerId = "D08966C8-96EF-481A-BF9E-1465DF9248E1";
paths = (
{
closed = 1;
nodes = (
"800 1237 LINE",
"800 1050 LINE SMOOTH",
"800 969 OFFCURVE",
"746 909 OFFCURVE",
"638 872 CURVE SMOOTH",
"475 815 LINE SMOOTH",
"258 740 OFFCURVE",
"150 618 OFFCURVE",
"150 450 CURVE SMOOTH",
"150 300 LINE SMOOTH",
"150 100 OFFCURVE",
"267 0 OFFCURVE",
"500 0 CURVE SMOOTH",
"550 0 OFFCURVE",
"594 8 OFFCURVE",
"631 24 CURVE SMOOTH",
"800 96 LINE",
"800 50 LINE SMOOTH",
"800 -17 OFFCURVE",
"842 -50 OFFCURVE",
"925 -50 CURVE SMOOTH",
"1008 -50 OFFCURVE",
"1050 -17 OFFCURVE",
"1050 50 CURVE SMOOTH",
"1050 500 LINE SMOOTH",
"1050 567 OFFCURVE",
"1008 600 OFFCURVE",
"925 600 CURVE SMOOTH",
"842 600 OFFCURVE",
"800 567 OFFCURVE",
"800 500 CURVE SMOOTH",
"800 380 LINE SMOOTH",
"800 347 OFFCURVE",
"767 313 OFFCURVE",
"700 280 CURVE",
"500 200 LINE",
"433 200 OFFCURVE",
"400 233 OFFCURVE",
"400 300 CURVE SMOOTH",
"400 450 LINE SMOOTH",
"400 531 OFFCURVE",
"454 591 OFFCURVE",
"563 629 CURVE SMOOTH",
"725 685 LINE SMOOTH",
"942 760 OFFCURVE",
"1050 882 OFFCURVE",
"1050 1050 CURVE SMOOTH",
"1050 1400 LINE SMOOTH",
"1050 1467 OFFCURVE",
"992 1500 OFFCURVE",
"875 1500 CURVE SMOOTH",
"825 1500 OFFCURVE",
"767 1467 OFFCURVE",
"700 1402 CURVE SMOOTH",
"600 1304 LINE",
"500 1402 LINE SMOOTH",
"433 1467 OFFCURVE",
"375 1500 OFFCURVE",
"325 1500 CURVE SMOOTH",
"208 1500 OFFCURVE",
"150 1467 OFFCURVE",
"150 1400 CURVE SMOOTH",
"150 1000 LINE SMOOTH",
"150 933 OFFCURVE",
"192 900 OFFCURVE",
"275 900 CURVE SMOOTH",
"358 900 OFFCURVE",
"400 933 OFFCURVE",
"400 1000 CURVE SMOOTH",
"400 1237 LINE",
"600 1061 LINE"
);
}
);
width = 1200;
}
);
note = uni178C;
unicode = 178C;
},
{
glyphname = uni178D;
lastChange = "2021-04-15 12:05:58 +0000";
layers = (
{
layerId = "D08966C8-96EF-481A-BF9E-1465DF9248E1";
paths = (
{
closed = 1;
nodes = (
"1650 1467 OFFCURVE",
"1608 1500 OFFCURVE",
"1525 1500 CURVE SMOOTH",
"1442 1500 OFFCURVE",
"1400 1467 OFFCURVE",
"1400 1400 CURVE SMOOTH",
"1400 291 LINE",
"1298 364 OFFCURVE",
"1201 400 OFFCURVE",
"1110 400 CURVE SMOOTH",
"1050 400 LINE",
"1050 1400 LINE SMOOTH",
"1050 1467 OFFCURVE",
"992 1500 OFFCURVE",
"875 1500 CURVE SMOOTH",
"825 1500 OFFCURVE",
"767 1467 OFFCURVE",
"700 1402 CURVE SMOOTH",
"600 1304 LINE",
"500 1402 LINE SMOOTH",
"433 1467 OFFCURVE",
"375 1500 OFFCURVE",
"325 1500 CURVE SMOOTH",
"208 1500 OFFCURVE",
"150 1467 OFFCURVE",
"150 1400 CURVE SMOOTH",
"150 100 LINE SMOOTH",
"150 33 OFFCURVE",
"200 0 OFFCURVE",
"300 0 CURVE SMOOTH",
"450 0 LINE SMOOTH",
"517 0 OFFCURVE",
"550 33 OFFCURVE",
"550 100 CURVE SMOOTH",
"550 167 OFFCURVE",
"517 200 OFFCURVE",
"450 200 CURVE SMOOTH",
"400 200 LINE",
"400 1237 LINE",
"600 1061 LINE",
"800 1237 LINE",
"800 450 LINE",
"933 399 LINE",
"905 397 OFFCURVE",
"878 389 OFFCURVE",
"852 374 CURVE SMOOTH",
"788 339 OFFCURVE",
"750 269 OFFCURVE",
"750 200 CURVE SMOOTH",
"750 67 OFFCURVE",
"800 0 OFFCURVE",
"900 0 CURVE SMOOTH",
"1000 0 OFFCURVE",
"1050 67 OFFCURVE",
"1050 200 CURVE",
"1110 200 LINE SMOOTH",
"1167 200 OFFCURVE",
"1230 167 OFFCURVE",
"1298 100 CURVE SMOOTH",
"1366 33 OFFCURVE",
"1433 0 OFFCURVE",
"1500 0 CURVE SMOOTH",
"1600 0 OFFCURVE",
"1650 67 OFFCURVE",
"1650 200 CURVE SMOOTH",
"1650 1400 LINE SMOOTH"
);
}
);
width = 1800;
}
);
note = uni178D;
unicode = 178D;
},
{
glyphname = uni178E;
lastChange = "2021-04-15 12:05:58 +0000";
layers = (
{
layerId = "D08966C8-96EF-481A-BF9E-1465DF9248E1";
paths = (
{
closed = 1;
nodes = (
"400 1267 OFFCURVE",
"433 1300 OFFCURVE",
"500 1300 CURVE SMOOTH",
"675 1300 LINE SMOOTH",
"742 1300 OFFCURVE",
"775 1267 OFFCURVE",
"775 1200 CURVE SMOOTH",
"775 100 LINE SMOOTH",
"775 33 OFFCURVE",
"833 0 OFFCURVE",
"950 0 CURVE SMOOTH",
"1000 0 OFFCURVE",
"1058 33 OFFCURVE",
"1125 98 CURVE SMOOTH",
"1213 184 LINE",
"1300 98 LINE SMOOTH",
"1367 33 OFFCURVE",
"1425 0 OFFCURVE",
"1475 0 CURVE SMOOTH",
"1592 0 OFFCURVE",
"1650 33 OFFCURVE",
"1650 100 CURVE SMOOTH",
"1650 1200 LINE SMOOTH",
"1650 1267 OFFCURVE",
"1683 1300 OFFCURVE",
"1750 1300 CURVE SMOOTH",
"1925 1300 LINE SMOOTH",
"1992 1300 OFFCURVE",
"2025 1267 OFFCURVE",
"2025 1200 CURVE SMOOTH",
"2025 100 LINE SMOOTH",
"2025 33 OFFCURVE",
"2067 0 OFFCURVE",
"2150 0 CURVE SMOOTH",
"2233 0 OFFCURVE",
"2275 33 OFFCURVE",
"2275 100 CURVE SMOOTH",
"2275 1200 LINE SMOOTH",
"2275 1400 OFFCURVE",
"2158 1500 OFFCURVE",
"1925 1500 CURVE SMOOTH",
"1750 1500 LINE SMOOTH",
"1517 1500 OFFCURVE",
"1400 1400 OFFCURVE",
"1400 1200 CURVE SMOOTH",
"1400 263 LINE",
"1213 428 LINE",
"1025 263 LINE",
"1025 1200 LINE SMOOTH",
"1025 1400 OFFCURVE",
"908 1500 OFFCURVE",
"675 1500 CURVE SMOOTH",
"500 1500 LINE SMOOTH",
"267 1500 OFFCURVE",
"150 1400 OFFCURVE",
"150 1200 CURVE SMOOTH",
"150 100 LINE SMOOTH",
"150 33 OFFCURVE",
"200 0 OFFCURVE",
"300 0 CURVE SMOOTH",
"450 0 LINE SMOOTH",
"517 0 OFFCURVE",
"550 33 OFFCURVE",
"550 100 CURVE SMOOTH",
"550 167 OFFCURVE",
"517 200 OFFCURVE",
"450 200 CURVE SMOOTH",
"400 200 LINE",
"400 1200 LINE SMOOTH"
);
}
);
width = 2425;
}
);
note = uni178E;
unicode = 178E;
},
{
glyphname = uni178F;
lastChange = "2021-04-15 12:05:58 +0000";
layers = (
{
layerId = "D08966C8-96EF-481A-BF9E-1465DF9248E1";
paths = (
{
closed = 1;
nodes = (
"150 1333 OFFCURVE",
"183 1300 OFFCURVE",
"250 1300 CURVE SMOOTH",
"950 1300 LINE SMOOTH",
"1017 1300 OFFCURVE",
"1050 1333 OFFCURVE",
"1050 1400 CURVE SMOOTH",
"1050 1467 OFFCURVE",
"1017 1500 OFFCURVE",
"950 1500 CURVE SMOOTH",
"250 1500 LINE SMOOTH",
"183 1500 OFFCURVE",
"150 1467 OFFCURVE",
"150 1400 CURVE SMOOTH"
);
},
{
closed = 1;
nodes = (
"400 867 OFFCURVE",
"433 900 OFFCURVE",
"500 900 CURVE SMOOTH",
"700 900 LINE SMOOTH",
"767 900 OFFCURVE",
"800 867 OFFCURVE",
"800 800 CURVE SMOOTH",
"800 100 LINE SMOOTH",
"800 33 OFFCURVE",
"842 0 OFFCURVE",
"925 0 CURVE SMOOTH",
"1008 0 OFFCURVE",
"1050 33 OFFCURVE",
"1050 100 CURVE SMOOTH",
"1050 800 LINE SMOOTH",
"1050 1000 OFFCURVE",
"933 1100 OFFCURVE",
"700 1100 CURVE SMOOTH",
"500 1100 LINE SMOOTH",
"267 1100 OFFCURVE",
"150 1000 OFFCURVE",
"150 800 CURVE SMOOTH",
"150 100 LINE SMOOTH",
"150 33 OFFCURVE",
"200 0 OFFCURVE",
"300 0 CURVE SMOOTH",
"450 0 LINE SMOOTH",
"517 0 OFFCURVE",
"550 33 OFFCURVE",
"550 100 CURVE SMOOTH",
"550 167 OFFCURVE",
"517 200 OFFCURVE",
"450 200 CURVE SMOOTH",
"400 200 LINE",
"400 800 LINE SMOOTH"
);
}
);
width = 1200;
}
);
note = uni178F;
unicode = 178F;
},
{
glyphname = uni1790;
lastChange = "2021-04-15 12:05:58 +0000";
layers = (
{
layerId = "D08966C8-96EF-481A-BF9E-1465DF9248E1";
paths = (
{
closed = 1;
nodes = (
"1017 1300 OFFCURVE",
"1050 1333 OFFCURVE",
"1050 1400 CURVE SMOOTH",
"1050 1525 LINE SMOOTH",
"1050 1592 OFFCURVE",
"1008 1625 OFFCURVE",
"925 1625 CURVE SMOOTH",
"842 1625 OFFCURVE",
"800 1592 OFFCURVE",
"800 1525 CURVE SMOOTH",
"800 1500 LINE",
"250 1500 LINE SMOOTH",
"183 1500 OFFCURVE",
"150 1467 OFFCURVE",
"150 1400 CURVE SMOOTH",
"150 1333 OFFCURVE",
"183 1300 OFFCURVE",
"250 1300 CURVE SMOOTH",
"950 1300 LINE SMOOTH"
);
},
{
closed = 1;
nodes = (
"1050 1067 OFFCURVE",
"1000 1100 OFFCURVE",
"900 1100 CURVE SMOOTH",
"750 1100 LINE SMOOTH",
"683 1100 OFFCURVE",
"650 1067 OFFCURVE",
"650 1000 CURVE SMOOTH",
"650 933 OFFCURVE",
"683 900 OFFCURVE",
"750 900 CURVE SMOOTH",
"800 900 LINE",
"800 300 LINE SMOOTH",
"800 233 OFFCURVE",
"767 200 OFFCURVE",
"700 200 CURVE SMOOTH",
"500 200 LINE SMOOTH",
"433 200 OFFCURVE",
"400 233 OFFCURVE",
"400 300 CURVE SMOOTH",
"400 1000 LINE SMOOTH",
"400 1067 OFFCURVE",
"358 1100 OFFCURVE",
"275 1100 CURVE SMOOTH",
"192 1100 OFFCURVE",
"150 1067 OFFCURVE",
"150 1000 CURVE SMOOTH",
"150 300 LINE SMOOTH",
"150 100 OFFCURVE",
"267 0 OFFCURVE",
"500 0 CURVE SMOOTH",
"700 0 LINE SMOOTH",
"933 0 OFFCURVE",
"1050 100 OFFCURVE",
"1050 300 CURVE SMOOTH",
"1050 1000 LINE SMOOTH"
);
}
);
width = 1200;
}
);
note = uni1790;
unicode = 1790;
},
{
glyphname = uni1791;
lastChange = "2021-04-15 12:05:58 +0000";
layers = (
{
layerId = "D08966C8-96EF-481A-BF9E-1465DF9248E1";
paths = (
{
closed = 1;
nodes = (
"150 825 OFFCURVE",
"313 700 OFFCURVE",
"638 623 CURVE SMOOTH",
"800 585 LINE",
"800 300 LINE SMOOTH",
"800 233 OFFCURVE",
"767 200 OFFCURVE",
"700 200 CURVE SMOOTH",
"500 200 LINE SMOOTH",
"433 200 OFFCURVE",
"400 233 OFFCURVE",
"400 300 CURVE SMOOTH",
"400 450 LINE SMOOTH",
"400 517 OFFCURVE",
"358 550 OFFCURVE",
"275 550 CURVE SMOOTH",
"192 550 OFFCURVE",
"150 517 OFFCURVE",
"150 450 CURVE SMOOTH",
"150 300 LINE SMOOTH",
"150 100 OFFCURVE",
"267 0 OFFCURVE",
"500 0 CURVE SMOOTH",
"700 0 LINE SMOOTH",
"933 0 OFFCURVE",
"1050 100 OFFCURVE",
"1050 300 CURVE SMOOTH",
"1050 490 LINE",
"947 539 LINE",
"1016 561 OFFCURVE",
"1050 596 OFFCURVE",
"1050 644 CURVE SMOOTH",
"1050 766 LINE SMOOTH",
"1050 822 OFFCURVE",
"1017 850 OFFCURVE",
"950 850 CURVE SMOOTH",
"910 850 LINE SMOOTH",
"869 850 OFFCURVE",
"830 821 OFFCURVE",
"803 790 CURVE",
"702 811 LINE SMOOTH",
"501 852 OFFCURVE",
"400 915 OFFCURVE",
"400 1000 CURVE SMOOTH",
"400 1200 LINE SMOOTH",
"400 1267 OFFCURVE",
"433 1300 OFFCURVE",
"500 1300 CURVE SMOOTH",
"700 1300 LINE SMOOTH",
"767 1300 OFFCURVE",
"800 1267 OFFCURVE",
"800 1200 CURVE SMOOTH",
"800 1050 LINE SMOOTH",
"800 983 OFFCURVE",
"842 950 OFFCURVE",
"925 950 CURVE SMOOTH",
"1008 950 OFFCURVE",
"1050 983 OFFCURVE",
"1050 1050 CURVE SMOOTH",
"1050 1200 LINE SMOOTH",
"1050 1400 OFFCURVE",
"933 1500 OFFCURVE",
"700 1500 CURVE SMOOTH",
"500 1500 LINE SMOOTH",
"267 1500 OFFCURVE",
"150 1400 OFFCURVE",
"150 1200 CURVE SMOOTH",
"150 1000 LINE SMOOTH"
);
}
);
width = 1200;
}
);
note = uni1791;
unicode = 1791;
},
{
glyphname = uni1792;
lastChange = "2021-04-15 12:05:58 +0000";
layers = (
{
layerId = "D08966C8-96EF-481A-BF9E-1465DF9248E1";
paths = (
{
closed = 1;
nodes = (
"150 1333 OFFCURVE",
"183 1300 OFFCURVE",
"250 1300 CURVE SMOOTH",
"950 1300 LINE SMOOTH",
"1017 1300 OFFCURVE",
"1050 1333 OFFCURVE",
"1050 1400 CURVE SMOOTH",
"1050 1467 OFFCURVE",
"1017 1500 OFFCURVE",
"950 1500 CURVE SMOOTH",
"250 1500 LINE SMOOTH",
"183 1500 OFFCURVE",
"150 1467 OFFCURVE",
"150 1400 CURVE SMOOTH"
);
},
{
closed = 1;
nodes = (
"1050 1067 OFFCURVE",
"1000 1100 OFFCURVE",
"900 1100 CURVE SMOOTH",
"750 1100 LINE SMOOTH",
"683 1100 OFFCURVE",
"650 1067 OFFCURVE",
"650 1000 CURVE SMOOTH",
"650 933 OFFCURVE",
"683 900 OFFCURVE",
"750 900 CURVE SMOOTH",
"800 900 LINE",
"800 263 LINE",
"600 439 LINE",
"400 263 LINE",
"400 1000 LINE SMOOTH",
"400 1067 OFFCURVE",
"358 1100 OFFCURVE",
"275 1100 CURVE SMOOTH",
"192 1100 OFFCURVE",
"150 1067 OFFCURVE",
"150 1000 CURVE SMOOTH",
"150 100 LINE SMOOTH",
"150 33 OFFCURVE",
"208 0 OFFCURVE",
"325 0 CURVE SMOOTH",
"375 0 OFFCURVE",
"433 33 OFFCURVE",
"500 98 CURVE SMOOTH",
"600 196 LINE",
"700 98 LINE SMOOTH",
"767 33 OFFCURVE",
"825 0 OFFCURVE",
"875 0 CURVE SMOOTH",
"992 0 OFFCURVE",
"1050 33 OFFCURVE",
"1050 100 CURVE SMOOTH",
"1050 1000 LINE SMOOTH"
);
}
);
width = 1200;
}
);
note = uni1792;
unicode = 1792;
},
{
glyphname = uni1793;
lastChange = "2021-04-15 12:05:58 +0000";
layers = (
{
layerId = "D08966C8-96EF-481A-BF9E-1465DF9248E1";
paths = (
{
closed = 1;
nodes = (
"150 33 OFFCURVE",
"208 0 OFFCURVE",
"325 0 CURVE SMOOTH",
"375 0 OFFCURVE",
"433 33 OFFCURVE",
"500 98 CURVE SMOOTH",
"600 196 LINE",
"700 98 LINE SMOOTH",
"767 33 OFFCURVE",
"825 0 OFFCURVE",
"875 0 CURVE SMOOTH",
"992 0 OFFCURVE",
"1050 33 OFFCURVE",
"1050 100 CURVE SMOOTH",
"1050 600 LINE SMOOTH",
"1050 666 OFFCURVE",
"996 713 OFFCURVE",
"888 740 CURVE SMOOTH",
"725 781 LINE SMOOTH",
"508 836 OFFCURVE",
"400 909 OFFCURVE",
"400 1000 CURVE SMOOTH",
"400 1200 LINE SMOOTH",
"400 1267 OFFCURVE",
"433 1300 OFFCURVE",
"500 1300 CURVE SMOOTH",
"700 1300 LINE SMOOTH",
"767 1300 OFFCURVE",
"800 1267 OFFCURVE",
"800 1200 CURVE SMOOTH",
"800 1050 LINE SMOOTH",
"800 983 OFFCURVE",
"842 950 OFFCURVE",
"925 950 CURVE SMOOTH",
"1008 950 OFFCURVE",
"1050 983 OFFCURVE",
"1050 1050 CURVE SMOOTH",
"1050 1200 LINE SMOOTH",
"1050 1400 OFFCURVE",
"933 1500 OFFCURVE",
"700 1500 CURVE SMOOTH",
"500 1500 LINE SMOOTH",
"267 1500 OFFCURVE",
"150 1400 OFFCURVE",
"150 1200 CURVE SMOOTH",
"150 1000 LINE SMOOTH",
"150 835 OFFCURVE",
"258 724 OFFCURVE",
"475 665 CURVE SMOOTH",
"800 576 LINE",
"800 263 LINE",
"600 439 LINE",
"400 263 LINE",
"400 450 LINE SMOOTH",
"400 517 OFFCURVE",
"358 550 OFFCURVE",
"275 550 CURVE SMOOTH",
"192 550 OFFCURVE",
"150 517 OFFCURVE",
"150 450 CURVE SMOOTH",
"150 100 LINE SMOOTH"
);
}
);
width = 1200;
}
);
note = uni1793;
unicode = 1793;
},
{
glyphname = uni1794;
lastChange = "2021-04-15 12:05:58 +0000";
layers = (
{
layerId = "D08966C8-96EF-481A-BF9E-1465DF9248E1";
paths = (
{
closed = 1;
nodes = (
"150 100 OFFCURVE",
"267 0 OFFCURVE",
"500 0 CURVE SMOOTH",
"700 0 LINE SMOOTH",
"933 0 OFFCURVE",
"1050 100 OFFCURVE",
"1050 300 CURVE SMOOTH",
"1050 1400 LINE SMOOTH",
"1050 1467 OFFCURVE",
"1008 1500 OFFCURVE",
"925 1500 CURVE SMOOTH",
"842 1500 OFFCURVE",
"800 1467 OFFCURVE",
"800 1400 CURVE SMOOTH",
"800 300 LINE SMOOTH",
"800 233 OFFCURVE",
"767 200 OFFCURVE",
"700 200 CURVE SMOOTH",
"500 200 LINE SMOOTH",
"433 200 OFFCURVE",
"400 233 OFFCURVE",
"400 300 CURVE SMOOTH",
"400 1400 LINE SMOOTH",
"400 1467 OFFCURVE",
"358 1500 OFFCURVE",
"275 1500 CURVE SMOOTH",
"192 1500 OFFCURVE",
"150 1467 OFFCURVE",
"150 1400 CURVE SMOOTH",
"150 300 LINE SMOOTH"
);
}
);
width = 1200;
}
);
note = uni1794;
unicode = 1794;
},
{
glyphname = uni1795;
lastChange = "2021-04-15 12:05:58 +0000";
layers = (
{
layerId = "D08966C8-96EF-481A-BF9E-1465DF9248E1";
paths = (
{
closed = 1;
nodes = (
"1017 1300 OFFCURVE",
"1050 1333 OFFCURVE",
"1050 1400 CURVE SMOOTH",
"1050 1525 LINE SMOOTH",
"1050 1592 OFFCURVE",
"1008 1625 OFFCURVE",
"925 1625 CURVE SMOOTH",
"842 1625 OFFCURVE",
"800 1592 OFFCURVE",
"800 1525 CURVE SMOOTH",
"800 1500 LINE",
"250 1500 LINE SMOOTH",
"183 1500 OFFCURVE",
"150 1467 OFFCURVE",
"150 1400 CURVE SMOOTH",
"150 1333 OFFCURVE",
"183 1300 OFFCURVE",
"250 1300 CURVE SMOOTH",
"950 1300 LINE SMOOTH"
);
},
{
closed = 1;
nodes = (
"1050 1067 OFFCURVE",
"1000 1100 OFFCURVE",
"900 1100 CURVE SMOOTH",
"750 1100 LINE SMOOTH",
"683 1100 OFFCURVE",
"650 1067 OFFCURVE",
"650 1000 CURVE SMOOTH",
"650 933 OFFCURVE",
"683 900 OFFCURVE",
"750 900 CURVE SMOOTH",
"800 900 LINE",
"800 263 LINE",
"600 439 LINE",
"400 263 LINE",
"400 1000 LINE SMOOTH",
"400 1067 OFFCURVE",
"358 1100 OFFCURVE",
"275 1100 CURVE SMOOTH",
"192 1100 OFFCURVE",
"150 1067 OFFCURVE",
"150 1000 CURVE SMOOTH",
"150 100 LINE SMOOTH",
"150 33 OFFCURVE",
"208 0 OFFCURVE",
"325 0 CURVE SMOOTH",
"375 0 OFFCURVE",
"433 33 OFFCURVE",
"500 98 CURVE SMOOTH",
"600 196 LINE",
"700 98 LINE SMOOTH",
"767 33 OFFCURVE",
"825 0 OFFCURVE",
"875 0 CURVE SMOOTH",
"992 0 OFFCURVE",
"1050 33 OFFCURVE",
"1050 100 CURVE SMOOTH",
"1050 1000 LINE SMOOTH"
);
}
);
width = 1200;
}
);
note = uni1795;
unicode = 1795;
},
{
glyphname = uni1796;
lastChange = "2021-04-15 12:05:58 +0000";
layers = (
{
layerId = "D08966C8-96EF-481A-BF9E-1465DF9248E1";
paths = (
{
closed = 1;
nodes = (
"1050 1467 OFFCURVE",
"992 1500 OFFCURVE",
"875 1500 CURVE SMOOTH",
"825 1500 OFFCURVE",
"767 1467 OFFCURVE",
"700 1402 CURVE SMOOTH",
"600 1304 LINE",
"500 1402 LINE SMOOTH",
"433 1467 OFFCURVE",
"375 1500 OFFCURVE",
"325 1500 CURVE SMOOTH",
"208 1500 OFFCURVE",
"150 1467 OFFCURVE",
"150 1400 CURVE SMOOTH",
"150 100 LINE SMOOTH",
"150 33 OFFCURVE",
"200 0 OFFCURVE",
"300 0 CURVE SMOOTH",
"450 0 LINE SMOOTH",
"517 0 OFFCURVE",
"550 33 OFFCURVE",
"550 100 CURVE SMOOTH",
"550 167 OFFCURVE",
"517 200 OFFCURVE",
"450 200 CURVE SMOOTH",
"400 200 LINE",
"400 1237 LINE",
"600 1061 LINE",
"800 1237 LINE",
"800 100 LINE SMOOTH",
"800 33 OFFCURVE",
"842 0 OFFCURVE",
"925 0 CURVE SMOOTH",
"1008 0 OFFCURVE",
"1050 33 OFFCURVE",
"1050 100 CURVE SMOOTH",
"1050 1400 LINE SMOOTH"
);
}
);
width = 1200;
}
);
note = uni1796;
unicode = 1796;
},
{
glyphname = uni1797;
lastChange = "2021-04-15 12:05:58 +0000";
layers = (
{
layerId = "D08966C8-96EF-481A-BF9E-1465DF9248E1";
paths = (
{
closed = 1;
nodes = (
"150 1333 OFFCURVE",
"183 1300 OFFCURVE",
"250 1300 CURVE SMOOTH",
"950 1300 LINE SMOOTH",
"1017 1300 OFFCURVE",
"1050 1333 OFFCURVE",
"1050 1400 CURVE SMOOTH",
"1050 1467 OFFCURVE",
"1017 1500 OFFCURVE",
"950 1500 CURVE SMOOTH",
"250 1500 LINE SMOOTH",
"183 1500 OFFCURVE",
"150 1467 OFFCURVE",
"150 1400 CURVE SMOOTH"
);
},
{
closed = 1;
nodes = (
"83 200 OFFCURVE",
"50 167 OFFCURVE",
"50 100 CURVE SMOOTH",
"50 33 OFFCURVE",
"83 0 OFFCURVE",
"150 0 CURVE SMOOTH",
"250 0 LINE SMOOTH",
"350 0 OFFCURVE",
"400 33 OFFCURVE",
"400 100 CURVE SMOOTH",
"400 800 LINE SMOOTH",
"400 867 OFFCURVE",
"433 900 OFFCURVE",
"500 900 CURVE SMOOTH",
"700 900 LINE SMOOTH",
"767 900 OFFCURVE",
"800 867 OFFCURVE",
"800 800 CURVE SMOOTH",
"800 100 LINE SMOOTH",
"800 33 OFFCURVE",
"842 0 OFFCURVE",
"925 0 CURVE SMOOTH",
"1008 0 OFFCURVE",
"1050 33 OFFCURVE",
"1050 100 CURVE SMOOTH",
"1050 800 LINE SMOOTH",
"1050 1000 OFFCURVE",
"933 1100 OFFCURVE",
"700 1100 CURVE SMOOTH",
"500 1100 LINE SMOOTH",
"267 1100 OFFCURVE",
"150 1000 OFFCURVE",
"150 800 CURVE SMOOTH",
"150 200 LINE"
);
}
);
width = 1200;
}
);
note = uni1797;
unicode = 1797;
},
{
glyphname = uni1798;
lastChange = "2021-04-15 12:05:58 +0000";
layers = (
{
layerId = "D08966C8-96EF-481A-BF9E-1465DF9248E1";
paths = (
{
closed = 1;
nodes = (
"483 850 OFFCURVE",
"450 817 OFFCURVE",
"450 750 CURVE SMOOTH",
"450 683 OFFCURVE",
"483 650 OFFCURVE",
"550 650 CURVE SMOOTH",
"800 650 LINE",
"800 300 LINE SMOOTH",
"800 233 OFFCURVE",
"767 200 OFFCURVE",
"700 200 CURVE SMOOTH",
"500 200 LINE SMOOTH",
"433 200 OFFCURVE",
"400 233 OFFCURVE",
"400 300 CURVE SMOOTH",
"400 1400 LINE SMOOTH",
"400 1467 OFFCURVE",
"358 1500 OFFCURVE",
"275 1500 CURVE SMOOTH",
"192 1500 OFFCURVE",
"150 1467 OFFCURVE",
"150 1400 CURVE SMOOTH",
"150 300 LINE SMOOTH",
"150 100 OFFCURVE",
"267 0 OFFCURVE",
"500 0 CURVE SMOOTH",
"700 0 LINE SMOOTH",
"933 0 OFFCURVE",
"1050 100 OFFCURVE",
"1050 300 CURVE SMOOTH",
"1050 1400 LINE SMOOTH",
"1050 1467 OFFCURVE",
"1008 1500 OFFCURVE",
"925 1500 CURVE SMOOTH",
"842 1500 OFFCURVE",
"800 1467 OFFCURVE",
"800 1400 CURVE SMOOTH",
"800 850 LINE",
"550 850 LINE SMOOTH"
);
}
);
width = 1200;
}
);
note = uni1798;
unicode = 1798;
},
{
glyphname = uni1799;
lastChange = "2021-04-15 12:05:58 +0000";
layers = (
{
layerId = "D08966C8-96EF-481A-BF9E-1465DF9248E1";
paths = (
{
closed = 1;
nodes = (
"775 233 OFFCURVE",
"750 200 OFFCURVE",
"700 200 CURVE SMOOTH",
"500 200 LINE SMOOTH",
"433 200 OFFCURVE",
"400 233 OFFCURVE",
"400 300 CURVE SMOOTH",
"400 1250 LINE SMOOTH",
"400 1283 OFFCURVE",
"417 1300 OFFCURVE",
"450 1300 CURVE SMOOTH",
"517 1300 OFFCURVE",
"550 1333 OFFCURVE",
"550 1400 CURVE SMOOTH",
"550 1467 OFFCURVE",
"517 1500 OFFCURVE",
"450 1500 CURVE SMOOTH",
"300 1500 LINE SMOOTH",
"200 1500 OFFCURVE",
"150 1467 OFFCURVE",
"150 1400 CURVE SMOOTH",
"150 300 LINE SMOOTH",
"150 100 OFFCURVE",
"267 0 OFFCURVE",
"500 0 CURVE SMOOTH",
"700 0 LINE SMOOTH",
"785 0 OFFCURVE",
"853 15 OFFCURVE",
"905 46 CURVE",
"960 15 OFFCURVE",
"1034 0 OFFCURVE",
"1125 0 CURVE SMOOTH",
"1325 0 LINE SMOOTH",
"1542 0 OFFCURVE",
"1650 100 OFFCURVE",
"1650 300 CURVE SMOOTH",
"1650 1400 LINE SMOOTH",
"1650 1467 OFFCURVE",
"1608 1500 OFFCURVE",
"1525 1500 CURVE SMOOTH",
"1442 1500 OFFCURVE",
"1400 1467 OFFCURVE",
"1400 1400 CURVE SMOOTH",
"1400 300 LINE SMOOTH",
"1400 233 OFFCURVE",
"1375 200 OFFCURVE",
"1325 200 CURVE SMOOTH",
"1125 200 LINE SMOOTH",
"1058 200 OFFCURVE",
"1025 233 OFFCURVE",
"1025 300 CURVE SMOOTH",
"1025 1400 LINE SMOOTH",
"1025 1467 OFFCURVE",
"983 1500 OFFCURVE",
"900 1500 CURVE SMOOTH",
"817 1500 OFFCURVE",
"775 1467 OFFCURVE",
"775 1400 CURVE SMOOTH",
"775 300 LINE SMOOTH"
);
}
);
width = 1800;
}
);
note = uni1799;
unicode = 1799;
},
{
glyphname = uni179A;
lastChange = "2021-04-15 12:05:58 +0000";
layers = (
{
layerId = "D08966C8-96EF-481A-BF9E-1465DF9248E1";
paths = (
{
closed = 1;
nodes = (
"192 1500 OFFCURVE",
"150 1467 OFFCURVE",
"150 1400 CURVE SMOOTH",
"150 250 LINE SMOOTH",
"150 217 OFFCURVE",
"133 200 OFFCURVE",
"100 200 CURVE SMOOTH",
"33 200 OFFCURVE",
"0 167 OFFCURVE",
"0 100 CURVE SMOOTH",
"0 33 OFFCURVE",
"33 0 OFFCURVE",
"100 0 CURVE SMOOTH",
"250 0 LINE SMOOTH",
"350 0 OFFCURVE",
"400 33 OFFCURVE",
"400 100 CURVE SMOOTH",
"400 1400 LINE SMOOTH",
"400 1467 OFFCURVE",
"358 1500 OFFCURVE",
"275 1500 CURVE SMOOTH"
);
}
);
width = 550;
}
);
note = uni179A;
unicode = 179A;
},
{
glyphname = uni179B;
lastChange = "2021-04-15 12:05:58 +0000";
layers = (
{
layerId = "D08966C8-96EF-481A-BF9E-1465DF9248E1";
paths = (
{
closed = 1;
nodes = (
"1058 200 OFFCURVE",
"1025 233 OFFCURVE",
"1025 300 CURVE SMOOTH",
"1025 1200 LINE SMOOTH",
"1025 1400 OFFCURVE",
"908 1500 OFFCURVE",
"675 1500 CURVE SMOOTH",
"500 1500 LINE SMOOTH",
"267 1500 OFFCURVE",
"150 1400 OFFCURVE",
"150 1200 CURVE SMOOTH",
"150 100 LINE SMOOTH",
"150 33 OFFCURVE",
"200 0 OFFCURVE",
"300 0 CURVE SMOOTH",
"450 0 LINE SMOOTH",
"517 0 OFFCURVE",
"550 33 OFFCURVE",
"550 100 CURVE SMOOTH",
"550 167 OFFCURVE",
"517 200 OFFCURVE",
"450 200 CURVE SMOOTH",
"400 200 LINE",
"400 1200 LINE SMOOTH",
"400 1267 OFFCURVE",
"433 1300 OFFCURVE",
"500 1300 CURVE SMOOTH",
"675 1300 LINE SMOOTH",
"742 1300 OFFCURVE",
"775 1267 OFFCURVE",
"775 1200 CURVE SMOOTH",
"775 300 LINE SMOOTH",
"775 100 OFFCURVE",
"892 0 OFFCURVE",
"1125 0 CURVE SMOOTH",
"1325 0 LINE SMOOTH",
"1542 0 OFFCURVE",
"1650 100 OFFCURVE",
"1650 300 CURVE SMOOTH",
"1650 1400 LINE SMOOTH",
"1650 1467 OFFCURVE",
"1608 1500 OFFCURVE",
"1525 1500 CURVE SMOOTH",
"1442 1500 OFFCURVE",
"1400 1467 OFFCURVE",
"1400 1400 CURVE SMOOTH",
"1400 300 LINE SMOOTH",
"1400 233 OFFCURVE",
"1375 200 OFFCURVE",
"1325 200 CURVE SMOOTH",
"1125 200 LINE SMOOTH"
);
}
);
width = 1800;
}
);
note = uni179B;
unicode = 179B;
},
{
glyphname = uni179C;
lastChange = "2021-04-15 12:05:58 +0000";
layers = (
{
layerId = "D08966C8-96EF-481A-BF9E-1465DF9248E1";
paths = (
{
closed = 1;
nodes = (
"400 1171 OFFCURVE",
"346 1238 OFFCURVE",
"239 1300 CURVE",
"300 1300 LINE SMOOTH",
"367 1300 OFFCURVE",
"400 1333 OFFCURVE",
"400 1400 CURVE SMOOTH",
"400 1525 LINE SMOOTH",
"400 1592 OFFCURVE",
"358 1625 OFFCURVE",
"275 1625 CURVE SMOOTH",
"192 1625 OFFCURVE",
"150 1592 OFFCURVE",
"150 1525 CURVE SMOOTH",
"150 1500 LINE",
"100 1500 LINE SMOOTH",
"33 1500 OFFCURVE",
"0 1467 OFFCURVE",
"0 1400 CURVE SMOOTH",
"0 1349 OFFCURVE",
"25 1303 OFFCURVE",
"75 1262 CURVE SMOOTH",
"125 1221 OFFCURVE",
"150 1167 OFFCURVE",
"150 1100 CURVE SMOOTH",
"150 250 LINE SMOOTH",
"150 217 OFFCURVE",
"133 200 OFFCURVE",
"100 200 CURVE SMOOTH",
"33 200 OFFCURVE",
"0 167 OFFCURVE",
"0 100 CURVE SMOOTH",
"0 33 OFFCURVE",
"33 0 OFFCURVE",
"100 0 CURVE SMOOTH",
"250 0 LINE SMOOTH",
"350 0 OFFCURVE",
"400 33 OFFCURVE",
"400 100 CURVE SMOOTH",
"400 1100 LINE SMOOTH"
);
}
);
width = 550;
}
);
note = uni179C;
unicode = 179C;
},
{
glyphname = uni179D;
lastChange = "2021-04-15 12:05:58 +0000";
layers = (
{
layerId = "D08966C8-96EF-481A-BF9E-1465DF9248E1";
paths = (
{
closed = 1;
nodes = (
"950 1300 LINE SMOOTH",
"1017 1300 OFFCURVE",
"1050 1333 OFFCURVE",
"1050 1400 CURVE SMOOTH",
"1050 1467 OFFCURVE",
"1017 1500 OFFCURVE",
"950 1500 CURVE SMOOTH",
"250 1500 LINE SMOOTH",
"183 1500 OFFCURVE",
"150 1467 OFFCURVE",
"150 1400 CURVE SMOOTH",
"150 1333 OFFCURVE",
"183 1300 OFFCURVE",
"250 1300 CURVE SMOOTH"
);
},
{
closed = 1;
nodes = (
"1050 1000 OFFCURVE",
"933 1100 OFFCURVE",
"700 1100 CURVE SMOOTH",
"500 1100 LINE SMOOTH",
"267 1100 OFFCURVE",
"150 1000 OFFCURVE",
"150 800 CURVE SMOOTH",
"150 100 LINE SMOOTH",
"150 33 OFFCURVE",
"192 0 OFFCURVE",
"275 0 CURVE SMOOTH",
"342 0 OFFCURVE",
"383 22 OFFCURVE",
"396 66 CURVE",
"647 411 LINE SMOOTH",
"653 418 OFFCURVE",
"656 426 OFFCURVE",
"656 435 CURVE SMOOTH",
"656 456 OFFCURVE",
"639 480 OFFCURVE",
"604 508 CURVE SMOOTH",
"576 531 OFFCURVE",
"553 543 OFFCURVE",
"534 543 CURVE SMOOTH",
"521 543 OFFCURVE",
"510 537 OFFCURVE",
"502 526 CURVE SMOOTH",
"400 388 LINE",
"400 800 LINE SMOOTH",
"400 867 OFFCURVE",
"433 900 OFFCURVE",
"500 900 CURVE SMOOTH",
"700 900 LINE SMOOTH",
"767 900 OFFCURVE",
"800 867 OFFCURVE",
"800 800 CURVE SMOOTH",
"800 567 LINE",
"700 567 LINE",
"700 367 LINE",
"800 367 LINE",
"800 100 LINE SMOOTH",
"800 33 OFFCURVE",
"842 0 OFFCURVE",
"925 0 CURVE SMOOTH",
"1008 0 OFFCURVE",
"1050 33 OFFCURVE",
"1050 100 CURVE SMOOTH",
"1050 367 LINE",
"1150 367 LINE",
"1150 567 LINE",
"1050 567 LINE",
"1050 800 LINE SMOOTH"
);
}
);
width = 1200;
}
);
note = uni179D;
unicode = 179D;
},
{
glyphname = uni179E;
lastChange = "2021-04-15 12:05:58 +0000";
layers = (
{
layerId = "D08966C8-96EF-481A-BF9E-1465DF9248E1";
paths = (
{
closed = 1;
nodes = (
"1050 850 LINE",
"1050 1400 LINE SMOOTH",
"1050 1467 OFFCURVE",
"1008 1500 OFFCURVE",
"925 1500 CURVE SMOOTH",
"842 1500 OFFCURVE",
"800 1467 OFFCURVE",
"800 1400 CURVE SMOOTH",
"800 850 LINE",
"700 850 LINE",
"700 650 LINE",
"800 650 LINE",
"800 300 LINE SMOOTH",
"800 233 OFFCURVE",
"767 200 OFFCURVE",
"700 200 CURVE SMOOTH",
"500 200 LINE SMOOTH",
"433 200 OFFCURVE",
"400 233 OFFCURVE",
"400 300 CURVE SMOOTH",
"400 1400 LINE SMOOTH",
"400 1467 OFFCURVE",
"358 1500 OFFCURVE",
"275 1500 CURVE SMOOTH",
"192 1500 OFFCURVE",
"150 1467 OFFCURVE",
"150 1400 CURVE SMOOTH",
"150 300 LINE SMOOTH",
"150 100 OFFCURVE",
"267 0 OFFCURVE",
"500 0 CURVE SMOOTH",
"700 0 LINE SMOOTH",
"933 0 OFFCURVE",
"1050 100 OFFCURVE",
"1050 300 CURVE SMOOTH",
"1050 650 LINE",
"1150 650 LINE",
"1150 850 LINE"
);
}
);
width = 1200;
}
);
note = uni179E;
unicode = 179E;
},
{
glyphname = uni179F;
lastChange = "2021-04-15 12:05:58 +0000";
layers = (
{
layerId = "D08966C8-96EF-481A-BF9E-1465DF9248E1";
paths = (
{
closed = 1;
nodes = (
"800 1300 LINE SMOOTH",
"867 1300 OFFCURVE",
"900 1333 OFFCURVE",
"900 1400 CURVE SMOOTH",
"900 1467 OFFCURVE",
"867 1500 OFFCURVE",
"800 1500 CURVE SMOOTH",
"250 1500 LINE SMOOTH",
"183 1500 OFFCURVE",
"150 1467 OFFCURVE",
"150 1400 CURVE SMOOTH",
"150 1333 OFFCURVE",
"183 1300 OFFCURVE",
"250 1300 CURVE SMOOTH"
);
},
{
closed = 1;
nodes = (
"775 100 OFFCURVE",
"892 0 OFFCURVE",
"1125 0 CURVE SMOOTH",
"1325 0 LINE SMOOTH",
"1542 0 OFFCURVE",
"1650 100 OFFCURVE",
"1650 300 CURVE SMOOTH",
"1650 1400 LINE SMOOTH",
"1650 1467 OFFCURVE",
"1608 1500 OFFCURVE",
"1525 1500 CURVE SMOOTH",
"1442 1500 OFFCURVE",
"1400 1467 OFFCURVE",
"1400 1400 CURVE SMOOTH",
"1400 300 LINE SMOOTH",
"1400 233 OFFCURVE",
"1375 200 OFFCURVE",
"1325 200 CURVE SMOOTH",
"1125 200 LINE SMOOTH",
"1058 200 OFFCURVE",
"1025 233 OFFCURVE",
"1025 300 CURVE SMOOTH",
"1025 800 LINE SMOOTH",
"1025 1000 OFFCURVE",
"908 1100 OFFCURVE",
"675 1100 CURVE SMOOTH",
"500 1100 LINE SMOOTH",
"267 1100 OFFCURVE",
"150 1000 OFFCURVE",
"150 800 CURVE SMOOTH",
"150 100 LINE SMOOTH",
"150 33 OFFCURVE",
"200 0 OFFCURVE",
"300 0 CURVE SMOOTH",
"450 0 LINE SMOOTH",
"517 0 OFFCURVE",
"550 33 OFFCURVE",
"550 100 CURVE SMOOTH",
"550 167 OFFCURVE",
"517 200 OFFCURVE",
"450 200 CURVE SMOOTH",
"400 200 LINE",
"400 800 LINE SMOOTH",
"400 867 OFFCURVE",
"433 900 OFFCURVE",
"500 900 CURVE SMOOTH",
"675 900 LINE SMOOTH",
"742 900 OFFCURVE",
"775 867 OFFCURVE",
"775 800 CURVE SMOOTH",
"775 300 LINE SMOOTH"
);
}
);
width = 1800;
}
);
note = uni179F;
unicode = 179F;
},
{
glyphname = uni17A0;
lastChange = "2021-04-15 12:05:58 +0000";
layers = (
{
layerId = "D08966C8-96EF-481A-BF9E-1465DF9248E1";
paths = (
{
closed = 1;
nodes = (
"775 233 OFFCURVE",
"742 200 OFFCURVE",
"675 200 CURVE SMOOTH",
"500 200 LINE SMOOTH",
"433 200 OFFCURVE",
"400 233 OFFCURVE",
"400 300 CURVE SMOOTH",
"400 1400 LINE SMOOTH",
"400 1467 OFFCURVE",
"358 1500 OFFCURVE",
"275 1500 CURVE SMOOTH",
"192 1500 OFFCURVE",
"150 1467 OFFCURVE",
"150 1400 CURVE SMOOTH",
"150 300 LINE SMOOTH",
"150 100 OFFCURVE",
"267 0 OFFCURVE",
"500 0 CURVE SMOOTH",
"675 0 LINE SMOOTH",
"908 0 OFFCURVE",
"1025 100 OFFCURVE",
"1025 300 CURVE SMOOTH",
"1025 1200 LINE SMOOTH",
"1025 1267 OFFCURVE",
"1058 1300 OFFCURVE",
"1125 1300 CURVE SMOOTH",
"1300 1300 LINE SMOOTH",
"1367 1300 OFFCURVE",
"1400 1267 OFFCURVE",
"1400 1200 CURVE SMOOTH",
"1400 100 LINE SMOOTH",
"1400 33 OFFCURVE",
"1442 0 OFFCURVE",
"1525 0 CURVE SMOOTH",
"1608 0 OFFCURVE",
"1650 33 OFFCURVE",
"1650 100 CURVE SMOOTH",
"1650 1200 LINE SMOOTH",
"1650 1400 OFFCURVE",
"1533 1500 OFFCURVE",
"1300 1500 CURVE SMOOTH",
"1125 1500 LINE SMOOTH",
"892 1500 OFFCURVE",
"775 1400 OFFCURVE",
"775 1200 CURVE SMOOTH",
"775 300 LINE SMOOTH"
);
}
);
width = 1800;
}
);
note = uni17A0;
unicode = 17A0;
},
{
glyphname = uni17A1;
lastChange = "2021-04-15 12:05:58 +0000";
layers = (
{
layerId = "D08966C8-96EF-481A-BF9E-1465DF9248E1";
paths = (
{
closed = 1;
nodes = (
"150 825 OFFCURVE",
"313 700 OFFCURVE",
"638 623 CURVE SMOOTH",
"800 585 LINE",
"800 300 LINE SMOOTH",
"800 233 OFFCURVE",
"767 200 OFFCURVE",
"700 200 CURVE SMOOTH",
"500 200 LINE SMOOTH",
"433 200 OFFCURVE",
"400 233 OFFCURVE",
"400 300 CURVE SMOOTH",
"400 450 LINE SMOOTH",
"400 517 OFFCURVE",
"358 550 OFFCURVE",
"275 550 CURVE SMOOTH",
"192 550 OFFCURVE",
"150 517 OFFCURVE",
"150 450 CURVE SMOOTH",
"150 300 LINE SMOOTH",
"150 100 OFFCURVE",
"267 0 OFFCURVE",
"500 0 CURVE SMOOTH",
"700 0 LINE SMOOTH",
"933 0 OFFCURVE",
"1050 100 OFFCURVE",
"1050 300 CURVE SMOOTH",
"1050 490 LINE",
"947 539 LINE",
"1016 561 OFFCURVE",
"1050 596 OFFCURVE",
"1050 644 CURVE SMOOTH",
"1050 766 LINE SMOOTH",
"1050 822 OFFCURVE",
"1017 850 OFFCURVE",
"950 850 CURVE SMOOTH",
"910 850 LINE SMOOTH",
"869 850 OFFCURVE",
"830 821 OFFCURVE",
"803 790 CURVE",
"702 811 LINE SMOOTH",
"501 852 OFFCURVE",
"400 915 OFFCURVE",
"400 1000 CURVE SMOOTH",
"400 1200 LINE SMOOTH",
"400 1267 OFFCURVE",
"433 1300 OFFCURVE",
"500 1300 CURVE SMOOTH",
"700 1300 LINE SMOOTH",
"767 1300 OFFCURVE",
"800 1267 OFFCURVE",
"800 1200 CURVE SMOOTH",
"800 1050 LINE SMOOTH",
"800 983 OFFCURVE",
"842 950 OFFCURVE",
"925 950 CURVE SMOOTH",
"1008 950 OFFCURVE",
"1050 983 OFFCURVE",
"1050 1050 CURVE SMOOTH",
"1050 1200 LINE SMOOTH",
"1050 1400 OFFCURVE",
"933 1500 OFFCURVE",
"700 1500 CURVE SMOOTH",
"500 1500 LINE SMOOTH",
"267 1500 OFFCURVE",
"150 1400 OFFCURVE",
"150 1200 CURVE SMOOTH",
"150 1000 LINE SMOOTH"
);
},
{
closed = 1;
nodes = (
"1050 -368 LINE",
"1050 -158 LINE SMOOTH",
"1050 -99 OFFCURVE",
"1008 -70 OFFCURVE",
"925 -70 CURVE SMOOTH",
"800 -70 LINE SMOOTH",
"733 -70 OFFCURVE",
"700 -99 OFFCURVE",
"700 -158 CURVE SMOOTH",
"700 -217 OFFCURVE",
"733 -247 OFFCURVE",
"800 -247 CURVE",
"800 -512 LINE SMOOTH",
"800 -571 OFFCURVE",
"858 -600 OFFCURVE",
"975 -600 CURVE SMOOTH",
"1025 -600 OFFCURVE",
"1083 -571 OFFCURVE",
"1150 -513 CURVE SMOOTH",
"1225 -448 LINE",
"1300 -513 LINE SMOOTH",
"1367 -571 OFFCURVE",
"1425 -600 OFFCURVE",
"1475 -600 CURVE SMOOTH",
"1592 -600 OFFCURVE",
"1650 -571 OFFCURVE",
"1650 -512 CURVE SMOOTH",
"1650 1400 LINE SMOOTH",
"1650 1467 OFFCURVE",
"1608 1500 OFFCURVE",
"1525 1500 CURVE SMOOTH",
"1442 1500 OFFCURVE",
"1400 1467 OFFCURVE",
"1400 1400 CURVE SMOOTH",
"1400 -368 LINE",
"1225 -232 LINE"
);
}
);
width = 1800;
}
);
note = uni17A1;
unicode = 17A1;
},
{
glyphname = uni17A2;
lastChange = "2021-04-15 12:05:58 +0000";
layers = (
{
layerId = "D08966C8-96EF-481A-BF9E-1465DF9248E1";
paths = (
{
closed = 1;
nodes = (
"150 217 OFFCURVE",
"133 200 OFFCURVE",
"100 200 CURVE SMOOTH",
"33 200 OFFCURVE",
"0 167 OFFCURVE",
"0 100 CURVE SMOOTH",
"0 33 OFFCURVE",
"33 0 OFFCURVE",
"100 0 CURVE SMOOTH",
"250 0 LINE SMOOTH",
"350 0 OFFCURVE",
"400 33 OFFCURVE",
"400 100 CURVE SMOOTH",
"400 1400 LINE SMOOTH",
"400 1467 OFFCURVE",
"358 1500 OFFCURVE",
"275 1500 CURVE SMOOTH",
"192 1500 OFFCURVE",
"150 1467 OFFCURVE",
"150 1400 CURVE SMOOTH",
"150 250 LINE SMOOTH"
);
},
{
closed = 1;
nodes = (
"800 217 OFFCURVE",
"783 200 OFFCURVE",
"750 200 CURVE SMOOTH",
"683 200 OFFCURVE",
"650 167 OFFCURVE",
"650 100 CURVE SMOOTH",
"650 33 OFFCURVE",
"683 0 OFFCURVE",
"750 0 CURVE SMOOTH",
"900 0 LINE SMOOTH",
"1000 0 OFFCURVE",
"1050 33 OFFCURVE",
"1050 100 CURVE SMOOTH",
"1050 1400 LINE SMOOTH",
"1050 1467 OFFCURVE",
"1008 1500 OFFCURVE",
"925 1500 CURVE SMOOTH",
"842 1500 OFFCURVE",
"800 1467 OFFCURVE",
"800 1400 CURVE SMOOTH",
"800 850 LINE",
"550 850 LINE SMOOTH",
"483 850 OFFCURVE",
"450 817 OFFCURVE",
"450 750 CURVE SMOOTH",
"450 683 OFFCURVE",
"483 650 OFFCURVE",
"550 650 CURVE SMOOTH",
"800 650 LINE",
"800 250 LINE SMOOTH"
);
}
);
width = 1200;
}
);
note = uni17A2;
unicode = 17A2;
},
{
glyphname = uni17A5;
lastChange = "2021-04-15 12:05:58 +0000";
layers = (
{
layerId = "D08966C8-96EF-481A-BF9E-1465DF9248E1";
paths = (
{
closed = 1;
nodes = (
"1017 1300 OFFCURVE",
"1050 1333 OFFCURVE",
"1050 1400 CURVE SMOOTH",
"1050 1525 LINE SMOOTH",
"1050 1592 OFFCURVE",
"1008 1625 OFFCURVE",
"925 1625 CURVE SMOOTH",
"842 1625 OFFCURVE",
"800 1592 OFFCURVE",
"800 1525 CURVE SMOOTH",
"800 1500 LINE",
"250 1500 LINE SMOOTH",
"183 1500 OFFCURVE",
"150 1467 OFFCURVE",
"150 1400 CURVE SMOOTH",
"150 1333 OFFCURVE",
"183 1300 OFFCURVE",
"250 1300 CURVE SMOOTH",
"950 1300 LINE SMOOTH"
);
},
{
closed = 1;
nodes = (
"400 867 OFFCURVE",
"433 900 OFFCURVE",
"500 900 CURVE SMOOTH",
"700 900 LINE SMOOTH",
"767 900 OFFCURVE",
"800 867 OFFCURVE",
"800 800 CURVE SMOOTH",
"800 100 LINE SMOOTH",
"800 33 OFFCURVE",
"842 0 OFFCURVE",
"925 0 CURVE SMOOTH",
"1008 0 OFFCURVE",
"1050 33 OFFCURVE",
"1050 100 CURVE SMOOTH",
"1050 800 LINE SMOOTH",
"1050 1000 OFFCURVE",
"933 1100 OFFCURVE",
"700 1100 CURVE SMOOTH",
"500 1100 LINE SMOOTH",
"267 1100 OFFCURVE",
"150 1000 OFFCURVE",
"150 800 CURVE SMOOTH",
"150 100 LINE SMOOTH",
"150 33 OFFCURVE",
"200 0 OFFCURVE",
"300 0 CURVE SMOOTH",
"450 0 LINE SMOOTH",
"517 0 OFFCURVE",
"550 33 OFFCURVE",
"550 100 CURVE SMOOTH",
"550 167 OFFCURVE",
"517 200 OFFCURVE",
"450 200 CURVE SMOOTH",
"400 200 LINE",
"400 800 LINE SMOOTH"
);
}
);
width = 1200;
}
);
note = uni17A5;
unicode = 17A5;
},
{
glyphname = uni17A6;
lastChange = "2021-04-15 12:05:58 +0000";
layers = (
{
layerId = "D08966C8-96EF-481A-BF9E-1465DF9248E1";
paths = (
{
closed = 1;
nodes = (
"800 1750 LINE SMOOTH",
"800 1683 OFFCURVE",
"842 1650 OFFCURVE",
"925 1650 CURVE SMOOTH",
"1008 1650 OFFCURVE",
"1050 1667 OFFCURVE",
"1050 1700 CURVE SMOOTH",
"1050 1733 OFFCURVE",
"1100 1750 OFFCURVE",
"1200 1750 CURVE SMOOTH",
"1300 1750 LINE SMOOTH",
"1367 1750 OFFCURVE",
"1400 1717 OFFCURVE",
"1400 1650 CURVE SMOOTH",
"1400 -450 LINE SMOOTH",
"1400 -517 OFFCURVE",
"1367 -550 OFFCURVE",
"1300 -550 CURVE SMOOTH",
"1150 -550 LINE SMOOTH",
"1083 -550 OFFCURVE",
"1050 -517 OFFCURVE",
"1050 -450 CURVE SMOOTH",
"1050 -357 LINE SMOOTH",
"1050 -186 OFFCURVE",
"933 -100 OFFCURVE",
"700 -100 CURVE SMOOTH",
"500 -100 LINE SMOOTH",
"267 -100 OFFCURVE",
"150 -186 OFFCURVE",
"150 -357 CURVE SMOOTH",
"150 -600 LINE SMOOTH",
"150 -667 OFFCURVE",
"200 -700 OFFCURVE",
"300 -700 CURVE SMOOTH",
"450 -700 LINE SMOOTH",
"517 -700 OFFCURVE",
"550 -667 OFFCURVE",
"550 -600 CURVE SMOOTH",
"550 -533 OFFCURVE",
"517 -500 OFFCURVE",
"450 -500 CURVE SMOOTH",
"400 -500 LINE",
"400 -357 LINE SMOOTH",
"400 -286 OFFCURVE",
"433 -250 OFFCURVE",
"500 -250 CURVE SMOOTH",
"700 -250 LINE SMOOTH",
"767 -250 OFFCURVE",
"800 -286 OFFCURVE",
"800 -357 CURVE SMOOTH",
"800 -450 LINE SMOOTH",
"800 -617 OFFCURVE",
"917 -700 OFFCURVE",
"1150 -700 CURVE SMOOTH",
"1300 -700 LINE SMOOTH",
"1533 -700 OFFCURVE",
"1650 -617 OFFCURVE",
"1650 -450 CURVE SMOOTH",
"1650 1650 LINE SMOOTH",
"1650 1850 OFFCURVE",
"1533 1950 OFFCURVE",
"1300 1950 CURVE SMOOTH",
"1200 1950 LINE SMOOTH",
"1145 1950 OFFCURVE",
"1095 1947 OFFCURVE",
"1050 1940 CURVE",
"1050 2200 LINE SMOOTH",
"1050 2267 OFFCURVE",
"1008 2300 OFFCURVE",
"925 2300 CURVE SMOOTH",
"842 2300 OFFCURVE",
"800 2267 OFFCURVE",
"800 2200 CURVE SMOOTH"
);
},
{
closed = 1;
nodes = (
"1050 1400 OFFCURVE",
"933 1500 OFFCURVE",
"700 1500 CURVE SMOOTH",
"500 1500 LINE SMOOTH",
"267 1500 OFFCURVE",
"150 1400 OFFCURVE",
"150 1200 CURVE SMOOTH",
"150 100 LINE SMOOTH",
"150 33 OFFCURVE",
"200 0 OFFCURVE",
"300 0 CURVE SMOOTH",
"450 0 LINE SMOOTH",
"517 0 OFFCURVE",
"550 33 OFFCURVE",
"550 100 CURVE SMOOTH",
"550 167 OFFCURVE",
"517 200 OFFCURVE",
"450 200 CURVE SMOOTH",
"400 200 LINE",
"400 1200 LINE SMOOTH",
"400 1267 OFFCURVE",
"433 1300 OFFCURVE",
"500 1300 CURVE SMOOTH",
"700 1300 LINE SMOOTH",
"767 1300 OFFCURVE",
"800 1267 OFFCURVE",
"800 1200 CURVE SMOOTH",
"800 100 LINE SMOOTH",
"800 33 OFFCURVE",
"842 0 OFFCURVE",
"925 0 CURVE SMOOTH",
"1008 0 OFFCURVE",
"1050 33 OFFCURVE",
"1050 100 CURVE SMOOTH",
"1050 1200 LINE SMOOTH"
);
}
);
width = 1800;
}
);
note = uni17A6;
unicode = 17A6;
},
{
glyphname = uni17A7;
lastChange = "2021-04-15 12:05:58 +0000";
layers = (
{
layerId = "D08966C8-96EF-481A-BF9E-1465DF9248E1";
paths = (
{
closed = 1;
nodes = (
"1050 1400 OFFCURVE",
"933 1500 OFFCURVE",
"700 1500 CURVE SMOOTH",
"500 1500 LINE SMOOTH",
"267 1500 OFFCURVE",
"150 1400 OFFCURVE",
"150 1200 CURVE SMOOTH",
"150 1000 LINE SMOOTH",
"150 933 OFFCURVE",
"192 900 OFFCURVE",
"275 900 CURVE SMOOTH",
"358 900 OFFCURVE",
"400 933 OFFCURVE",
"400 1000 CURVE SMOOTH",
"400 1200 LINE SMOOTH",
"400 1267 OFFCURVE",
"433 1300 OFFCURVE",
"500 1300 CURVE SMOOTH",
"700 1300 LINE SMOOTH",
"767 1300 OFFCURVE",
"800 1267 OFFCURVE",
"800 1200 CURVE SMOOTH",
"800 1050 LINE SMOOTH",
"800 969 OFFCURVE",
"746 909 OFFCURVE",
"638 872 CURVE SMOOTH",
"475 815 LINE SMOOTH",
"258 740 OFFCURVE",
"150 618 OFFCURVE",
"150 450 CURVE SMOOTH",
"150 300 LINE SMOOTH",
"150 100 OFFCURVE",
"267 0 OFFCURVE",
"500 0 CURVE SMOOTH",
"550 0 OFFCURVE",
"594 8 OFFCURVE",
"631 24 CURVE SMOOTH",
"800 96 LINE",
"800 50 LINE SMOOTH",
"800 -17 OFFCURVE",
"842 -50 OFFCURVE",
"925 -50 CURVE SMOOTH",
"1008 -50 OFFCURVE",
"1050 -17 OFFCURVE",
"1050 50 CURVE SMOOTH",
"1050 500 LINE SMOOTH",
"1050 567 OFFCURVE",
"1008 600 OFFCURVE",
"925 600 CURVE SMOOTH",
"842 600 OFFCURVE",
"800 567 OFFCURVE",
"800 500 CURVE SMOOTH",
"800 380 LINE SMOOTH",
"800 347 OFFCURVE",
"767 313 OFFCURVE",
"700 280 CURVE",
"500 200 LINE",
"433 200 OFFCURVE",
"400 233 OFFCURVE",
"400 300 CURVE SMOOTH",
"400 450 LINE SMOOTH",
"400 531 OFFCURVE",
"454 591 OFFCURVE",
"563 629 CURVE SMOOTH",
"725 685 LINE SMOOTH",
"942 760 OFFCURVE",
"1050 882 OFFCURVE",
"1050 1050 CURVE SMOOTH",
"1050 1200 LINE SMOOTH"
);
}
);
width = 1200;
}
);
note = uni17A7;
unicode = 17A7;
},
{
glyphname = uni17A8;
lastChange = "2021-04-15 12:05:58 +0000";
layers = (
{
layerId = "D08966C8-96EF-481A-BF9E-1465DF9248E1";
paths = (
{
closed = 1;
nodes = (
"950 1650 LINE SMOOTH",
"1017 1650 OFFCURVE",
"1050 1683 OFFCURVE",
"1050 1750 CURVE SMOOTH",
"1050 1817 OFFCURVE",
"1017 1850 OFFCURVE",
"950 1850 CURVE SMOOTH",
"250 1850 LINE SMOOTH",
"183 1850 OFFCURVE",
"150 1817 OFFCURVE",
"150 1750 CURVE SMOOTH",
"150 1683 OFFCURVE",
"183 1650 OFFCURVE",
"250 1650 CURVE SMOOTH"
);
},
{
closed = 1;
nodes = (
"1050 1400 OFFCURVE",
"933 1500 OFFCURVE",
"700 1500 CURVE SMOOTH",
"500 1500 LINE SMOOTH",
"267 1500 OFFCURVE",
"150 1400 OFFCURVE",
"150 1200 CURVE SMOOTH",
"150 1000 LINE SMOOTH",
"150 933 OFFCURVE",
"192 900 OFFCURVE",
"275 900 CURVE SMOOTH",
"358 900 OFFCURVE",
"400 933 OFFCURVE",
"400 1000 CURVE SMOOTH",
"400 1200 LINE SMOOTH",
"400 1267 OFFCURVE",
"433 1300 OFFCURVE",
"500 1300 CURVE SMOOTH",
"700 1300 LINE SMOOTH",
"767 1300 OFFCURVE",
"800 1267 OFFCURVE",
"800 1200 CURVE SMOOTH",
"800 1050 LINE SMOOTH",
"800 969 OFFCURVE",
"746 909 OFFCURVE",
"638 872 CURVE SMOOTH",
"475 815 LINE SMOOTH",
"258 740 OFFCURVE",
"150 618 OFFCURVE",
"150 450 CURVE SMOOTH",
"150 300 LINE SMOOTH",
"150 100 OFFCURVE",
"267 0 OFFCURVE",
"500 0 CURVE SMOOTH",
"550 0 OFFCURVE",
"594 8 OFFCURVE",
"631 24 CURVE SMOOTH",
"800 96 LINE",
"800 50 LINE SMOOTH",
"800 -17 OFFCURVE",
"842 -50 OFFCURVE",
"925 -50 CURVE SMOOTH",
"1008 -50 OFFCURVE",
"1050 -17 OFFCURVE",
"1050 50 CURVE SMOOTH",
"1050 500 LINE SMOOTH",
"1050 567 OFFCURVE",
"1008 600 OFFCURVE",
"925 600 CURVE SMOOTH",
"842 600 OFFCURVE",
"800 567 OFFCURVE",
"800 500 CURVE SMOOTH",
"800 380 LINE SMOOTH",
"800 347 OFFCURVE",
"767 313 OFFCURVE",
"700 280 CURVE",
"500 200 LINE",
"433 200 OFFCURVE",
"400 233 OFFCURVE",
"400 300 CURVE SMOOTH",
"400 450 LINE SMOOTH",
"400 531 OFFCURVE",
"454 591 OFFCURVE",
"563 629 CURVE SMOOTH",
"725 685 LINE SMOOTH",
"942 760 OFFCURVE",
"1050 882 OFFCURVE",
"1050 1050 CURVE SMOOTH",
"1050 1200 LINE SMOOTH"
);
}
);
width = 1200;
}
);
note = uni17A8;
unicode = 17A8;
},
{
glyphname = uni17A9;
lastChange = "2021-04-15 12:05:58 +0000";
layers = (
{
layerId = "D08966C8-96EF-481A-BF9E-1465DF9248E1";
paths = (
{
closed = 1;
nodes = (
"1050 1400 OFFCURVE",
"933 1500 OFFCURVE",
"700 1500 CURVE SMOOTH",
"500 1500 LINE SMOOTH",
"267 1500 OFFCURVE",
"150 1400 OFFCURVE",
"150 1200 CURVE SMOOTH",
"150 1000 LINE SMOOTH",
"150 933 OFFCURVE",
"192 900 OFFCURVE",
"275 900 CURVE SMOOTH",
"358 900 OFFCURVE",
"400 933 OFFCURVE",
"400 1000 CURVE SMOOTH",
"400 1200 LINE SMOOTH",
"400 1267 OFFCURVE",
"433 1300 OFFCURVE",
"500 1300 CURVE SMOOTH",
"700 1300 LINE SMOOTH",
"767 1300 OFFCURVE",
"800 1267 OFFCURVE",
"800 1200 CURVE SMOOTH",
"800 1050 LINE SMOOTH",
"800 969 OFFCURVE",
"746 909 OFFCURVE",
"638 872 CURVE SMOOTH",
"475 815 LINE SMOOTH",
"258 740 OFFCURVE",
"150 618 OFFCURVE",
"150 450 CURVE SMOOTH",
"150 300 LINE SMOOTH",
"150 100 OFFCURVE",
"267 0 OFFCURVE",
"500 0 CURVE SMOOTH",
"550 0 OFFCURVE",
"594 8 OFFCURVE",
"631 24 CURVE SMOOTH",
"800 96 LINE",
"800 50 LINE SMOOTH",
"800 -17 OFFCURVE",
"867 -50 OFFCURVE",
"1000 -50 CURVE",
"1000 600 LINE",
"867 600 OFFCURVE",
"800 567 OFFCURVE",
"800 500 CURVE SMOOTH",
"800 380 LINE SMOOTH",
"800 347 OFFCURVE",
"767 313 OFFCURVE",
"700 280 CURVE",
"500 200 LINE",
"433 200 OFFCURVE",
"400 233 OFFCURVE",
"400 300 CURVE SMOOTH",
"400 450 LINE SMOOTH",
"400 531 OFFCURVE",
"454 591 OFFCURVE",
"563 629 CURVE SMOOTH",
"725 685 LINE SMOOTH",
"942 760 OFFCURVE",
"1050 882 OFFCURVE",
"1050 1050 CURVE SMOOTH",
"1050 1200 LINE SMOOTH"
);
},
{
closed = 1;
nodes = (
"1158 -50 OFFCURVE",
"1200 -17 OFFCURVE",
"1200 50 CURVE SMOOTH",
"1200 500 LINE SMOOTH",
"1200 567 OFFCURVE",
"1158 600 OFFCURVE",
"1075 600 CURVE",
"1075 -50 LINE"
);
}
);
width = 1200;
}
);
note = uni17A9;
unicode = 17A9;
},
{
glyphname = uni17AA;
lastChange = "2021-04-15 12:05:58 +0000";
layers = (
{
layerId = "D08966C8-96EF-481A-BF9E-1465DF9248E1";
paths = (
{
closed = 1;
nodes = (
"1017 1650 OFFCURVE",
"1050 1683 OFFCURVE",
"1050 1750 CURVE SMOOTH",
"1050 1875 LINE SMOOTH",
"1050 1942 OFFCURVE",
"1008 1975 OFFCURVE",
"925 1975 CURVE SMOOTH",
"842 1975 OFFCURVE",
"800 1942 OFFCURVE",
"800 1875 CURVE SMOOTH",
"800 1850 LINE",
"250 1850 LINE SMOOTH",
"183 1850 OFFCURVE",
"150 1817 OFFCURVE",
"150 1750 CURVE SMOOTH",
"150 1683 OFFCURVE",
"183 1650 OFFCURVE",
"250 1650 CURVE SMOOTH",
"950 1650 LINE SMOOTH"
);
},
{
closed = 1;
nodes = (
"1050 1400 OFFCURVE",
"933 1500 OFFCURVE",
"700 1500 CURVE SMOOTH",
"500 1500 LINE SMOOTH",
"267 1500 OFFCURVE",
"150 1400 OFFCURVE",
"150 1200 CURVE SMOOTH",
"150 1000 LINE SMOOTH",
"150 933 OFFCURVE",
"192 900 OFFCURVE",
"275 900 CURVE SMOOTH",
"358 900 OFFCURVE",
"400 933 OFFCURVE",
"400 1000 CURVE SMOOTH",
"400 1200 LINE SMOOTH",
"400 1267 OFFCURVE",
"433 1300 OFFCURVE",
"500 1300 CURVE SMOOTH",
"700 1300 LINE SMOOTH",
"767 1300 OFFCURVE",
"800 1267 OFFCURVE",
"800 1200 CURVE SMOOTH",
"800 1050 LINE SMOOTH",
"800 969 OFFCURVE",
"746 909 OFFCURVE",
"638 872 CURVE SMOOTH",
"475 815 LINE SMOOTH",
"258 740 OFFCURVE",
"150 618 OFFCURVE",
"150 450 CURVE SMOOTH",
"150 300 LINE SMOOTH",
"150 100 OFFCURVE",
"267 0 OFFCURVE",
"500 0 CURVE SMOOTH",
"550 0 OFFCURVE",
"594 8 OFFCURVE",
"631 24 CURVE SMOOTH",
"800 96 LINE",
"800 50 LINE SMOOTH",
"800 -17 OFFCURVE",
"842 -50 OFFCURVE",
"925 -50 CURVE SMOOTH",
"1008 -50 OFFCURVE",
"1050 -17 OFFCURVE",
"1050 50 CURVE SMOOTH",
"1050 500 LINE SMOOTH",
"1050 567 OFFCURVE",
"1008 600 OFFCURVE",
"925 600 CURVE SMOOTH",
"842 600 OFFCURVE",
"800 567 OFFCURVE",
"800 500 CURVE SMOOTH",
"800 380 LINE SMOOTH",
"800 347 OFFCURVE",
"767 313 OFFCURVE",
"700 280 CURVE",
"500 200 LINE",
"433 200 OFFCURVE",
"400 233 OFFCURVE",
"400 300 CURVE SMOOTH",
"400 450 LINE SMOOTH",
"400 531 OFFCURVE",
"454 591 OFFCURVE",
"563 629 CURVE SMOOTH",
"725 685 LINE SMOOTH",
"942 760 OFFCURVE",
"1050 882 OFFCURVE",
"1050 1050 CURVE SMOOTH",
"1050 1200 LINE SMOOTH"
);
}
);
width = 1200;
}
);
note = uni17AA;
unicode = 17AA;
},
{
glyphname = uni17AB;
lastChange = "2021-04-15 12:05:58 +0000";
layers = (
{
layerId = "D08966C8-96EF-481A-BF9E-1465DF9248E1";
paths = (
{
closed = 1;
nodes = (
"150 100 OFFCURVE",
"267 0 OFFCURVE",
"500 0 CURVE SMOOTH",
"700 0 LINE SMOOTH",
"933 0 OFFCURVE",
"1050 100 OFFCURVE",
"1050 300 CURVE SMOOTH",
"1050 1400 LINE SMOOTH",
"1050 1467 OFFCURVE",
"1008 1500 OFFCURVE",
"925 1500 CURVE SMOOTH",
"842 1500 OFFCURVE",
"800 1467 OFFCURVE",
"800 1400 CURVE SMOOTH",
"800 300 LINE SMOOTH",
"800 233 OFFCURVE",
"767 200 OFFCURVE",
"700 200 CURVE SMOOTH",
"500 200 LINE SMOOTH",
"433 200 OFFCURVE",
"400 233 OFFCURVE",
"400 300 CURVE SMOOTH",
"400 1400 LINE SMOOTH",
"400 1467 OFFCURVE",
"358 1500 OFFCURVE",
"275 1500 CURVE SMOOTH",
"192 1500 OFFCURVE",
"150 1467 OFFCURVE",
"150 1400 CURVE SMOOTH",
"150 300 LINE SMOOTH"
);
},
{
closed = 1;
nodes = (
"150 -667 OFFCURVE",
"183 -700 OFFCURVE",
"250 -700 CURVE SMOOTH",
"450 -700 LINE SMOOTH",
"850 -700 OFFCURVE",
"1050 -583 OFFCURVE",
"1050 -350 CURVE SMOOTH",
"1050 -183 OFFCURVE",
"1000 -100 OFFCURVE",
"900 -100 CURVE SMOOTH",
"700 -100 LINE SMOOTH",
"633 -100 OFFCURVE",
"600 -133 OFFCURVE",
"600 -200 CURVE SMOOTH",
"600 -267 OFFCURVE",
"633 -300 OFFCURVE",
"700 -300 CURVE SMOOTH",
"767 -300 OFFCURVE",
"800 -317 OFFCURVE",
"800 -350 CURVE SMOOTH",
"800 -450 OFFCURVE",
"683 -500 OFFCURVE",
"450 -500 CURVE SMOOTH",
"250 -500 LINE SMOOTH",
"183 -500 OFFCURVE",
"150 -533 OFFCURVE",
"150 -600 CURVE SMOOTH"
);
}
);
width = 1200;
}
);
note = uni17AB;
unicode = 17AB;
},
{
glyphname = uni17AC;
lastChange = "2021-04-15 12:05:58 +0000";
layers = (
{
layerId = "D08966C8-96EF-481A-BF9E-1465DF9248E1";
paths = (
{
closed = 1;
nodes = (
"150 100 OFFCURVE",
"267 0 OFFCURVE",
"500 0 CURVE SMOOTH",
"700 0 LINE SMOOTH",
"933 0 OFFCURVE",
"1050 100 OFFCURVE",
"1050 300 CURVE SMOOTH",
"1050 1400 LINE SMOOTH",
"1050 1467 OFFCURVE",
"1008 1500 OFFCURVE",
"925 1500 CURVE SMOOTH",
"842 1500 OFFCURVE",
"800 1467 OFFCURVE",
"800 1400 CURVE SMOOTH",
"800 300 LINE SMOOTH",
"800 233 OFFCURVE",
"767 200 OFFCURVE",
"700 200 CURVE SMOOTH",
"500 200 LINE SMOOTH",
"433 200 OFFCURVE",
"400 233 OFFCURVE",
"400 300 CURVE SMOOTH",
"400 1400 LINE SMOOTH",
"400 1467 OFFCURVE",
"358 1500 OFFCURVE",
"275 1500 CURVE SMOOTH",
"192 1500 OFFCURVE",
"150 1467 OFFCURVE",
"150 1400 CURVE SMOOTH",
"150 300 LINE SMOOTH"
);
},
{
closed = 1;
nodes = (
"1042 -438 OFFCURVE",
"1050 -396 OFFCURVE",
"1050 -350 CURVE SMOOTH",
"1050 -183 OFFCURVE",
"1000 -100 OFFCURVE",
"900 -100 CURVE SMOOTH",
"700 -100 LINE SMOOTH",
"633 -100 OFFCURVE",
"600 -133 OFFCURVE",
"600 -200 CURVE SMOOTH",
"600 -267 OFFCURVE",
"633 -300 OFFCURVE",
"700 -300 CURVE SMOOTH",
"767 -300 OFFCURVE",
"800 -317 OFFCURVE",
"800 -350 CURVE SMOOTH",
"800 -450 OFFCURVE",
"683 -500 OFFCURVE",
"450 -500 CURVE SMOOTH",
"250 -500 LINE SMOOTH",
"183 -500 OFFCURVE",
"150 -533 OFFCURVE",
"150 -600 CURVE SMOOTH",
"150 -667 OFFCURVE",
"183 -700 OFFCURVE",
"250 -700 CURVE SMOOTH",
"450 -700 LINE SMOOTH",
"637 -700 OFFCURVE",
"781 -674 OFFCURVE",
"880 -623 CURVE",
"935 -674 OFFCURVE",
"1009 -700 OFFCURVE",
"1100 -700 CURVE SMOOTH",
"1167 -700 OFFCURVE",
"1200 -667 OFFCURVE",
"1200 -600 CURVE SMOOTH",
"1200 -533 OFFCURVE",
"1167 -500 OFFCURVE",
"1100 -500 CURVE SMOOTH",
"1071 -500 OFFCURVE",
"1047 -492 OFFCURVE",
"1026 -475 CURVE"
);
}
);
width = 1200;
}
);
note = uni17AC;
unicode = 17AC;
},
{
glyphname = uni17AD;
lastChange = "2021-04-15 12:05:58 +0000";
layers = (
{
layerId = "D08966C8-96EF-481A-BF9E-1465DF9248E1";
paths = (
{
closed = 1;
nodes = (
"1050 1467 OFFCURVE",
"992 1500 OFFCURVE",
"875 1500 CURVE SMOOTH",
"825 1500 OFFCURVE",
"767 1467 OFFCURVE",
"700 1402 CURVE SMOOTH",
"600 1304 LINE",
"500 1402 LINE SMOOTH",
"433 1467 OFFCURVE",
"375 1500 OFFCURVE",
"325 1500 CURVE SMOOTH",
"208 1500 OFFCURVE",
"150 1467 OFFCURVE",
"150 1400 CURVE SMOOTH",
"150 100 LINE SMOOTH",
"150 33 OFFCURVE",
"200 0 OFFCURVE",
"300 0 CURVE SMOOTH",
"450 0 LINE SMOOTH",
"517 0 OFFCURVE",
"550 33 OFFCURVE",
"550 100 CURVE SMOOTH",
"550 167 OFFCURVE",
"517 200 OFFCURVE",
"450 200 CURVE SMOOTH",
"400 200 LINE",
"400 1237 LINE",
"600 1061 LINE",
"800 1237 LINE",
"800 100 LINE SMOOTH",
"800 33 OFFCURVE",
"842 0 OFFCURVE",
"925 0 CURVE SMOOTH",
"1008 0 OFFCURVE",
"1050 33 OFFCURVE",
"1050 100 CURVE SMOOTH",
"1050 1400 LINE SMOOTH"
);
},
{
closed = 1;
nodes = (
"150 -667 OFFCURVE",
"183 -700 OFFCURVE",
"250 -700 CURVE SMOOTH",
"450 -700 LINE SMOOTH",
"850 -700 OFFCURVE",
"1050 -583 OFFCURVE",
"1050 -350 CURVE SMOOTH",
"1050 -183 OFFCURVE",
"1000 -100 OFFCURVE",
"900 -100 CURVE SMOOTH",
"700 -100 LINE SMOOTH",
"633 -100 OFFCURVE",
"600 -133 OFFCURVE",
"600 -200 CURVE SMOOTH",
"600 -267 OFFCURVE",
"633 -300 OFFCURVE",
"700 -300 CURVE SMOOTH",
"767 -300 OFFCURVE",
"800 -317 OFFCURVE",
"800 -350 CURVE SMOOTH",
"800 -450 OFFCURVE",
"683 -500 OFFCURVE",
"450 -500 CURVE SMOOTH",
"250 -500 LINE SMOOTH",
"183 -500 OFFCURVE",
"150 -533 OFFCURVE",
"150 -600 CURVE SMOOTH"
);
}
);
width = 1200;
}
);
note = uni17AD;
unicode = 17AD;
},
{
glyphname = uni17AE;
lastChange = "2021-04-15 12:05:58 +0000";
layers = (
{
layerId = "D08966C8-96EF-481A-BF9E-1465DF9248E1";
paths = (
{
closed = 1;
nodes = (
"1050 1467 OFFCURVE",
"992 1500 OFFCURVE",
"875 1500 CURVE SMOOTH",
"825 1500 OFFCURVE",
"767 1467 OFFCURVE",
"700 1402 CURVE SMOOTH",
"600 1304 LINE",
"500 1402 LINE SMOOTH",
"433 1467 OFFCURVE",
"375 1500 OFFCURVE",
"325 1500 CURVE SMOOTH",
"208 1500 OFFCURVE",
"150 1467 OFFCURVE",
"150 1400 CURVE SMOOTH",
"150 100 LINE SMOOTH",
"150 33 OFFCURVE",
"200 0 OFFCURVE",
"300 0 CURVE SMOOTH",
"450 0 LINE SMOOTH",
"517 0 OFFCURVE",
"550 33 OFFCURVE",
"550 100 CURVE SMOOTH",
"550 167 OFFCURVE",
"517 200 OFFCURVE",
"450 200 CURVE SMOOTH",
"400 200 LINE",
"400 1237 LINE",
"600 1061 LINE",
"800 1237 LINE",
"800 100 LINE SMOOTH",
"800 33 OFFCURVE",
"842 0 OFFCURVE",
"925 0 CURVE SMOOTH",
"1008 0 OFFCURVE",
"1050 33 OFFCURVE",
"1050 100 CURVE SMOOTH",
"1050 1400 LINE SMOOTH"
);
},
{
closed = 1;
nodes = (
"1042 -438 OFFCURVE",
"1050 -396 OFFCURVE",
"1050 -350 CURVE SMOOTH",
"1050 -183 OFFCURVE",
"1000 -100 OFFCURVE",
"900 -100 CURVE SMOOTH",
"700 -100 LINE SMOOTH",
"633 -100 OFFCURVE",
"600 -133 OFFCURVE",
"600 -200 CURVE SMOOTH",
"600 -267 OFFCURVE",
"633 -300 OFFCURVE",
"700 -300 CURVE SMOOTH",
"767 -300 OFFCURVE",
"800 -317 OFFCURVE",
"800 -350 CURVE SMOOTH",
"800 -450 OFFCURVE",
"683 -500 OFFCURVE",
"450 -500 CURVE SMOOTH",
"250 -500 LINE SMOOTH",
"183 -500 OFFCURVE",
"150 -533 OFFCURVE",
"150 -600 CURVE SMOOTH",
"150 -667 OFFCURVE",
"183 -700 OFFCURVE",
"250 -700 CURVE SMOOTH",
"450 -700 LINE SMOOTH",
"637 -700 OFFCURVE",
"781 -674 OFFCURVE",
"880 -623 CURVE",
"935 -674 OFFCURVE",
"1009 -700 OFFCURVE",
"1100 -700 CURVE SMOOTH",
"1167 -700 OFFCURVE",
"1200 -667 OFFCURVE",
"1200 -600 CURVE SMOOTH",
"1200 -533 OFFCURVE",
"1167 -500 OFFCURVE",
"1100 -500 CURVE SMOOTH",
"1071 -500 OFFCURVE",
"1047 -492 OFFCURVE",
"1026 -475 CURVE"
);
}
);
width = 1200;
}
);
note = uni17AE;
unicode = 17AE;
},
{
glyphname = uni17AF;
lastChange = "2021-04-15 12:05:58 +0000";
layers = (
{
layerId = "D08966C8-96EF-481A-BF9E-1465DF9248E1";
paths = (
{
closed = 1;
nodes = (
"1050 1400 OFFCURVE",
"933 1500 OFFCURVE",
"700 1500 CURVE SMOOTH",
"500 1500 LINE SMOOTH",
"478 1500 OFFCURVE",
"445 1497 OFFCURVE",
"400 1490 CURVE",
"400 1750 LINE SMOOTH",
"400 1817 OFFCURVE",
"358 1850 OFFCURVE",
"275 1850 CURVE SMOOTH",
"192 1850 OFFCURVE",
"150 1817 OFFCURVE",
"150 1750 CURVE SMOOTH",
"150 1300 LINE SMOOTH",
"150 1233 OFFCURVE",
"192 1200 OFFCURVE",
"275 1200 CURVE SMOOTH",
"358 1200 OFFCURVE",
"400 1217 OFFCURVE",
"400 1250 CURVE SMOOTH",
"400 1283 OFFCURVE",
"433 1300 OFFCURVE",
"500 1300 CURVE SMOOTH",
"700 1300 LINE SMOOTH",
"767 1300 OFFCURVE",
"800 1267 OFFCURVE",
"800 1200 CURVE SMOOTH",
"800 263 LINE",
"600 439 LINE",
"400 263 LINE",
"400 900 LINE SMOOTH",
"400 967 OFFCURVE",
"358 1000 OFFCURVE",
"275 1000 CURVE SMOOTH",
"192 1000 OFFCURVE",
"150 967 OFFCURVE",
"150 900 CURVE SMOOTH",
"150 100 LINE SMOOTH",
"150 33 OFFCURVE",
"208 0 OFFCURVE",
"325 0 CURVE SMOOTH",
"375 0 OFFCURVE",
"433 33 OFFCURVE",
"500 98 CURVE SMOOTH",
"600 196 LINE",
"700 98 LINE SMOOTH",
"767 33 OFFCURVE",
"825 0 OFFCURVE",
"875 0 CURVE SMOOTH",
"992 0 OFFCURVE",
"1050 33 OFFCURVE",
"1050 100 CURVE SMOOTH",
"1050 1200 LINE SMOOTH"
);
}
);
width = 1200;
}
);
note = uni17AF;
unicode = 17AF;
},
{
glyphname = uni17B0;
lastChange = "2021-04-15 12:05:58 +0000";
layers = (
{
layerId = "D08966C8-96EF-481A-BF9E-1465DF9248E1";
paths = (
{
closed = 1;
nodes = (
"1050 1467 OFFCURVE",
"992 1500 OFFCURVE",
"875 1500 CURVE SMOOTH",
"825 1500 OFFCURVE",
"767 1467 OFFCURVE",
"700 1402 CURVE SMOOTH",
"600 1304 LINE",
"500 1402 LINE SMOOTH",
"433 1467 OFFCURVE",
"375 1500 OFFCURVE",
"325 1500 CURVE SMOOTH",
"208 1500 OFFCURVE",
"150 1467 OFFCURVE",
"150 1400 CURVE SMOOTH",
"150 100 LINE SMOOTH",
"150 33 OFFCURVE",
"200 0 OFFCURVE",
"300 0 CURVE SMOOTH",
"450 0 LINE SMOOTH",
"517 0 OFFCURVE",
"550 33 OFFCURVE",
"550 100 CURVE SMOOTH",
"550 167 OFFCURVE",
"517 200 OFFCURVE",
"450 200 CURVE SMOOTH",
"400 200 LINE",
"400 1237 LINE",
"600 1061 LINE",
"800 1237 LINE",
"800 100 LINE SMOOTH",
"800 33 OFFCURVE",
"842 0 OFFCURVE",
"925 0 CURVE SMOOTH",
"1008 0 OFFCURVE",
"1050 33 OFFCURVE",
"1050 100 CURVE SMOOTH",
"1050 1400 LINE SMOOTH"
);
},
{
closed = 1;
nodes = (
"1050 -83 OFFCURVE",
"1008 -50 OFFCURVE",
"925 -50 CURVE SMOOTH",
"842 -50 OFFCURVE",
"776 -67 OFFCURVE",
"728 -102 CURVE SMOOTH",
"585 -207 OFFCURVE",
"422 -270 OFFCURVE",
"241 -290 CURVE SMOOTH",
"180 -297 OFFCURVE",
"150 -333 OFFCURVE",
"150 -400 CURVE SMOOTH",
"150 -500 LINE SMOOTH",
"150 -633 OFFCURVE",
"214 -700 OFFCURVE",
"342 -700 CURVE SMOOTH",
"471 -700 OFFCURVE",
"562 -660 OFFCURVE",
"615 -580 CURVE",
"665 -627 OFFCURVE",
"735 -650 OFFCURVE",
"825 -650 CURVE SMOOTH",
"975 -650 OFFCURVE",
"1050 -567 OFFCURVE",
"1050 -400 CURVE SMOOTH",
"1050 -150 LINE SMOOTH"
);
},
{
closed = 1;
nodes = (
"670 -290 OFFCURVE",
"733 -250 OFFCURVE",
"800 -203 CURVE",
"800 -370 LINE SMOOTH",
"800 -423 OFFCURVE",
"780 -450 OFFCURVE",
"740 -450 CURVE SMOOTH",
"699 -450 OFFCURVE",
"657 -407 OFFCURVE",
"612 -322 CURVE"
);
},
{
closed = 1;
nodes = (
"533 -448 OFFCURVE",
"491 -500 OFFCURVE",
"447 -500 CURVE SMOOTH",
"416 -500 OFFCURVE",
"400 -484 OFFCURVE",
"400 -452 CURVE SMOOTH",
"400 -404 LINE",
"447 -398 OFFCURVE",
"505 -378 OFFCURVE",
"573 -343 CURVE"
);
}
);
width = 1200;
}
);
note = uni17B0;
unicode = 17B0;
},
{
glyphname = uni17B1;
lastChange = "2021-04-15 12:05:58 +0000";
layers = (
{
layerId = "D08966C8-96EF-481A-BF9E-1465DF9248E1";
paths = (
{
closed = 1;
nodes = (
"183 1855 OFFCURVE",
"150 1822 OFFCURVE",
"150 1755 CURVE SMOOTH",
"150 1688 OFFCURVE",
"183 1655 OFFCURVE",
"250 1655 CURVE SMOOTH",
"800 1655 LINE",
"800 1630 LINE SMOOTH",
"800 1563 OFFCURVE",
"842 1530 OFFCURVE",
"925 1530 CURVE SMOOTH",
"1008 1530 OFFCURVE",
"1050 1563 OFFCURVE",
"1050 1630 CURVE SMOOTH",
"1050 1755 LINE SMOOTH",
"1050 1822 OFFCURVE",
"1017 1855 OFFCURVE",
"950 1855 CURVE SMOOTH",
"250 1855 LINE SMOOTH"
);
},
{
closed = 1;
nodes = (
"1050 1400 OFFCURVE",
"933 1500 OFFCURVE",
"700 1500 CURVE SMOOTH",
"500 1500 LINE SMOOTH",
"267 1500 OFFCURVE",
"150 1400 OFFCURVE",
"150 1200 CURVE SMOOTH",
"150 1000 LINE SMOOTH",
"150 933 OFFCURVE",
"192 900 OFFCURVE",
"275 900 CURVE SMOOTH",
"358 900 OFFCURVE",
"400 933 OFFCURVE",
"400 1000 CURVE SMOOTH",
"400 1200 LINE SMOOTH",
"400 1267 OFFCURVE",
"433 1300 OFFCURVE",
"500 1300 CURVE SMOOTH",
"700 1300 LINE SMOOTH",
"767 1300 OFFCURVE",
"800 1267 OFFCURVE",
"800 1200 CURVE SMOOTH",
"800 1050 LINE SMOOTH",
"800 969 OFFCURVE",
"746 909 OFFCURVE",
"638 872 CURVE SMOOTH",
"475 815 LINE SMOOTH",
"258 740 OFFCURVE",
"150 618 OFFCURVE",
"150 450 CURVE SMOOTH",
"150 300 LINE SMOOTH",
"150 100 OFFCURVE",
"267 0 OFFCURVE",
"500 0 CURVE SMOOTH",
"550 0 OFFCURVE",
"594 8 OFFCURVE",
"631 24 CURVE SMOOTH",
"800 96 LINE",
"800 50 LINE SMOOTH",
"800 -17 OFFCURVE",
"842 -50 OFFCURVE",
"925 -50 CURVE SMOOTH",
"1008 -50 OFFCURVE",
"1050 -17 OFFCURVE",
"1050 50 CURVE SMOOTH",
"1050 500 LINE SMOOTH",
"1050 567 OFFCURVE",
"1008 600 OFFCURVE",
"925 600 CURVE SMOOTH",
"842 600 OFFCURVE",
"800 567 OFFCURVE",
"800 500 CURVE SMOOTH",
"800 380 LINE SMOOTH",
"800 347 OFFCURVE",
"767 313 OFFCURVE",
"700 280 CURVE",
"500 200 LINE",
"433 200 OFFCURVE",
"400 233 OFFCURVE",
"400 300 CURVE SMOOTH",
"400 450 LINE SMOOTH",
"400 531 OFFCURVE",
"454 591 OFFCURVE",
"563 629 CURVE SMOOTH",
"725 685 LINE SMOOTH",
"942 760 OFFCURVE",
"1050 882 OFFCURVE",
"1050 1050 CURVE SMOOTH",
"1050 1200 LINE SMOOTH"
);
}
);
width = 1200;
}
);
note = uni17B1;
unicode = 17B1;
},
{
glyphname = uni17B2;
lastChange = "2021-04-15 12:05:58 +0000";
layers = (
{
layerId = "D08966C8-96EF-481A-BF9E-1465DF9248E1";
paths = (
{
closed = 1;
nodes = (
"800 233 OFFCURVE",
"767 200 OFFCURVE",
"700 200 CURVE SMOOTH",
"500 200 LINE SMOOTH",
"433 200 OFFCURVE",
"400 233 OFFCURVE",
"400 300 CURVE SMOOTH",
"400 1200 LINE SMOOTH",
"400 1267 OFFCURVE",
"433 1300 OFFCURVE",
"500 1300 CURVE SMOOTH",
"700 1300 LINE SMOOTH",
"767 1300 OFFCURVE",
"800 1267 OFFCURVE",
"800 1200 CURVE SMOOTH",
"800 1133 OFFCURVE",
"842 1100 OFFCURVE",
"925 1100 CURVE SMOOTH",
"1008 1100 OFFCURVE",
"1050 1133 OFFCURVE",
"1050 1200 CURVE SMOOTH",
"1050 1400 OFFCURVE",
"933 1500 OFFCURVE",
"700 1500 CURVE SMOOTH",
"500 1500 LINE SMOOTH",
"267 1500 OFFCURVE",
"150 1400 OFFCURVE",
"150 1200 CURVE SMOOTH",
"150 300 LINE SMOOTH",
"150 100 OFFCURVE",
"267 0 OFFCURVE",
"500 0 CURVE SMOOTH",
"700 0 LINE SMOOTH",
"933 0 OFFCURVE",
"1050 100 OFFCURVE",
"1050 300 CURVE SMOOTH",
"1050 400 LINE SMOOTH",
"1050 487 OFFCURVE",
"1000 547 OFFCURVE",
"900 580 CURVE",
"1000 605 OFFCURVE",
"1050 671 OFFCURVE",
"1050 780 CURVE SMOOTH",
"1050 940 OFFCURVE",
"968 1020 OFFCURVE",
"805 1020 CURVE SMOOTH",
"700 1020 LINE SMOOTH",
"633 1020 OFFCURVE",
"600 987 OFFCURVE",
"600 920 CURVE SMOOTH",
"600 853 OFFCURVE",
"633 820 OFFCURVE",
"700 820 CURVE SMOOTH",
"767 820 OFFCURVE",
"800 807 OFFCURVE",
"800 780 CURVE SMOOTH",
"800 749 OFFCURVE",
"767 719 OFFCURVE",
"700 692 CURVE SMOOTH",
"633 664 OFFCURVE",
"600 625 OFFCURVE",
"600 575 CURVE SMOOTH",
"600 525 OFFCURVE",
"633 500 OFFCURVE",
"700 500 CURVE SMOOTH",
"767 500 OFFCURVE",
"800 467 OFFCURVE",
"800 400 CURVE SMOOTH",
"800 300 LINE SMOOTH"
);
}
);
width = 1200;
}
);
note = uni17B2;
unicode = 17B2;
},
{
glyphname = uni17B3;
lastChange = "2021-04-15 12:05:58 +0000";
layers = (
{
layerId = "D08966C8-96EF-481A-BF9E-1465DF9248E1";
paths = (
{
closed = 1;
nodes = (
"1017 1655 OFFCURVE",
"1050 1688 OFFCURVE",
"1050 1755 CURVE SMOOTH",
"1050 1880 LINE SMOOTH",
"1050 1947 OFFCURVE",
"1008 1980 OFFCURVE",
"925 1980 CURVE SMOOTH",
"842 1980 OFFCURVE",
"800 1947 OFFCURVE",
"800 1880 CURVE SMOOTH",
"800 1855 LINE",
"250 1855 LINE SMOOTH",
"183 1855 OFFCURVE",
"150 1822 OFFCURVE",
"150 1755 CURVE SMOOTH",
"150 1630 LINE SMOOTH",
"150 1563 OFFCURVE",
"192 1530 OFFCURVE",
"275 1530 CURVE SMOOTH",
"358 1530 OFFCURVE",
"400 1563 OFFCURVE",
"400 1630 CURVE SMOOTH",
"400 1655 LINE",
"950 1655 LINE SMOOTH"
);
},
{
closed = 1;
nodes = (
"1050 1400 OFFCURVE",
"933 1500 OFFCURVE",
"700 1500 CURVE SMOOTH",
"500 1500 LINE SMOOTH",
"267 1500 OFFCURVE",
"150 1400 OFFCURVE",
"150 1200 CURVE SMOOTH",
"150 1000 LINE SMOOTH",
"150 933 OFFCURVE",
"192 900 OFFCURVE",
"275 900 CURVE SMOOTH",
"358 900 OFFCURVE",
"400 933 OFFCURVE",
"400 1000 CURVE SMOOTH",
"400 1200 LINE SMOOTH",
"400 1267 OFFCURVE",
"433 1300 OFFCURVE",
"500 1300 CURVE SMOOTH",
"700 1300 LINE SMOOTH",
"767 1300 OFFCURVE",
"800 1267 OFFCURVE",
"800 1200 CURVE SMOOTH",
"800 1050 LINE SMOOTH",
"800 969 OFFCURVE",
"746 909 OFFCURVE",
"638 872 CURVE SMOOTH",
"475 815 LINE SMOOTH",
"258 740 OFFCURVE",
"150 618 OFFCURVE",
"150 450 CURVE SMOOTH",
"150 300 LINE SMOOTH",
"150 100 OFFCURVE",
"267 0 OFFCURVE",
"500 0 CURVE SMOOTH",
"550 0 OFFCURVE",
"594 8 OFFCURVE",
"631 24 CURVE SMOOTH",
"800 96 LINE",
"800 50 LINE SMOOTH",
"800 -17 OFFCURVE",
"842 -50 OFFCURVE",
"925 -50 CURVE SMOOTH",
"1008 -50 OFFCURVE",
"1050 -17 OFFCURVE",
"1050 50 CURVE SMOOTH",
"1050 500 LINE SMOOTH",
"1050 567 OFFCURVE",
"1008 600 OFFCURVE",
"925 600 CURVE SMOOTH",
"842 600 OFFCURVE",
"800 567 OFFCURVE",
"800 500 CURVE SMOOTH",
"800 380 LINE SMOOTH",
"800 347 OFFCURVE",
"767 313 OFFCURVE",
"700 280 CURVE",
"500 200 LINE",
"433 200 OFFCURVE",
"400 233 OFFCURVE",
"400 300 CURVE SMOOTH",
"400 450 LINE SMOOTH",
"400 531 OFFCURVE",
"454 591 OFFCURVE",
"563 629 CURVE SMOOTH",
"725 685 LINE SMOOTH",
"942 760 OFFCURVE",
"1050 882 OFFCURVE",
"1050 1050 CURVE SMOOTH",
"1050 1200 LINE SMOOTH"
);
}
);
width = 1200;
}
);
note = uni17B3;
unicode = 17B3;
},
{
glyphname = uni17A3;
lastChange = "2021-04-15 12:05:58 +0000";
layers = (
{
layerId = "D08966C8-96EF-481A-BF9E-1465DF9248E1";
paths = (
{
closed = 1;
nodes = (
"150 217 OFFCURVE",
"133 200 OFFCURVE",
"100 200 CURVE SMOOTH",
"33 200 OFFCURVE",
"0 167 OFFCURVE",
"0 100 CURVE SMOOTH",
"0 33 OFFCURVE",
"33 0 OFFCURVE",
"100 0 CURVE SMOOTH",
"250 0 LINE SMOOTH",
"350 0 OFFCURVE",
"400 33 OFFCURVE",
"400 100 CURVE SMOOTH",
"400 1400 LINE SMOOTH",
"400 1467 OFFCURVE",
"358 1500 OFFCURVE",
"275 1500 CURVE SMOOTH",
"192 1500 OFFCURVE",
"150 1467 OFFCURVE",
"150 1400 CURVE SMOOTH",
"150 250 LINE SMOOTH"
);
},
{
closed = 1;
nodes = (
"800 217 OFFCURVE",
"783 200 OFFCURVE",
"750 200 CURVE SMOOTH",
"683 200 OFFCURVE",
"650 167 OFFCURVE",
"650 100 CURVE SMOOTH",
"650 33 OFFCURVE",
"683 0 OFFCURVE",
"750 0 CURVE SMOOTH",
"900 0 LINE SMOOTH",
"1000 0 OFFCURVE",
"1050 33 OFFCURVE",
"1050 100 CURVE SMOOTH",
"1050 1400 LINE SMOOTH",
"1050 1467 OFFCURVE",
"1008 1500 OFFCURVE",
"925 1500 CURVE SMOOTH",
"842 1500 OFFCURVE",
"800 1467 OFFCURVE",
"800 1400 CURVE SMOOTH",
"800 850 LINE",
"550 850 LINE SMOOTH",
"483 850 OFFCURVE",
"450 817 OFFCURVE",
"450 750 CURVE SMOOTH",
"450 683 OFFCURVE",
"483 650 OFFCURVE",
"550 650 CURVE SMOOTH",
"800 650 LINE",
"800 250 LINE SMOOTH"
);
}
);
width = 1200;
}
);
note = uni17A3;
unicode = 17A3;
},
{
glyphname = uni17A4;
lastChange = "2021-04-15 12:05:58 +0000";
layers = (
{
layerId = "D08966C8-96EF-481A-BF9E-1465DF9248E1";
paths = (
{
closed = 1;
nodes = (
"150 217 OFFCURVE",
"133 200 OFFCURVE",
"100 200 CURVE SMOOTH",
"33 200 OFFCURVE",
"0 167 OFFCURVE",
"0 100 CURVE SMOOTH",
"0 33 OFFCURVE",
"33 0 OFFCURVE",
"100 0 CURVE SMOOTH",
"250 0 LINE SMOOTH",
"350 0 OFFCURVE",
"400 33 OFFCURVE",
"400 100 CURVE SMOOTH",
"400 1400 LINE SMOOTH",
"400 1467 OFFCURVE",
"358 1500 OFFCURVE",
"275 1500 CURVE SMOOTH",
"192 1500 OFFCURVE",
"150 1467 OFFCURVE",
"150 1400 CURVE SMOOTH",
"150 250 LINE SMOOTH"
);
},
{
closed = 1;
nodes = (
"800 217 OFFCURVE",
"783 200 OFFCURVE",
"750 200 CURVE SMOOTH",
"683 200 OFFCURVE",
"650 167 OFFCURVE",
"650 100 CURVE SMOOTH",
"650 33 OFFCURVE",
"683 0 OFFCURVE",
"750 0 CURVE SMOOTH",
"900 0 LINE SMOOTH",
"1000 0 OFFCURVE",
"1050 33 OFFCURVE",
"1050 100 CURVE SMOOTH",
"1050 1400 LINE SMOOTH",
"1050 1467 OFFCURVE",
"1008 1500 OFFCURVE",
"925 1500 CURVE SMOOTH",
"842 1500 OFFCURVE",
"800 1467 OFFCURVE",
"800 1400 CURVE SMOOTH",
"800 850 LINE",
"550 850 LINE SMOOTH",
"483 850 OFFCURVE",
"450 817 OFFCURVE",
"450 750 CURVE SMOOTH",
"450 683 OFFCURVE",
"483 650 OFFCURVE",
"550 650 CURVE SMOOTH",
"800 650 LINE",
"800 250 LINE SMOOTH"
);
},
{
closed = 1;
nodes = (
"1608 0 OFFCURVE",
"1650 33 OFFCURVE",
"1650 100 CURVE SMOOTH",
"1650 1200 LINE SMOOTH",
"1650 1400 OFFCURVE",
"1530 1500 OFFCURVE",
"1290 1500 CURVE SMOOTH",
"1200 1500 LINE SMOOTH",
"1133 1500 OFFCURVE",
"1100 1467 OFFCURVE",
"1100 1400 CURVE SMOOTH",
"1100 1333 OFFCURVE",
"1133 1300 OFFCURVE",
"1200 1300 CURVE SMOOTH",
"1290 1300 LINE SMOOTH",
"1363 1300 OFFCURVE",
"1400 1267 OFFCURVE",
"1400 1200 CURVE SMOOTH",
"1400 100 LINE SMOOTH",
"1400 33 OFFCURVE",
"1442 0 OFFCURVE",
"1525 0 CURVE SMOOTH"
);
}
);
width = 1800;
}
);
note = uni17A4;
unicode = 17A4;
},
{
glyphname = uni17B6;
lastChange = "2021-04-15 12:05:58 +0000";
layers = (
{
layerId = "D08966C8-96EF-481A-BF9E-1465DF9248E1";
paths = (
{
closed = 1;
nodes = (
"358 0 OFFCURVE",
"400 33 OFFCURVE",
"400 100 CURVE SMOOTH",
"400 1200 LINE SMOOTH",
"400 1400 OFFCURVE",
"280 1500 OFFCURVE",
"40 1500 CURVE SMOOTH",
"0 1500 LINE SMOOTH",
"-67 1500 OFFCURVE",
"-100 1467 OFFCURVE",
"-100 1400 CURVE SMOOTH",
"-100 1333 OFFCURVE",
"-67 1300 OFFCURVE",
"0 1300 CURVE SMOOTH",
"40 1300 LINE SMOOTH",
"113 1300 OFFCURVE",
"150 1267 OFFCURVE",
"150 1200 CURVE SMOOTH",
"150 100 LINE SMOOTH",
"150 33 OFFCURVE",
"192 0 OFFCURVE",
"275 0 CURVE SMOOTH"
);
}
);
width = 550;
}
);
note = uni17B6;
unicode = 17B6;
},
{
glyphname = uni17BF;
lastChange = "2021-04-15 12:05:58 +0000";
layers = (
{
layerId = "D08966C8-96EF-481A-BF9E-1465DF9248E1";
paths = (
{
closed = 1;
nodes = (
"250 2125 OFFCURVE",
"225 2150 OFFCURVE",
"175 2150 CURVE SMOOTH",
"125 2150 OFFCURVE",
"100 2125 OFFCURVE",
"100 2075 CURVE SMOOTH",
"100 1930 LINE",
"66 1948 OFFCURVE",
"33 1962 OFFCURVE",
"0 1973 CURVE",
"0 2075 LINE SMOOTH",
"0 2125 OFFCURVE",
"-25 2150 OFFCURVE",
"-75 2150 CURVE SMOOTH",
"-125 2150 OFFCURVE",
"-150 2125 OFFCURVE",
"-150 2075 CURVE SMOOTH",
"-150 2000 LINE",
"-500 2000 LINE SMOOTH",
"-567 2000 OFFCURVE",
"-600 1967 OFFCURVE",
"-600 1900 CURVE SMOOTH",
"-600 1850 LINE SMOOTH",
"-600 1783 OFFCURVE",
"-567 1750 OFFCURVE",
"-500 1750 CURVE SMOOTH",
"0 1750 LINE SMOOTH",
"100 1750 OFFCURVE",
"150 1717 OFFCURVE",
"150 1650 CURVE SMOOTH",
"150 -400 LINE SMOOTH",
"150 -467 OFFCURVE",
"100 -500 OFFCURVE",
"0 -500 CURVE SMOOTH",
"-100 -500 OFFCURVE",
"-150 -467 OFFCURVE",
"-150 -400 CURVE SMOOTH",
"-150 -200 LINE SMOOTH",
"-150 -133 OFFCURVE",
"-192 -100 OFFCURVE",
"-275 -100 CURVE SMOOTH",
"-358 -100 OFFCURVE",
"-400 -133 OFFCURVE",
"-400 -200 CURVE SMOOTH",
"-400 -400 LINE SMOOTH",
"-400 -600 OFFCURVE",
"-267 -700 OFFCURVE",
"0 -700 CURVE SMOOTH",
"267 -700 OFFCURVE",
"400 -600 OFFCURVE",
"400 -400 CURVE SMOOTH",
"400 1650 LINE SMOOTH",
"400 1720 OFFCURVE",
"350 1786 OFFCURVE",
"250 1848 CURVE",
"250 2075 LINE SMOOTH"
);
}
);
width = 550;
}
);
note = uni17BF;
unicode = 17BF;
},
{
glyphname = uni17C0;
lastChange = "2021-04-15 12:05:58 +0000";
layers = (
{
layerId = "D08966C8-96EF-481A-BF9E-1465DF9248E1";
paths = (
{
closed = 1;
nodes = (
"400 1850 OFFCURVE",
"283 1950 OFFCURVE",
"50 1950 CURVE SMOOTH",
"-50 1950 LINE SMOOTH",
"-72 1950 OFFCURVE",
"-105 1947 OFFCURVE",
"-150 1940 CURVE",
"-150 2200 LINE SMOOTH",
"-150 2267 OFFCURVE",
"-192 2300 OFFCURVE",
"-275 2300 CURVE SMOOTH",
"-358 2300 OFFCURVE",
"-400 2267 OFFCURVE",
"-400 2200 CURVE SMOOTH",
"-400 1750 LINE SMOOTH",
"-400 1683 OFFCURVE",
"-358 1650 OFFCURVE",
"-275 1650 CURVE SMOOTH",
"-192 1650 OFFCURVE",
"-150 1667 OFFCURVE",
"-150 1700 CURVE SMOOTH",
"-150 1733 OFFCURVE",
"-117 1750 OFFCURVE",
"-50 1750 CURVE SMOOTH",
"50 1750 LINE SMOOTH",
"117 1750 OFFCURVE",
"150 1717 OFFCURVE",
"150 1650 CURVE SMOOTH",
"150 -400 LINE SMOOTH",
"150 -467 OFFCURVE",
"100 -500 OFFCURVE",
"0 -500 CURVE SMOOTH",
"-100 -500 OFFCURVE",
"-150 -467 OFFCURVE",
"-150 -400 CURVE SMOOTH",
"-150 -200 LINE SMOOTH",
"-150 -133 OFFCURVE",
"-192 -100 OFFCURVE",
"-275 -100 CURVE SMOOTH",
"-358 -100 OFFCURVE",
"-400 -133 OFFCURVE",
"-400 -200 CURVE SMOOTH",
"-400 -400 LINE SMOOTH",
"-400 -600 OFFCURVE",
"-267 -700 OFFCURVE",
"0 -700 CURVE SMOOTH",
"267 -700 OFFCURVE",
"400 -600 OFFCURVE",
"400 -400 CURVE SMOOTH",
"400 1650 LINE SMOOTH"
);
}
);
width = 550;
}
);
note = uni17C0;
unicode = 17C0;
},
{
glyphname = uni17C1;
lastChange = "2021-04-15 12:05:58 +0000";
layers = (
{
layerId = "D08966C8-96EF-481A-BF9E-1465DF9248E1";
paths = (
{
closed = 1;
nodes = (
"192 1500 OFFCURVE",
"150 1467 OFFCURVE",
"150 1400 CURVE SMOOTH",
"150 100 LINE SMOOTH",
"150 33 OFFCURVE",
"200 0 OFFCURVE",
"300 0 CURVE SMOOTH",
"400 0 LINE SMOOTH",
"467 0 OFFCURVE",
"500 33 OFFCURVE",
"500 100 CURVE SMOOTH",
"500 167 OFFCURVE",
"467 200 OFFCURVE",
"400 200 CURVE",
"400 1400 LINE SMOOTH",
"400 1467 OFFCURVE",
"358 1500 OFFCURVE",
"275 1500 CURVE SMOOTH"
);
}
);
width = 550;
}
);
note = uni17C1;
unicode = 17C1;
},
{
glyphname = uni17C2;
lastChange = "2021-04-15 12:05:58 +0000";
layers = (
{
layerId = "D08966C8-96EF-481A-BF9E-1465DF9248E1";
paths = (
{
closed = 1;
nodes = (
"250 1650 LINE SMOOTH",
"350 1650 OFFCURVE",
"400 1683 OFFCURVE",
"400 1750 CURVE SMOOTH",
"400 2150 LINE SMOOTH",
"400 2217 OFFCURVE",
"358 2250 OFFCURVE",
"275 2250 CURVE SMOOTH",
"192 2250 OFFCURVE",
"150 2217 OFFCURVE",
"150 2150 CURVE SMOOTH",
"150 1850 LINE",
"100 1850 LINE SMOOTH",
"33 1850 OFFCURVE",
"0 1817 OFFCURVE",
"0 1750 CURVE SMOOTH",
"0 1683 OFFCURVE",
"33 1650 OFFCURVE",
"100 1650 CURVE SMOOTH"
);
},
{
closed = 1;
nodes = (
"192 1500 OFFCURVE",
"150 1467 OFFCURVE",
"150 1400 CURVE SMOOTH",
"150 100 LINE SMOOTH",
"150 33 OFFCURVE",
"200 0 OFFCURVE",
"300 0 CURVE SMOOTH",
"400 0 LINE SMOOTH",
"467 0 OFFCURVE",
"500 33 OFFCURVE",
"500 100 CURVE SMOOTH",
"500 167 OFFCURVE",
"467 200 OFFCURVE",
"400 200 CURVE",
"400 1400 LINE SMOOTH",
"400 1467 OFFCURVE",
"358 1500 OFFCURVE",
"275 1500 CURVE SMOOTH"
);
}
);
width = 550;
}
);
note = uni17C2;
unicode = 17C2;
},
{
glyphname = uni17C3;
lastChange = "2021-04-15 12:05:58 +0000";
layers = (
{
layerId = "D08966C8-96EF-481A-BF9E-1465DF9248E1";
paths = (
{
closed = 1;
nodes = (
"200 1800 LINE SMOOTH",
"167 1800 OFFCURVE",
"150 1775 OFFCURVE",
"150 1725 CURVE SMOOTH",
"150 1675 OFFCURVE",
"167 1650 OFFCURVE",
"200 1650 CURVE SMOOTH",
"400 1650 LINE SMOOTH",
"467 1650 OFFCURVE",
"500 1683 OFFCURVE",
"500 1750 CURVE SMOOTH",
"500 1950 LINE SMOOTH",
"500 2017 OFFCURVE",
"467 2050 OFFCURVE",
"400 2050 CURVE",
"400 2200 LINE SMOOTH",
"400 2267 OFFCURVE",
"358 2300 OFFCURVE",
"275 2300 CURVE SMOOTH",
"192 2300 OFFCURVE",
"150 2267 OFFCURVE",
"150 2200 CURVE SMOOTH",
"150 2000 LINE SMOOTH",
"150 1933 OFFCURVE",
"183 1900 OFFCURVE",
"250 1900 CURVE SMOOTH",
"284 1900 OFFCURVE",
"301 1883 OFFCURVE",
"301 1850 CURVE SMOOTH",
"301 1817 OFFCURVE",
"284 1800 OFFCURVE",
"250 1800 CURVE SMOOTH"
);
},
{
closed = 1;
nodes = (
"192 1500 OFFCURVE",
"150 1467 OFFCURVE",
"150 1400 CURVE SMOOTH",
"150 100 LINE SMOOTH",
"150 33 OFFCURVE",
"200 0 OFFCURVE",
"300 0 CURVE SMOOTH",
"400 0 LINE SMOOTH",
"467 0 OFFCURVE",
"500 33 OFFCURVE",
"500 100 CURVE SMOOTH",
"500 167 OFFCURVE",
"467 200 OFFCURVE",
"400 200 CURVE",
"400 1400 LINE SMOOTH",
"400 1467 OFFCURVE",
"358 1500 OFFCURVE",
"275 1500 CURVE SMOOTH"
);
}
);
width = 550;
}
);
note = uni17C3;
unicode = 17C3;
},
{
glyphname = uni17C4;
lastChange = "2021-04-15 12:05:58 +0000";
layers = (
{
layerId = "D08966C8-96EF-481A-BF9E-1465DF9248E1";
paths = (
{
closed = 1;
nodes = (
"358 0 OFFCURVE",
"400 33 OFFCURVE",
"400 100 CURVE SMOOTH",
"400 1200 LINE SMOOTH",
"400 1400 OFFCURVE",
"280 1500 OFFCURVE",
"40 1500 CURVE SMOOTH",
"0 1500 LINE SMOOTH",
"-67 1500 OFFCURVE",
"-100 1467 OFFCURVE",
"-100 1400 CURVE SMOOTH",
"-100 1333 OFFCURVE",
"-67 1300 OFFCURVE",
"0 1300 CURVE SMOOTH",
"40 1300 LINE SMOOTH",
"113 1300 OFFCURVE",
"150 1267 OFFCURVE",
"150 1200 CURVE SMOOTH",
"150 100 LINE SMOOTH",
"150 33 OFFCURVE",
"192 0 OFFCURVE",
"275 0 CURVE SMOOTH"
);
}
);
width = 550;
}
);
note = uni17C4;
unicode = 17C4;
},
{
glyphname = uni17C5;
lastChange = "2021-04-15 12:05:58 +0000";
layers = (
{
layerId = "D08966C8-96EF-481A-BF9E-1465DF9248E1";
paths = (
{
closed = 1;
nodes = (
"150 2150 LINE SMOOTH",
"83 2150 OFFCURVE",
"50 2117 OFFCURVE",
"50 2050 CURVE SMOOTH",
"50 1983 OFFCURVE",
"83 1950 OFFCURVE",
"150 1950 CURVE",
"150 1650 LINE SMOOTH",
"150 1583 OFFCURVE",
"192 1550 OFFCURVE",
"275 1550 CURVE SMOOTH",
"358 1550 OFFCURVE",
"400 1583 OFFCURVE",
"400 1650 CURVE SMOOTH",
"400 2050 LINE SMOOTH",
"400 2117 OFFCURVE",
"367 2150 OFFCURVE",
"300 2150 CURVE SMOOTH"
);
},
{
closed = 1;
nodes = (
"358 0 OFFCURVE",
"400 33 OFFCURVE",
"400 100 CURVE SMOOTH",
"400 1200 LINE SMOOTH",
"400 1400 OFFCURVE",
"280 1500 OFFCURVE",
"40 1500 CURVE SMOOTH",
"0 1500 LINE SMOOTH",
"-67 1500 OFFCURVE",
"-100 1467 OFFCURVE",
"-100 1400 CURVE SMOOTH",
"-100 1333 OFFCURVE",
"-67 1300 OFFCURVE",
"0 1300 CURVE SMOOTH",
"40 1300 LINE SMOOTH",
"113 1300 OFFCURVE",
"150 1267 OFFCURVE",
"150 1200 CURVE SMOOTH",
"150 100 LINE SMOOTH",
"150 33 OFFCURVE",
"192 0 OFFCURVE",
"275 0 CURVE SMOOTH"
);
}
);
width = 550;
}
);
note = uni17C5;
unicode = 17C5;
},
{
glyphname = uni17C7;
lastChange = "2021-04-15 12:05:58 +0000";
layers = (
{
layerId = "D08966C8-96EF-481A-BF9E-1465DF9248E1";
paths = (
{
closed = 1;
nodes = (
"349 1500 OFFCURVE",
"245 1447 OFFCURVE",
"191 1351 CURVE SMOOTH",
"164 1302 OFFCURVE",
"150 1252 OFFCURVE",
"150 1200 CURVE SMOOTH",
"150 1096 OFFCURVE",
"205 992 OFFCURVE",
"301 940 CURVE SMOOTH",
"348 913 OFFCURVE",
"398 900 OFFCURVE",
"450 900 CURVE SMOOTH",
"554 900 OFFCURVE",
"658 955 OFFCURVE",
"711 1051 CURVE SMOOTH",
"737 1098 OFFCURVE",
"750 1148 OFFCURVE",
"750 1200 CURVE SMOOTH",
"750 1304 OFFCURVE",
"693 1410 OFFCURVE",
"597 1462 CURVE SMOOTH",
"549 1487 OFFCURVE",
"500 1500 OFFCURVE",
"450 1500 CURVE SMOOTH"
);
},
{
closed = 1;
nodes = (
"504 1300 OFFCURVE",
"550 1255 OFFCURVE",
"550 1200 CURVE SMOOTH",
"550 1144 OFFCURVE",
"506 1100 OFFCURVE",
"450 1100 CURVE SMOOTH",
"394 1100 OFFCURVE",
"350 1144 OFFCURVE",
"350 1200 CURVE SMOOTH",
"350 1255 OFFCURVE",
"396 1300 OFFCURVE",
"450 1300 CURVE SMOOTH"
);
},
{
closed = 1;
nodes = (
"349 600 OFFCURVE",
"245 547 OFFCURVE",
"191 451 CURVE SMOOTH",
"164 402 OFFCURVE",
"150 352 OFFCURVE",
"150 300 CURVE SMOOTH",
"150 196 OFFCURVE",
"205 92 OFFCURVE",
"301 40 CURVE SMOOTH",
"348 13 OFFCURVE",
"398 0 OFFCURVE",
"450 0 CURVE SMOOTH",
"554 0 OFFCURVE",
"658 55 OFFCURVE",
"711 151 CURVE SMOOTH",
"737 198 OFFCURVE",
"750 248 OFFCURVE",
"750 300 CURVE SMOOTH",
"750 404 OFFCURVE",
"693 510 OFFCURVE",
"597 562 CURVE SMOOTH",
"549 587 OFFCURVE",
"500 600 OFFCURVE",
"450 600 CURVE SMOOTH"
);
},
{
closed = 1;
nodes = (
"504 400 OFFCURVE",
"550 355 OFFCURVE",
"550 300 CURVE SMOOTH",
"550 244 OFFCURVE",
"506 200 OFFCURVE",
"450 200 CURVE SMOOTH",
"394 200 OFFCURVE",
"350 244 OFFCURVE",
"350 300 CURVE SMOOTH",
"350 355 OFFCURVE",
"396 400 OFFCURVE",
"450 400 CURVE SMOOTH"
);
}
);
width = 900;
}
);
note = uni17C7;
unicode = 17C7;
},
{
glyphname = uni17C8;
lastChange = "2021-04-15 12:05:58 +0000";
layers = (
{
layerId = "D08966C8-96EF-481A-BF9E-1465DF9248E1";
paths = (
{
closed = 1;
nodes = (
"249 1350 OFFCURVE",
"197 1323 OFFCURVE",
"170 1275 CURVE SMOOTH",
"157 1251 OFFCURVE",
"150 1226 OFFCURVE",
"150 1200 CURVE SMOOTH",
"150 1148 OFFCURVE",
"178 1097 OFFCURVE",
"226 1070 CURVE SMOOTH",
"249 1057 OFFCURVE",
"274 1050 OFFCURVE",
"300 1050 CURVE SMOOTH",
"352 1050 OFFCURVE",
"403 1078 OFFCURVE",
"430 1126 CURVE SMOOTH",
"443 1149 OFFCURVE",
"450 1174 OFFCURVE",
"450 1200 CURVE SMOOTH",
"450 1252 OFFCURVE",
"421 1305 OFFCURVE",
"374 1331 CURVE SMOOTH",
"350 1344 OFFCURVE",
"325 1350 OFFCURVE",
"300 1350 CURVE SMOOTH"
);
},
{
closed = 1;
nodes = (
"249 450 OFFCURVE",
"197 423 OFFCURVE",
"170 375 CURVE SMOOTH",
"157 351 OFFCURVE",
"150 326 OFFCURVE",
"150 300 CURVE SMOOTH",
"150 248 OFFCURVE",
"178 197 OFFCURVE",
"226 170 CURVE SMOOTH",
"249 157 OFFCURVE",
"274 150 OFFCURVE",
"300 150 CURVE SMOOTH",
"352 150 OFFCURVE",
"403 178 OFFCURVE",
"430 226 CURVE SMOOTH",
"443 249 OFFCURVE",
"450 274 OFFCURVE",
"450 300 CURVE SMOOTH",
"450 352 OFFCURVE",
"421 405 OFFCURVE",
"374 431 CURVE SMOOTH",
"350 444 OFFCURVE",
"325 450 OFFCURVE",
"300 450 CURVE SMOOTH"
);
}
);
width = 600;
}
);
note = uni17C8;
unicode = 17C8;
},
{
glyphname = uni17DC;
lastChange = "2021-04-15 12:05:58 +0000";
layers = (
{
layerId = "D08966C8-96EF-481A-BF9E-1465DF9248E1";
paths = (
{
closed = 1;
nodes = (
"988 -10 OFFCURVE",
"1150 123 OFFCURVE",
"1150 359 CURVE SMOOTH",
"1150 564 OFFCURVE",
"994 658 OFFCURVE",
"675 658 CURVE SMOOTH",
"543 658 OFFCURVE",
"466 671 OFFCURVE",
"422 724 CURVE SMOOTH",
"399 751 OFFCURVE",
"388 790 OFFCURVE",
"388 842 CURVE SMOOTH",
"388 974 OFFCURVE",
"487 1055 OFFCURVE",
"675 1055 CURVE SMOOTH",
"864 1055 OFFCURVE",
"963 1002 OFFCURVE",
"963 910 CURVE SMOOTH",
"963 871 OFFCURVE",
"949 851 OFFCURVE",
"922 851 CURVE SMOOTH",
"882 851 OFFCURVE",
"862 832 OFFCURVE",
"862 793 CURVE SMOOTH",
"862 754 OFFCURVE",
"882 734 OFFCURVE",
"922 734 CURVE SMOOTH",
"1027 734 OFFCURVE",
"1091 750 OFFCURVE",
"1125 802 CURVE SMOOTH",
"1142 827 OFFCURVE",
"1150 863 OFFCURVE",
"1150 910 CURVE SMOOTH",
"1150 1106 OFFCURVE",
"990 1210 OFFCURVE",
"675 1210 CURVE SMOOTH",
"362 1210 OFFCURVE",
"200 1078 OFFCURVE",
"200 842 CURVE SMOOTH",
"200 637 OFFCURVE",
"356 543 OFFCURVE",
"675 543 CURVE SMOOTH",
"808 543 OFFCURVE",
"884 531 OFFCURVE",
"929 478 CURVE SMOOTH",
"952 451 OFFCURVE",
"963 412 OFFCURVE",
"963 360 CURVE SMOOTH",
"963 227 OFFCURVE",
"864 146 OFFCURVE",
"675 146 CURVE SMOOTH",
"486 146 OFFCURVE",
"388 199 OFFCURVE",
"388 292 CURVE SMOOTH",
"388 331 OFFCURVE",
"402 350 OFFCURVE",
"429 350 CURVE SMOOTH",
"468 350 OFFCURVE",
"489 371 OFFCURVE",
"489 408 CURVE SMOOTH",
"489 448 OFFCURVE",
"469 468 OFFCURVE",
"429 468 CURVE SMOOTH",
"324 468 OFFCURVE",
"260 452 OFFCURVE",
"226 401 CURVE SMOOTH",
"209 376 OFFCURVE",
"200 340 OFFCURVE",
"200 293 CURVE SMOOTH",
"200 96 OFFCURVE",
"359 -10 OFFCURVE",
"675 -10 CURVE SMOOTH"
);
}
);
userData = {
assembly = "NPUSHB[ ]	/* 71 values pushed */\0120 5 0 8 7 5 8 105 0 7 0 6 9 7 6 105 0 9 0 4 1 9 4 105 0 1 0 2 3 1 2 105 0 3 3 0 97 10 1 0 0 19 0 78 2 0 55 53 48 46 43 41 39 37 32 30 26 24 19 17 14 12 9 7 0 62 2 59 11 7 22 \012CALL[ ]	/* CallFunction */";
};
width = 1350;
}
);
note = uni17DC;
unicode = 17DC;
},
{
glyphname = uni1789.a;
lastChange = "2021-04-15 12:05:58 +0000";
layers = (
{
layerId = "D08966C8-96EF-481A-BF9E-1465DF9248E1";
paths = (
{
closed = 1;
nodes = (
"1050 1467 OFFCURVE",
"992 1500 OFFCURVE",
"875 1500 CURVE SMOOTH",
"825 1500 OFFCURVE",
"767 1467 OFFCURVE",
"700 1402 CURVE SMOOTH",
"600 1304 LINE",
"500 1402 LINE SMOOTH",
"433 1467 OFFCURVE",
"375 1500 OFFCURVE",
"325 1500 CURVE SMOOTH",
"208 1500 OFFCURVE",
"150 1467 OFFCURVE",
"150 1400 CURVE SMOOTH",
"150 100 LINE SMOOTH",
"150 33 OFFCURVE",
"200 0 OFFCURVE",
"300 0 CURVE SMOOTH",
"450 0 LINE SMOOTH",
"517 0 OFFCURVE",
"550 33 OFFCURVE",
"550 100 CURVE SMOOTH",
"550 167 OFFCURVE",
"517 200 OFFCURVE",
"450 200 CURVE SMOOTH",
"400 200 LINE",
"400 1237 LINE",
"600 1061 LINE",
"800 1237 LINE",
"800 100 LINE SMOOTH",
"800 33 OFFCURVE",
"842 0 OFFCURVE",
"925 0 CURVE SMOOTH",
"1008 0 OFFCURVE",
"1050 33 OFFCURVE",
"1050 100 CURVE SMOOTH",
"1050 1400 LINE SMOOTH"
);
},
{
closed = 1;
nodes = (
"1608 0 OFFCURVE",
"1650 33 OFFCURVE",
"1650 100 CURVE SMOOTH",
"1650 1200 LINE SMOOTH",
"1650 1400 OFFCURVE",
"1530 1500 OFFCURVE",
"1290 1500 CURVE SMOOTH",
"1200 1500 LINE SMOOTH",
"1133 1500 OFFCURVE",
"1100 1467 OFFCURVE",
"1100 1400 CURVE SMOOTH",
"1100 1333 OFFCURVE",
"1133 1300 OFFCURVE",
"1200 1300 CURVE SMOOTH",
"1290 1300 LINE SMOOTH",
"1363 1300 OFFCURVE",
"1400 1267 OFFCURVE",
"1400 1200 CURVE SMOOTH",
"1400 100 LINE SMOOTH",
"1400 33 OFFCURVE",
"1442 0 OFFCURVE",
"1525 0 CURVE SMOOTH"
);
}
);
width = 1800;
}
);
note = uni1789.a;
},
{
glyphname = uni1794.a;
lastChange = "2021-04-15 12:05:58 +0000";
layers = (
{
layerId = "D08966C8-96EF-481A-BF9E-1465DF9248E1";
paths = (
{
closed = 1;
nodes = (
"150 1333 OFFCURVE",
"183 1300 OFFCURVE",
"250 1300 CURVE SMOOTH",
"1100 1300 LINE",
"1100 1500 LINE",
"250 1500 LINE SMOOTH",
"183 1500 OFFCURVE",
"150 1467 OFFCURVE",
"150 1400 CURVE SMOOTH"
);
},
{
closed = 1;
nodes = (
"800 233 OFFCURVE",
"767 200 OFFCURVE",
"700 200 CURVE SMOOTH",
"500 200 LINE SMOOTH",
"433 200 OFFCURVE",
"400 233 OFFCURVE",
"400 300 CURVE SMOOTH",
"400 1000 LINE SMOOTH",
"400 1067 OFFCURVE",
"358 1100 OFFCURVE",
"275 1100 CURVE SMOOTH",
"192 1100 OFFCURVE",
"150 1067 OFFCURVE",
"150 1000 CURVE SMOOTH",
"150 300 LINE SMOOTH",
"150 100 OFFCURVE",
"267 0 OFFCURVE",
"500 0 CURVE SMOOTH",
"700 0 LINE SMOOTH",
"736 0 OFFCURVE",
"769 2 OFFCURVE",
"800 7 CURVE",
"800 0 LINE SMOOTH",
"800 -67 OFFCURVE",
"842 -100 OFFCURVE",
"925 -100 CURVE SMOOTH",
"1008 -100 OFFCURVE",
"1050 -67 OFFCURVE",
"1050 0 CURVE SMOOTH",
"1050 1000 LINE SMOOTH",
"1050 1067 OFFCURVE",
"1008 1100 OFFCURVE",
"925 1100 CURVE SMOOTH",
"842 1100 OFFCURVE",
"800 1067 OFFCURVE",
"800 1000 CURVE SMOOTH",
"800 300 LINE SMOOTH"
);
}
);
width = 1200;
}
);
note = uni1794.a;
},
{
glyphname = uni17BF.b;
lastChange = "2021-04-15 12:05:58 +0000";
layers = (
{
layerId = "D08966C8-96EF-481A-BF9E-1465DF9248E1";
paths = (
{
closed = 1;
nodes = (
"400 1720 OFFCURVE",
"350 1786 OFFCURVE",
"250 1848 CURVE",
"250 2075 LINE SMOOTH",
"250 2125 OFFCURVE",
"225 2150 OFFCURVE",
"175 2150 CURVE SMOOTH",
"125 2150 OFFCURVE",
"100 2125 OFFCURVE",
"100 2075 CURVE SMOOTH",
"100 1930 LINE",
"66 1948 OFFCURVE",
"33 1962 OFFCURVE",
"0 1973 CURVE",
"0 2075 LINE SMOOTH",
"0 2125 OFFCURVE",
"-25 2150 OFFCURVE",
"-75 2150 CURVE SMOOTH",
"-125 2150 OFFCURVE",
"-150 2125 OFFCURVE",
"-150 2075 CURVE SMOOTH",
"-150 2000 LINE",
"-500 2000 LINE SMOOTH",
"-567 2000 OFFCURVE",
"-600 1967 OFFCURVE",
"-600 1900 CURVE SMOOTH",
"-600 1850 LINE SMOOTH",
"-600 1783 OFFCURVE",
"-567 1750 OFFCURVE",
"-500 1750 CURVE SMOOTH",
"0 1750 LINE SMOOTH",
"100 1750 OFFCURVE",
"150 1717 OFFCURVE",
"150 1650 CURVE SMOOTH",
"150 -830 LINE SMOOTH",
"150 -897 OFFCURVE",
"100 -930 OFFCURVE",
"0 -930 CURVE SMOOTH",
"-100 -930 OFFCURVE",
"-150 -897 OFFCURVE",
"-150 -830 CURVE SMOOTH",
"-150 -780 LINE SMOOTH",
"-150 -713 OFFCURVE",
"-192 -680 OFFCURVE",
"-275 -680 CURVE SMOOTH",
"-358 -680 OFFCURVE",
"-400 -713 OFFCURVE",
"-400 -780 CURVE SMOOTH",
"-400 -830 LINE SMOOTH",
"-400 -1030 OFFCURVE",
"-267 -1130 OFFCURVE",
"0 -1130 CURVE SMOOTH",
"267 -1130 OFFCURVE",
"400 -1030 OFFCURVE",
"400 -830 CURVE SMOOTH",
"400 1650 LINE SMOOTH"
);
}
);
width = 550;
}
);
note = uni17BF.b;
},
{
glyphname = uni17C0.b;
lastChange = "2021-04-15 12:05:58 +0000";
layers = (
{
layerId = "D08966C8-96EF-481A-BF9E-1465DF9248E1";
paths = (
{
closed = 1;
nodes = (
"400 1850 OFFCURVE",
"283 1950 OFFCURVE",
"50 1950 CURVE SMOOTH",
"-50 1950 LINE SMOOTH",
"-72 1950 OFFCURVE",
"-105 1947 OFFCURVE",
"-150 1940 CURVE",
"-150 2200 LINE SMOOTH",
"-150 2267 OFFCURVE",
"-192 2300 OFFCURVE",
"-275 2300 CURVE SMOOTH",
"-358 2300 OFFCURVE",
"-400 2267 OFFCURVE",
"-400 2200 CURVE SMOOTH",
"-400 1750 LINE SMOOTH",
"-400 1683 OFFCURVE",
"-358 1650 OFFCURVE",
"-275 1650 CURVE SMOOTH",
"-192 1650 OFFCURVE",
"-150 1667 OFFCURVE",
"-150 1700 CURVE SMOOTH",
"-150 1733 OFFCURVE",
"-117 1750 OFFCURVE",
"-50 1750 CURVE SMOOTH",
"50 1750 LINE SMOOTH",
"117 1750 OFFCURVE",
"150 1717 OFFCURVE",
"150 1650 CURVE SMOOTH",
"150 -830 LINE SMOOTH",
"150 -897 OFFCURVE",
"100 -930 OFFCURVE",
"0 -930 CURVE SMOOTH",
"-100 -930 OFFCURVE",
"-150 -897 OFFCURVE",
"-150 -830 CURVE SMOOTH",
"-150 -780 LINE SMOOTH",
"-150 -713 OFFCURVE",
"-192 -680 OFFCURVE",
"-275 -680 CURVE SMOOTH",
"-358 -680 OFFCURVE",
"-400 -713 OFFCURVE",
"-400 -780 CURVE SMOOTH",
"-400 -830 LINE SMOOTH",
"-400 -1030 OFFCURVE",
"-267 -1130 OFFCURVE",
"0 -1130 CURVE SMOOTH",
"267 -1130 OFFCURVE",
"400 -1030 OFFCURVE",
"400 -830 CURVE SMOOTH",
"400 1650 LINE SMOOTH"
);
}
);
width = 550;
}
);
note = uni17C0.b;
},
{
glyphname = uni17D2_1780;
lastChange = "2021-04-15 12:05:58 +0000";
layers = (
{
layerId = "D08966C8-96EF-481A-BF9E-1465DF9248E1";
paths = (
{
closed = 1;
nodes = (
"-192 -600 OFFCURVE",
"-150 -571 OFFCURVE",
"-150 -512 CURVE SMOOTH",
"-150 -297 LINE SMOOTH",
"-150 -146 OFFCURVE",
"-267 -70 OFFCURVE",
"-500 -70 CURVE SMOOTH",
"-700 -70 LINE SMOOTH",
"-933 -70 OFFCURVE",
"-1050 -146 OFFCURVE",
"-1050 -297 CURVE SMOOTH",
"-1050 -512 LINE SMOOTH",
"-1050 -571 OFFCURVE",
"-1008 -600 OFFCURVE",
"-925 -600 CURVE SMOOTH",
"-842 -600 OFFCURVE",
"-800 -571 OFFCURVE",
"-800 -512 CURVE SMOOTH",
"-800 -297 LINE SMOOTH",
"-800 -234 OFFCURVE",
"-767 -202 OFFCURVE",
"-700 -202 CURVE SMOOTH",
"-500 -202 LINE SMOOTH",
"-433 -202 OFFCURVE",
"-400 -234 OFFCURVE",
"-400 -297 CURVE SMOOTH",
"-400 -512 LINE SMOOTH",
"-400 -571 OFFCURVE",
"-358 -600 OFFCURVE",
"-275 -600 CURVE SMOOTH"
);
}
);
width = 0;
}
);
note = uni17D2_1780;
category = Letter;
},
{
glyphname = uni17D2_1781;
lastChange = "2021-04-15 12:05:58 +0000";
layers = (
{
layerId = "D08966C8-96EF-481A-BF9E-1465DF9248E1";
paths = (
{
closed = 1;
nodes = (
"-800 -173 OFFCURVE",
"-767 -158 OFFCURVE",
"-700 -158 CURVE SMOOTH",
"-500 -158 LINE SMOOTH",
"-433 -158 OFFCURVE",
"-400 -178 OFFCURVE",
"-400 -217 CURVE SMOOTH",
"-400 -244 LINE SMOOTH",
"-400 -272 OFFCURVE",
"-508 -293 OFFCURVE",
"-725 -307 CURVE SMOOTH",
"-942 -321 OFFCURVE",
"-1050 -354 OFFCURVE",
"-1050 -407 CURVE SMOOTH",
"-1050 -479 LINE SMOOTH",
"-1050 -560 OFFCURVE",
"-933 -600 OFFCURVE",
"-700 -600 CURVE SMOOTH",
"-500 -600 LINE SMOOTH",
"-267 -600 OFFCURVE",
"-150 -556 OFFCURVE",
"-150 -467 CURVE SMOOTH",
"-150 -426 OFFCURVE",
"-192 -406 OFFCURVE",
"-275 -406 CURVE SMOOTH",
"-358 -406 OFFCURVE",
"-400 -426 OFFCURVE",
"-400 -467 CURVE SMOOTH",
"-400 -497 OFFCURVE",
"-433 -512 OFFCURVE",
"-500 -512 CURVE SMOOTH",
"-700 -512 LINE SMOOTH",
"-767 -512 OFFCURVE",
"-800 -492 OFFCURVE",
"-800 -452 CURVE SMOOTH",
"-800 -443 LINE SMOOTH",
"-800 -404 OFFCURVE",
"-692 -377 OFFCURVE",
"-475 -363 CURVE SMOOTH",
"-258 -348 OFFCURVE",
"-150 -315 OFFCURVE",
"-150 -263 CURVE SMOOTH",
"-150 -190 LINE SMOOTH",
"-150 -110 OFFCURVE",
"-267 -70 OFFCURVE",
"-500 -70 CURVE SMOOTH",
"-700 -70 LINE SMOOTH",
"-933 -70 OFFCURVE",
"-1050 -114 OFFCURVE",
"-1050 -202 CURVE SMOOTH",
"-1050 -243 OFFCURVE",
"-1008 -264 OFFCURVE",
"-925 -264 CURVE SMOOTH",
"-842 -264 OFFCURVE",
"-800 -243 OFFCURVE",
"-800 -202 CURVE SMOOTH"
);
}
);
width = 0;
}
);
note = uni17D2_1781;
category = Letter;
},
{
glyphname = uni17D2_1782;
lastChange = "2021-04-15 12:05:58 +0000";
layers = (
{
layerId = "D08966C8-96EF-481A-BF9E-1465DF9248E1";
paths = (
{
closed = 1;
nodes = (
"-800 -234 OFFCURVE",
"-767 -202 OFFCURVE",
"-700 -202 CURVE SMOOTH",
"-500 -202 LINE SMOOTH",
"-433 -202 OFFCURVE",
"-400 -234 OFFCURVE",
"-400 -297 CURVE SMOOTH",
"-400 -512 LINE SMOOTH",
"-400 -571 OFFCURVE",
"-358 -600 OFFCURVE",
"-275 -600 CURVE SMOOTH",
"-192 -600 OFFCURVE",
"-150 -571 OFFCURVE",
"-150 -512 CURVE SMOOTH",
"-150 -297 LINE SMOOTH",
"-150 -146 OFFCURVE",
"-267 -70 OFFCURVE",
"-500 -70 CURVE SMOOTH",
"-700 -70 LINE SMOOTH",
"-933 -70 OFFCURVE",
"-1050 -146 OFFCURVE",
"-1050 -297 CURVE SMOOTH",
"-1050 -512 LINE SMOOTH",
"-1050 -571 OFFCURVE",
"-1008 -600 OFFCURVE",
"-925 -600 CURVE SMOOTH",
"-859 -600 OFFCURVE",
"-819 -581 OFFCURVE",
"-805 -544 CURVE",
"-581 -404 LINE SMOOTH",
"-572 -398 OFFCURVE",
"-568 -390 OFFCURVE",
"-568 -381 CURVE SMOOTH",
"-568 -368 OFFCURVE",
"-576 -353 OFFCURVE",
"-592 -336 CURVE SMOOTH",
"-611 -315 OFFCURVE",
"-629 -304 OFFCURVE",
"-645 -304 CURVE SMOOTH",
"-653 -304 OFFCURVE",
"-661 -306 OFFCURVE",
"-668 -311 CURVE",
"-800 -387 LINE",
"-800 -297 LINE SMOOTH"
);
}
);
width = 0;
}
);
note = uni17D2_1782;
category = Letter;
},
{
glyphname = uni17D2_1784;
lastChange = "2021-04-15 12:05:58 +0000";
layers = (
{
layerId = "D08966C8-96EF-481A-BF9E-1465DF9248E1";
paths = (
{
closed = 1;
nodes = (
"-317 -600 OFFCURVE",
"-150 -453 OFFCURVE",
"-150 -158 CURVE SMOOTH",
"-150 -99 OFFCURVE",
"-192 -70 OFFCURVE",
"-275 -70 CURVE SMOOTH",
"-358 -70 OFFCURVE",
"-400 -99 OFFCURVE",
"-400 -158 CURVE SMOOTH",
"-400 -364 OFFCURVE",
"-484 -467 OFFCURVE",
"-652 -467 CURVE SMOOTH",
"-751 -467 OFFCURVE",
"-800 -438 OFFCURVE",
"-800 -379 CURVE SMOOTH",
"-800 -320 OFFCURVE",
"-775 -291 OFFCURVE",
"-725 -291 CURVE SMOOTH",
"-675 -291 OFFCURVE",
"-650 -269 OFFCURVE",
"-650 -225 CURVE SMOOTH",
"-650 -180 OFFCURVE",
"-700 -158 OFFCURVE",
"-800 -158 CURVE SMOOTH",
"-967 -158 OFFCURVE",
"-1050 -217 OFFCURVE",
"-1050 -335 CURVE SMOOTH",
"-1050 -379 LINE SMOOTH",
"-1050 -526 OFFCURVE",
"-917 -600 OFFCURVE",
"-652 -600 CURVE SMOOTH"
);
}
);
width = 0;
}
);
note = uni17D2_1784;
category = Letter;
},
{
glyphname = uni17D2_1785;
lastChange = "2021-04-15 12:05:58 +0000";
layers = (
{
layerId = "D08966C8-96EF-481A-BF9E-1465DF9248E1";
paths = (
{
closed = 1;
nodes = (
"-150 -335 LINE",
"-100 -335 LINE SMOOTH",
"-67 -335 OFFCURVE",
"-50 -313 OFFCURVE",
"-50 -269 CURVE SMOOTH",
"-50 -224 OFFCURVE",
"-67 -202 OFFCURVE",
"-100 -202 CURVE SMOOTH",
"-150 -202 LINE",
"-150 -158 LINE SMOOTH",
"-150 -99 OFFCURVE",
"-192 -70 OFFCURVE",
"-275 -70 CURVE SMOOTH",
"-358 -70 OFFCURVE",
"-400 -99 OFFCURVE",
"-400 -158 CURVE SMOOTH",
"-400 -202 LINE",
"-500 -202 LINE SMOOTH",
"-533 -202 OFFCURVE",
"-550 -224 OFFCURVE",
"-550 -269 CURVE SMOOTH",
"-550 -313 OFFCURVE",
"-533 -335 OFFCURVE",
"-500 -335 CURVE SMOOTH",
"-400 -335 LINE",
"-400 -379 LINE SMOOTH",
"-400 -438 OFFCURVE",
"-467 -467 OFFCURVE",
"-600 -467 CURVE SMOOTH",
"-733 -467 OFFCURVE",
"-800 -438 OFFCURVE",
"-800 -379 CURVE SMOOTH",
"-800 -158 LINE SMOOTH",
"-800 -99 OFFCURVE",
"-833 -70 OFFCURVE",
"-900 -70 CURVE SMOOTH",
"-1000 -70 LINE SMOOTH",
"-1067 -70 OFFCURVE",
"-1100 -92 OFFCURVE",
"-1100 -136 CURVE SMOOTH",
"-1100 -180 OFFCURVE",
"-1083 -202 OFFCURVE",
"-1050 -202 CURVE",
"-1050 -379 LINE SMOOTH",
"-1050 -526 OFFCURVE",
"-933 -600 OFFCURVE",
"-700 -600 CURVE SMOOTH",
"-500 -600 LINE SMOOTH",
"-267 -600 OFFCURVE",
"-150 -526 OFFCURVE",
"-150 -379 CURVE SMOOTH"
);
}
);
width = 0;
}
);
note = uni17D2_1785;
category = Letter;
},
{
glyphname = uni17D2_1786;
lastChange = "2021-04-15 12:05:58 +0000";
layers = (
{
layerId = "D08966C8-96EF-481A-BF9E-1465DF9248E1";
paths = (
{
closed = 1;
nodes = (
"-502 -352 OFFCURVE",
"-619 -326 OFFCURVE",
"-750 -326 CURVE SMOOTH",
"-800 -326 LINE",
"-800 -158 LINE SMOOTH",
"-800 -99 OFFCURVE",
"-842 -70 OFFCURVE",
"-925 -70 CURVE SMOOTH",
"-1008 -70 OFFCURVE",
"-1050 -99 OFFCURVE",
"-1050 -158 CURVE SMOOTH",
"-1050 -282 LINE",
"-917 -327 LINE",
"-1006 -329 OFFCURVE",
"-1050 -373 OFFCURVE",
"-1050 -459 CURVE SMOOTH",
"-1050 -553 OFFCURVE",
"-1010 -600 OFFCURVE",
"-930 -600 CURVE SMOOTH",
"-843 -600 OFFCURVE",
"-800 -553 OFFCURVE",
"-800 -459 CURVE",
"-750 -459 LINE SMOOTH",
"-653 -459 OFFCURVE",
"-570 -482 OFFCURVE",
"-502 -529 CURVE SMOOTH",
"-434 -576 OFFCURVE",
"-367 -600 OFFCURVE",
"-300 -600 CURVE SMOOTH",
"-200 -600 OFFCURVE",
"-150 -562 OFFCURVE",
"-150 -485 CURVE SMOOTH",
"-150 -158 LINE SMOOTH",
"-150 -99 OFFCURVE",
"-183 -70 OFFCURVE",
"-250 -70 CURVE SMOOTH",
"-400 -70 LINE SMOOTH",
"-467 -70 OFFCURVE",
"-500 -99 OFFCURVE",
"-500 -158 CURVE SMOOTH",
"-500 -217 OFFCURVE",
"-467 -247 OFFCURVE",
"-400 -247 CURVE",
"-400 -405 LINE"
);
}
);
width = 0;
}
);
note = uni17D2_1786;
category = Letter;
},
{
glyphname = uni17D2_1787;
lastChange = "2021-04-15 12:05:58 +0000";
layers = (
{
layerId = "D08966C8-96EF-481A-BF9E-1465DF9248E1";
paths = (
{
closed = 1;
nodes = (
"-67 -300 OFFCURVE",
"-50 -281 OFFCURVE",
"-50 -242 CURVE SMOOTH",
"-50 -204 OFFCURVE",
"-67 -185 OFFCURVE",
"-100 -185 CURVE SMOOTH",
"-150 -185 LINE",
"-150 -158 LINE SMOOTH",
"-150 -99 OFFCURVE",
"-192 -70 OFFCURVE",
"-275 -70 CURVE SMOOTH",
"-358 -70 OFFCURVE",
"-400 -99 OFFCURVE",
"-400 -158 CURVE SMOOTH",
"-400 -185 LINE",
"-475 -185 LINE SMOOTH",
"-525 -185 OFFCURVE",
"-550 -204 OFFCURVE",
"-550 -242 CURVE SMOOTH",
"-550 -281 OFFCURVE",
"-525 -300 OFFCURVE",
"-475 -300 CURVE SMOOTH",
"-400 -300 LINE",
"-400 -430 LINE",
"-600 -301 LINE",
"-800 -430 LINE",
"-800 -158 LINE SMOOTH",
"-800 -99 OFFCURVE",
"-842 -70 OFFCURVE",
"-925 -70 CURVE SMOOTH",
"-1008 -70 OFFCURVE",
"-1050 -99 OFFCURVE",
"-1050 -158 CURVE SMOOTH",
"-1050 -512 LINE SMOOTH",
"-1050 -571 OFFCURVE",
"-1008 -600 OFFCURVE",
"-925 -600 CURVE SMOOTH",
"-842 -600 OFFCURVE",
"-767 -579 OFFCURVE",
"-700 -536 CURVE SMOOTH",
"-600 -471 LINE",
"-500 -536 LINE SMOOTH",
"-433 -579 OFFCURVE",
"-358 -600 OFFCURVE",
"-275 -600 CURVE SMOOTH",
"-192 -600 OFFCURVE",
"-150 -571 OFFCURVE",
"-150 -512 CURVE SMOOTH",
"-150 -300 LINE",
"-100 -300 LINE SMOOTH"
);
}
);
width = 0;
}
);
note = uni17D2_1787;
category = Letter;
},
{
glyphname = uni17D2_1789;
lastChange = "2021-04-15 12:05:58 +0000";
layers = (
{
layerId = "D08966C8-96EF-481A-BF9E-1465DF9248E1";
paths = (
{
closed = 1;
nodes = (
"-1050 -357 OFFCURVE",
"-1017 -390 OFFCURVE",
"-950 -390 CURVE SMOOTH",
"-875 -390 OFFCURVE",
"-797 -423 OFFCURVE",
"-717 -490 CURVE SMOOTH",
"-637 -557 OFFCURVE",
"-554 -590 OFFCURVE",
"-469 -590 CURVE SMOOTH",
"-256 -590 OFFCURVE",
"-150 -507 OFFCURVE",
"-150 -340 CURVE SMOOTH",
"-150 -173 OFFCURVE",
"-220 -90 OFFCURVE",
"-360 -90 CURVE SMOOTH",
"-453 -90 OFFCURVE",
"-500 -115 OFFCURVE",
"-500 -165 CURVE SMOOTH",
"-500 -215 OFFCURVE",
"-467 -240 OFFCURVE",
"-400 -240 CURVE SMOOTH",
"-367 -240 OFFCURVE",
"-350 -273 OFFCURVE",
"-350 -340 CURVE SMOOTH",
"-350 -407 OFFCURVE",
"-392 -440 OFFCURVE",
"-477 -440 CURVE SMOOTH",
"-529 -440 OFFCURVE",
"-594 -398 OFFCURVE",
"-673 -315 CURVE SMOOTH",
"-752 -232 OFFCURVE",
"-843 -190 OFFCURVE",
"-946 -190 CURVE SMOOTH",
"-1015 -190 OFFCURVE",
"-1050 -223 OFFCURVE",
"-1050 -290 CURVE SMOOTH"
);
}
);
width = 0;
}
);
note = uni17D2_1789;
category = Letter;
},
{
glyphname = uni17D2_178A;
lastChange = "2021-04-15 12:05:58 +0000";
layers = (
{
layerId = "D08966C8-96EF-481A-BF9E-1465DF9248E1";
paths = (
{
closed = 1;
nodes = (
"-192 -600 OFFCURVE",
"-150 -571 OFFCURVE",
"-150 -512 CURVE SMOOTH",
"-150 -297 LINE SMOOTH",
"-150 -146 OFFCURVE",
"-267 -70 OFFCURVE",
"-500 -70 CURVE SMOOTH",
"-700 -70 LINE SMOOTH",
"-933 -70 OFFCURVE",
"-1050 -146 OFFCURVE",
"-1050 -297 CURVE SMOOTH",
"-1050 -512 LINE SMOOTH",
"-1050 -571 OFFCURVE",
"-1000 -600 OFFCURVE",
"-900 -600 CURVE SMOOTH",
"-750 -600 LINE SMOOTH",
"-683 -600 OFFCURVE",
"-650 -571 OFFCURVE",
"-650 -512 CURVE SMOOTH",
"-650 -453 OFFCURVE",
"-683 -423 OFFCURVE",
"-750 -423 CURVE SMOOTH",
"-800 -423 LINE",
"-800 -297 LINE SMOOTH",
"-800 -234 OFFCURVE",
"-767 -202 OFFCURVE",
"-700 -202 CURVE SMOOTH",
"-500 -202 LINE SMOOTH",
"-433 -202 OFFCURVE",
"-400 -234 OFFCURVE",
"-400 -297 CURVE SMOOTH",
"-400 -512 LINE SMOOTH",
"-400 -571 OFFCURVE",
"-358 -600 OFFCURVE",
"-275 -600 CURVE SMOOTH"
);
}
);
width = 0;
}
);
note = uni17D2_178A;
category = Letter;
},
{
glyphname = uni17D2_178B;
lastChange = "2021-04-15 12:05:58 +0000";
layers = (
{
layerId = "D08966C8-96EF-481A-BF9E-1465DF9248E1";
paths = (
{
closed = 1;
nodes = (
"-1050 -512 LINE SMOOTH",
"-1050 -571 OFFCURVE",
"-1000 -600 OFFCURVE",
"-900 -600 CURVE SMOOTH",
"-833 -600 OFFCURVE",
"-767 -579 OFFCURVE",
"-700 -538 CURVE SMOOTH",
"-600 -476 LINE",
"-500 -538 LINE SMOOTH",
"-433 -579 OFFCURVE",
"-367 -600 OFFCURVE",
"-300 -600 CURVE SMOOTH",
"-200 -600 OFFCURVE",
"-150 -571 OFFCURVE",
"-150 -512 CURVE SMOOTH",
"-150 -308 LINE",
"-100 -308 LINE SMOOTH",
"-67 -308 OFFCURVE",
"-50 -286 OFFCURVE",
"-50 -242 CURVE SMOOTH",
"-50 -198 OFFCURVE",
"-67 -176 OFFCURVE",
"-100 -176 CURVE SMOOTH",
"-150 -176 LINE",
"-150 -141 LINE SMOOTH",
"-150 -94 OFFCURVE",
"-192 -70 OFFCURVE",
"-275 -70 CURVE SMOOTH",
"-358 -70 OFFCURVE",
"-400 -94 OFFCURVE",
"-400 -141 CURVE SMOOTH",
"-400 -176 LINE",
"-950 -176 LINE SMOOTH",
"-1017 -176 OFFCURVE",
"-1050 -205 OFFCURVE",
"-1050 -264 CURVE SMOOTH"
);
},
{
closed = 1;
nodes = (
"-800 -308 LINE",
"-400 -308 LINE",
"-400 -441 LINE",
"-600 -335 LINE",
"-800 -441 LINE"
);
}
);
width = 0;
}
);
note = uni17D2_178B;
category = Letter;
},
{
glyphname = uni17D2_178C;
lastChange = "2021-04-15 12:05:58 +0000";
layers = (
{
layerId = "D08966C8-96EF-481A-BF9E-1465DF9248E1";
paths = (
{
closed = 1;
nodes = (
"-150 -108 OFFCURVE",
"-200 -70 OFFCURVE",
"-300 -70 CURVE SMOOTH",
"-357 -70 OFFCURVE",
"-403 -76 OFFCURVE",
"-438 -89 CURVE SMOOTH",
"-600 -148 LINE",
"-761 -89 LINE SMOOTH",
"-797 -76 OFFCURVE",
"-843 -70 OFFCURVE",
"-900 -70 CURVE SMOOTH",
"-1000 -70 OFFCURVE",
"-1050 -108 OFFCURVE",
"-1050 -184 CURVE SMOOTH",
"-1050 -224 LINE SMOOTH",
"-1050 -267 OFFCURVE",
"-1006 -289 OFFCURVE",
"-917 -289 CURVE SMOOTH",
"-839 -289 OFFCURVE",
"-800 -267 OFFCURVE",
"-800 -224 CURVE SMOOTH",
"-800 -185 LINE",
"-600 -252 LINE",
"-400 -185 LINE",
"-400 -219 LINE SMOOTH",
"-400 -264 OFFCURVE",
"-508 -296 OFFCURVE",
"-725 -316 CURVE SMOOTH",
"-942 -336 OFFCURVE",
"-1050 -375 OFFCURVE",
"-1050 -433 CURVE SMOOTH",
"-1050 -479 LINE SMOOTH",
"-1050 -560 OFFCURVE",
"-967 -600 OFFCURVE",
"-800 -600 CURVE SMOOTH",
"-740 -600 LINE SMOOTH",
"-643 -600 OFFCURVE",
"-530 -576 OFFCURVE",
"-400 -529 CURVE",
"-400 -556 LINE SMOOTH",
"-400 -585 OFFCURVE",
"-358 -600 OFFCURVE",
"-275 -600 CURVE SMOOTH",
"-192 -600 OFFCURVE",
"-150 -585 OFFCURVE",
"-150 -556 CURVE SMOOTH",
"-150 -423 LINE SMOOTH",
"-150 -394 OFFCURVE",
"-192 -379 OFFCURVE",
"-275 -379 CURVE SMOOTH",
"-358 -379 OFFCURVE",
"-400 -394 OFFCURVE",
"-400 -423 CURVE SMOOTH",
"-400 -452 LINE",
"-540 -492 OFFCURVE",
"-653 -512 OFFCURVE",
"-740 -512 CURVE SMOOTH",
"-780 -512 OFFCURVE",
"-800 -501 OFFCURVE",
"-800 -479 CURVE SMOOTH",
"-800 -439 OFFCURVE",
"-692 -403 OFFCURVE",
"-475 -372 CURVE SMOOTH",
"-258 -340 OFFCURVE",
"-150 -292 OFFCURVE",
"-150 -227 CURVE SMOOTH",
"-150 -184 LINE SMOOTH"
);
}
);
width = 0;
}
);
note = uni17D2_178C;
category = Letter;
},
{
glyphname = uni17D2_178E;
lastChange = "2021-04-15 12:05:58 +0000";
layers = (
{
layerId = "D08966C8-96EF-481A-BF9E-1465DF9248E1";
paths = (
{
closed = 1;
nodes = (
"-1638 -578 OFFCURVE",
"-1596 -600 OFFCURVE",
"-1513 -600 CURVE SMOOTH",
"-1430 -600 OFFCURVE",
"-1359 -581 OFFCURVE",
"-1300 -543 CURVE SMOOTH",
"-1213 -485 LINE",
"-1125 -543 LINE SMOOTH",
"-1067 -581 OFFCURVE",
"-996 -600 OFFCURVE",
"-913 -600 CURVE SMOOTH",
"-830 -600 OFFCURVE",
"-788 -578 OFFCURVE",
"-788 -534 CURVE SMOOTH",
"-788 -269 LINE SMOOTH",
"-788 -224 OFFCURVE",
"-757 -202 OFFCURVE",
"-694 -202 CURVE SMOOTH",
"-506 -202 LINE SMOOTH",
"-444 -202 OFFCURVE",
"-413 -224 OFFCURVE",
"-413 -269 CURVE SMOOTH",
"-413 -512 LINE SMOOTH",
"-413 -571 OFFCURVE",
"-371 -600 OFFCURVE",
"-288 -600 CURVE SMOOTH",
"-205 -600 OFFCURVE",
"-163 -571 OFFCURVE",
"-163 -512 CURVE SMOOTH",
"-163 -269 LINE SMOOTH",
"-163 -136 OFFCURVE",
"-277 -70 OFFCURVE",
"-506 -70 CURVE SMOOTH",
"-694 -70 LINE SMOOTH",
"-923 -70 OFFCURVE",
"-1038 -136 OFFCURVE",
"-1038 -269 CURVE SMOOTH",
"-1038 -423 LINE",
"-1213 -308 LINE",
"-1388 -423 LINE",
"-1388 -269 LINE SMOOTH",
"-1388 -136 OFFCURVE",
"-1502 -70 OFFCURVE",
"-1731 -70 CURVE SMOOTH",
"-1919 -70 LINE SMOOTH",
"-2148 -70 OFFCURVE",
"-2263 -136 OFFCURVE",
"-2263 -269 CURVE SMOOTH",
"-2263 -512 LINE SMOOTH",
"-2263 -571 OFFCURVE",
"-2221 -600 OFFCURVE",
"-2138 -600 CURVE SMOOTH",
"-2055 -600 OFFCURVE",
"-2013 -571 OFFCURVE",
"-2013 -512 CURVE SMOOTH",
"-2013 -269 LINE SMOOTH",
"-2013 -224 OFFCURVE",
"-1982 -202 OFFCURVE",
"-1919 -202 CURVE SMOOTH",
"-1731 -202 LINE SMOOTH",
"-1669 -202 OFFCURVE",
"-1638 -224 OFFCURVE",
"-1638 -269 CURVE SMOOTH",
"-1638 -534 LINE SMOOTH"
);
}
);
width = 0;
}
);
note = uni17D2_178E;
category = Letter;
},
{
glyphname = uni17D2_178F;
lastChange = "2021-04-15 12:05:58 +0000";
layers = (
{
layerId = "D08966C8-96EF-481A-BF9E-1465DF9248E1";
paths = (
{
closed = 1;
nodes = (
"-192 -600 OFFCURVE",
"-150 -571 OFFCURVE",
"-150 -512 CURVE SMOOTH",
"-150 -297 LINE SMOOTH",
"-150 -146 OFFCURVE",
"-267 -70 OFFCURVE",
"-500 -70 CURVE SMOOTH",
"-700 -70 LINE SMOOTH",
"-933 -70 OFFCURVE",
"-1050 -146 OFFCURVE",
"-1050 -297 CURVE SMOOTH",
"-1050 -512 LINE SMOOTH",
"-1050 -571 OFFCURVE",
"-1000 -600 OFFCURVE",
"-900 -600 CURVE SMOOTH",
"-750 -600 LINE SMOOTH",
"-683 -600 OFFCURVE",
"-650 -571 OFFCURVE",
"-650 -512 CURVE SMOOTH",
"-650 -453 OFFCURVE",
"-683 -423 OFFCURVE",
"-750 -423 CURVE SMOOTH",
"-800 -423 LINE",
"-800 -297 LINE SMOOTH",
"-800 -234 OFFCURVE",
"-767 -202 OFFCURVE",
"-700 -202 CURVE SMOOTH",
"-500 -202 LINE SMOOTH",
"-433 -202 OFFCURVE",
"-400 -234 OFFCURVE",
"-400 -297 CURVE SMOOTH",
"-400 -512 LINE SMOOTH",
"-400 -571 OFFCURVE",
"-358 -600 OFFCURVE",
"-275 -600 CURVE SMOOTH"
);
}
);
width = 0;
}
);
note = uni17D2_178F;
category = Letter;
},
{
glyphname = uni17D2_1790;
lastChange = "2021-04-15 12:05:58 +0000";
layers = (
{
layerId = "D08966C8-96EF-481A-BF9E-1465DF9248E1";
paths = (
{
closed = 1;
nodes = (
"-100 -382 OFFCURVE",
"-133 -340 OFFCURVE",
"-200 -340 CURVE SMOOTH",
"-275 -340 OFFCURVE",
"-355 -298 OFFCURVE",
"-438 -215 CURVE SMOOTH",
"-521 -132 OFFCURVE",
"-612 -90 OFFCURVE",
"-711 -90 CURVE SMOOTH",
"-789 -90 LINE SMOOTH",
"-963 -90 OFFCURVE",
"-1050 -157 OFFCURVE",
"-1050 -290 CURVE SMOOTH",
"-1050 -390 LINE SMOOTH",
"-1050 -523 OFFCURVE",
"-996 -590 OFFCURVE",
"-889 -590 CURVE SMOOTH",
"-800 -590 LINE SMOOTH",
"-733 -590 OFFCURVE",
"-700 -557 OFFCURVE",
"-700 -490 CURVE SMOOTH",
"-700 -423 OFFCURVE",
"-733 -390 OFFCURVE",
"-800 -390 CURVE SMOOTH",
"-833 -390 OFFCURVE",
"-850 -373 OFFCURVE",
"-850 -340 CURVE SMOOTH",
"-850 -273 OFFCURVE",
"-807 -240 OFFCURVE",
"-722 -240 CURVE SMOOTH",
"-671 -240 OFFCURVE",
"-624 -269 OFFCURVE",
"-583 -327 CURVE SMOOTH",
"-460 -502 OFFCURVE",
"-333 -590 OFFCURVE",
"-200 -590 CURVE SMOOTH",
"-133 -590 OFFCURVE",
"-100 -548 OFFCURVE",
"-100 -465 CURVE SMOOTH"
);
}
);
width = 0;
}
);
note = uni17D2_1790;
category = Letter;
},
{
glyphname = uni17D2_1791;
lastChange = "2021-04-15 12:05:58 +0000";
layers = (
{
layerId = "D08966C8-96EF-481A-BF9E-1465DF9248E1";
paths = (
{
closed = 1;
nodes = (
"-837 -244 LINE SMOOTH",
"-979 -257 OFFCURVE",
"-1050 -310 OFFCURVE",
"-1050 -405 CURVE SMOOTH",
"-1050 -535 OFFCURVE",
"-967 -600 OFFCURVE",
"-800 -600 CURVE SMOOTH",
"-741 -600 OFFCURVE",
"-607 -568 OFFCURVE",
"-400 -503 CURVE",
"-400 -553 OFFCURVE",
"-422 -585 OFFCURVE",
"-466 -600 CURVE",
"-296 -600 LINE SMOOTH",
"-199 -600 OFFCURVE",
"-150 -568 OFFCURVE",
"-150 -503 CURVE SMOOTH",
"-150 -430 LINE SMOOTH",
"-150 -391 OFFCURVE",
"-185 -372 OFFCURVE",
"-256 -372 CURVE SMOOTH",
"-273 -372 OFFCURVE",
"-291 -373 OFFCURVE",
"-312 -376 CURVE SMOOTH",
"-637 -436 LINE",
"-666 -439 OFFCURVE",
"-691 -440 OFFCURVE",
"-712 -440 CURVE SMOOTH",
"-771 -440 OFFCURVE",
"-800 -428 OFFCURVE",
"-800 -405 CURVE SMOOTH",
"-800 -378 OFFCURVE",
"-746 -358 OFFCURVE",
"-637 -344 CURVE SMOOTH",
"-312 -301 LINE SMOOTH",
"-204 -287 OFFCURVE",
"-150 -239 OFFCURVE",
"-150 -158 CURVE SMOOTH",
"-150 -99 OFFCURVE",
"-199 -70 OFFCURVE",
"-296 -70 CURVE SMOOTH",
"-400 -70 LINE SMOOTH",
"-466 -70 OFFCURVE",
"-499 -85 OFFCURVE",
"-499 -114 CURVE SMOOTH",
"-499 -143 OFFCURVE",
"-466 -158 OFFCURVE",
"-400 -158 CURVE",
"-400 -195 OFFCURVE",
"-458 -218 OFFCURVE",
"-575 -226 CURVE SMOOTH"
);
}
);
width = 0;
}
);
note = uni17D2_1791;
category = Letter;
},
{
glyphname = uni17D2_1792;
lastChange = "2021-04-15 12:05:58 +0000";
layers = (
{
layerId = "D08966C8-96EF-481A-BF9E-1465DF9248E1";
paths = (
{
closed = 1;
nodes = (
"-528 -132 OFFCURVE",
"-586 -156 OFFCURVE",
"-657 -177 CURVE SMOOTH",
"-728 -199 OFFCURVE",
"-812 -220 OFFCURVE",
"-907 -240 CURVE SMOOTH",
"-1002 -260 OFFCURVE",
"-1050 -297 OFFCURVE",
"-1050 -352 CURVE SMOOTH",
"-1050 -517 LINE SMOOTH",
"-1050 -572 OFFCURVE",
"-955 -600 OFFCURVE",
"-764 -600 CURVE SMOOTH",
"-691 -600 OFFCURVE",
"-636 -582 OFFCURVE",
"-600 -547 CURVE SMOOTH",
"-563 -512 OFFCURVE",
"-544 -476 OFFCURVE",
"-544 -439 CURVE",
"-434 -469 LINE",
"-324 -469 OFFCURVE",
"-249 -458 OFFCURVE",
"-210 -436 CURVE SMOOTH",
"-170 -413 OFFCURVE",
"-150 -380 OFFCURVE",
"-150 -335 CURVE SMOOTH",
"-150 -158 LINE SMOOTH",
"-150 -99 OFFCURVE",
"-195 -70 OFFCURVE",
"-285 -70 CURVE SMOOTH",
"-375 -70 OFFCURVE",
"-442 -82 OFFCURVE",
"-485 -107 CURVE SMOOTH"
);
},
{
closed = 1;
nodes = (
"-420 -315 OFFCURVE",
"-436 -330 OFFCURVE",
"-468 -330 CURVE SMOOTH",
"-477 -330 OFFCURVE",
"-488 -329 OFFCURVE",
"-500 -326 CURVE SMOOTH",
"-580 -310 LINE",
"-420 -229 LINE",
"-420 -286 LINE SMOOTH"
);
},
{
closed = 1;
nodes = (
"-654 -459 OFFCURVE",
"-687 -476 OFFCURVE",
"-736 -476 CURVE SMOOTH",
"-755 -476 OFFCURVE",
"-764 -466 OFFCURVE",
"-764 -447 CURVE SMOOTH",
"-764 -401 LINE",
"-654 -359 LINE",
"-654 -390 LINE SMOOTH"
);
}
);
width = 0;
}
);
note = uni17D2_1792;
category = Letter;
},
{
glyphname = uni17D2_1793;
lastChange = "2021-04-15 12:05:58 +0000";
layers = (
{
layerId = "D08966C8-96EF-481A-BF9E-1465DF9248E1";
paths = (
{
closed = 1;
nodes = (
"-450 -516 LINE",
"-450 -572 OFFCURVE",
"-392 -600 OFFCURVE",
"-275 -600 CURVE SMOOTH",
"-158 -600 OFFCURVE",
"-100 -565 OFFCURVE",
"-100 -495 CURVE SMOOTH",
"-100 -425 OFFCURVE",
"-133 -390 OFFCURVE",
"-200 -390 CURVE",
"-200 -306 LINE",
"-170 -306 LINE SMOOTH",
"-123 -306 OFFCURVE",
"-100 -285 OFFCURVE",
"-100 -242 CURVE SMOOTH",
"-100 -200 OFFCURVE",
"-123 -179 OFFCURVE",
"-170 -179 CURVE SMOOTH",
"-200 -179 LINE",
"-200 -154 LINE SMOOTH",
"-200 -98 OFFCURVE",
"-242 -70 OFFCURVE",
"-325 -70 CURVE SMOOTH",
"-408 -70 OFFCURVE",
"-450 -98 OFFCURVE",
"-450 -154 CURVE SMOOTH",
"-450 -179 LINE",
"-800 -179 LINE SMOOTH",
"-967 -179 OFFCURVE",
"-1050 -221 OFFCURVE",
"-1050 -306 CURVE SMOOTH",
"-1050 -390 LINE SMOOTH",
"-1050 -474 OFFCURVE",
"-967 -516 OFFCURVE",
"-800 -516 CURVE SMOOTH"
);
},
{
closed = 1;
nodes = (
"-800 -320 OFFCURVE",
"-767 -306 OFFCURVE",
"-700 -306 CURVE SMOOTH",
"-450 -306 LINE",
"-450 -390 LINE",
"-700 -390 LINE SMOOTH",
"-767 -390 OFFCURVE",
"-800 -376 OFFCURVE",
"-800 -348 CURVE SMOOTH"
);
}
);
width = 0;
}
);
note = uni17D2_1793;
category = Letter;
},
{
glyphname = uni17D2_1795;
lastChange = "2021-04-15 12:05:58 +0000";
layers = (
{
layerId = "D08966C8-96EF-481A-BF9E-1465DF9248E1";
paths = (
{
closed = 1;
nodes = (
"-150 -99 OFFCURVE",
"-200 -70 OFFCURVE",
"-300 -70 CURVE SMOOTH",
"-400 -70 LINE SMOOTH",
"-467 -70 OFFCURVE",
"-500 -99 OFFCURVE",
"-500 -158 CURVE SMOOTH",
"-500 -217 OFFCURVE",
"-467 -247 OFFCURVE",
"-400 -247 CURVE",
"-400 -403 LINE",
"-600 -274 LINE",
"-800 -403 LINE",
"-800 -158 LINE SMOOTH",
"-800 -99 OFFCURVE",
"-842 -70 OFFCURVE",
"-925 -70 CURVE SMOOTH",
"-1008 -70 OFFCURVE",
"-1050 -99 OFFCURVE",
"-1050 -158 CURVE SMOOTH",
"-1050 -512 LINE SMOOTH",
"-1050 -571 OFFCURVE",
"-1001 -600 OFFCURVE",
"-903 -600 CURVE SMOOTH",
"-834 -600 OFFCURVE",
"-783 -589 OFFCURVE",
"-750 -567 CURVE SMOOTH",
"-600 -471 LINE",
"-450 -567 LINE SMOOTH",
"-417 -589 OFFCURVE",
"-366 -600 OFFCURVE",
"-297 -600 CURVE SMOOTH",
"-199 -600 OFFCURVE",
"-150 -571 OFFCURVE",
"-150 -512 CURVE SMOOTH",
"-150 -158 LINE SMOOTH"
);
}
);
width = 0;
}
);
note = uni17D2_1795;
category = Letter;
},
{
glyphname = uni17D2_1796;
lastChange = "2021-04-15 12:05:58 +0000";
layers = (
{
layerId = "D08966C8-96EF-481A-BF9E-1465DF9248E1";
paths = (
{
closed = 1;
nodes = (
"-150 -158 LINE SMOOTH",
"-150 -99 OFFCURVE",
"-199 -70 OFFCURVE",
"-297 -70 CURVE SMOOTH",
"-366 -70 OFFCURVE",
"-417 -77 OFFCURVE",
"-450 -91 CURVE SMOOTH",
"-600 -156 LINE",
"-750 -91 LINE SMOOTH",
"-783 -77 OFFCURVE",
"-834 -70 OFFCURVE",
"-903 -70 CURVE SMOOTH",
"-1001 -70 OFFCURVE",
"-1050 -99 OFFCURVE",
"-1050 -158 CURVE SMOOTH",
"-1050 -541 LINE SMOOTH",
"-1050 -580 OFFCURVE",
"-1000 -600 OFFCURVE",
"-900 -600 CURVE SMOOTH",
"-750 -600 LINE SMOOTH",
"-683 -600 OFFCURVE",
"-650 -571 OFFCURVE",
"-650 -512 CURVE SMOOTH",
"-650 -453 OFFCURVE",
"-683 -423 OFFCURVE",
"-750 -423 CURVE SMOOTH",
"-800 -423 LINE",
"-800 -242 LINE",
"-600 -328 LINE",
"-400 -242 LINE",
"-400 -512 LINE SMOOTH",
"-400 -571 OFFCURVE",
"-358 -600 OFFCURVE",
"-275 -600 CURVE SMOOTH",
"-192 -600 OFFCURVE",
"-150 -571 OFFCURVE",
"-150 -512 CURVE SMOOTH"
);
}
);
width = 0;
}
);
note = uni17D2_1796;
category = Letter;
},
{
glyphname = uni17D2_1797;
lastChange = "2021-04-15 12:05:58 +0000";
layers = (
{
layerId = "D08966C8-96EF-481A-BF9E-1465DF9248E1";
paths = (
{
closed = 1;
nodes = (
"-1117 -423 OFFCURVE",
"-1150 -453 OFFCURVE",
"-1150 -512 CURVE SMOOTH",
"-1150 -571 OFFCURVE",
"-1117 -600 OFFCURVE",
"-1050 -600 CURVE SMOOTH",
"-950 -600 LINE SMOOTH",
"-850 -600 OFFCURVE",
"-800 -571 OFFCURVE",
"-800 -512 CURVE SMOOTH",
"-800 -297 LINE SMOOTH",
"-800 -234 OFFCURVE",
"-767 -202 OFFCURVE",
"-700 -202 CURVE SMOOTH",
"-500 -202 LINE SMOOTH",
"-433 -202 OFFCURVE",
"-400 -234 OFFCURVE",
"-400 -297 CURVE SMOOTH",
"-400 -512 LINE SMOOTH",
"-400 -571 OFFCURVE",
"-358 -600 OFFCURVE",
"-275 -600 CURVE SMOOTH",
"-192 -600 OFFCURVE",
"-150 -571 OFFCURVE",
"-150 -512 CURVE SMOOTH",
"-150 -297 LINE SMOOTH",
"-150 -146 OFFCURVE",
"-267 -70 OFFCURVE",
"-500 -70 CURVE SMOOTH",
"-700 -70 LINE SMOOTH",
"-933 -70 OFFCURVE",
"-1050 -146 OFFCURVE",
"-1050 -297 CURVE SMOOTH",
"-1050 -423 LINE"
);
}
);
width = 0;
}
);
note = uni17D2_1797;
category = Letter;
},
{
glyphname = uni17D2_1798;
lastChange = "2021-04-15 12:05:58 +0000";
layers = (
{
layerId = "D08966C8-96EF-481A-BF9E-1465DF9248E1";
paths = (
{
closed = 1;
nodes = (
"-1067 -291 OFFCURVE",
"-1100 -320 OFFCURVE",
"-1100 -379 CURVE SMOOTH",
"-1100 -438 OFFCURVE",
"-1067 -467 OFFCURVE",
"-1002 -467 CURVE SMOOTH",
"-393 -467 LINE",
"-388 -556 OFFCURVE",
"-338 -600 OFFCURVE",
"-243 -600 CURVE SMOOTH",
"-148 -600 OFFCURVE",
"-100 -553 OFFCURVE",
"-100 -459 CURVE SMOOTH",
"-100 -384 OFFCURVE",
"-138 -344 OFFCURVE",
"-201 -313 CURVE SMOOTH",
"-224 -302 OFFCURVE",
"-248 -295 OFFCURVE",
"-273 -292 CURVE",
"-258 -287 OFFCURVE",
"-242 -284 OFFCURVE",
"-225 -284 CURVE SMOOTH",
"-202 -284 OFFCURVE",
"-177 -289 OFFCURVE",
"-150 -298 CURVE",
"-150 -158 LINE SMOOTH",
"-150 -99 OFFCURVE",
"-192 -70 OFFCURVE",
"-275 -70 CURVE SMOOTH",
"-358 -70 OFFCURVE",
"-400 -99 OFFCURVE",
"-400 -158 CURVE SMOOTH",
"-400 -291 LINE",
"-1000 -291 LINE SMOOTH"
);
}
);
width = 0;
}
);
note = uni17D2_1798;
category = Letter;
},
{
glyphname = uni17D2_179B;
lastChange = "2021-04-15 12:05:58 +0000";
layers = (
{
layerId = "D08966C8-96EF-481A-BF9E-1465DF9248E1";
paths = (
{
closed = 1;
nodes = (
"-192 -580 OFFCURVE",
"-150 -547 OFFCURVE",
"-150 -480 CURVE SMOOTH",
"-150 -180 LINE SMOOTH",
"-150 -113 OFFCURVE",
"-192 -80 OFFCURVE",
"-275 -80 CURVE SMOOTH",
"-358 -80 OFFCURVE",
"-400 -113 OFFCURVE",
"-400 -180 CURVE SMOOTH",
"-400 -329 LINE",
"-700 -142 LINE SMOOTH",
"-767 -101 OFFCURVE",
"-842 -80 OFFCURVE",
"-925 -80 CURVE SMOOTH",
"-1008 -80 OFFCURVE",
"-1050 -113 OFFCURVE",
"-1050 -180 CURVE SMOOTH",
"-1050 -480 LINE SMOOTH",
"-1050 -547 OFFCURVE",
"-1008 -580 OFFCURVE",
"-925 -580 CURVE SMOOTH",
"-842 -580 OFFCURVE",
"-800 -547 OFFCURVE",
"-800 -480 CURVE SMOOTH",
"-800 -330 LINE",
"-500 -517 LINE SMOOTH",
"-433 -559 OFFCURVE",
"-358 -580 OFFCURVE",
"-275 -580 CURVE SMOOTH"
);
}
);
width = 0;
}
);
note = uni17D2_179B;
category = Letter;
},
{
glyphname = uni17D2_179C;
lastChange = "2021-04-15 12:05:58 +0000";
layers = (
{
layerId = "D08966C8-96EF-481A-BF9E-1465DF9248E1";
paths = (
{
closed = 1;
nodes = (
"-382 -600 OFFCURVE",
"-150 -450 OFFCURVE",
"-150 -159 CURVE SMOOTH",
"-150 -100 OFFCURVE",
"-200 -70 OFFCURVE",
"-300 -70 CURVE SMOOTH",
"-367 -70 OFFCURVE",
"-428 -85 OFFCURVE",
"-485 -114 CURVE SMOOTH",
"-541 -143 OFFCURVE",
"-630 -176 OFFCURVE",
"-752 -213 CURVE SMOOTH",
"-936 -268 LINE SMOOTH",
"-1012 -289 OFFCURVE",
"-1050 -327 OFFCURVE",
"-1050 -380 CURVE SMOOTH",
"-1050 -450 OFFCURVE",
"-1026 -504 OFFCURVE",
"-978 -543 CURVE SMOOTH",
"-929 -581 OFFCURVE",
"-824 -600 OFFCURVE",
"-661 -600 CURVE SMOOTH"
);
},
{
closed = 1;
nodes = (
"-623 -342 OFFCURVE",
"-536 -298 OFFCURVE",
"-400 -225 CURVE",
"-400 -392 OFFCURVE",
"-506 -437 OFFCURVE",
"-597 -449 CURVE SMOOTH",
"-618 -452 OFFCURVE",
"-640 -453 OFFCURVE",
"-662 -453 CURVE SMOOTH",
"-685 -453 OFFCURVE",
"-709 -451 OFFCURVE",
"-732 -448 CURVE SMOOTH",
"-777 -441 OFFCURVE",
"-800 -423 OFFCURVE",
"-800 -394 CURVE"
);
}
);
width = 0;
}
);
note = uni17D2_179C;
category = Letter;
},
{
glyphname = uni17D2_17A0;
lastChange = "2021-04-15 12:05:58 +0000";
layers = (
{
layerId = "D08966C8-96EF-481A-BF9E-1465DF9248E1";
paths = (
{
closed = 1;
nodes = (
"-800 -180 LINE SMOOTH",
"-800 -113 OFFCURVE",
"-842 -80 OFFCURVE",
"-925 -80 CURVE SMOOTH",
"-1008 -80 OFFCURVE",
"-1050 -113 OFFCURVE",
"-1050 -180 CURVE SMOOTH",
"-1050 -330 LINE SMOOTH",
"-1050 -497 OFFCURVE",
"-948 -580 OFFCURVE",
"-745 -580 CURVE SMOOTH",
"-588 -580 OFFCURVE",
"-510 -497 OFFCURVE",
"-510 -330 CURVE SMOOTH",
"-510 -263 OFFCURVE",
"-492 -230 OFFCURVE",
"-455 -230 CURVE SMOOTH",
"-418 -230 OFFCURVE",
"-400 -263 OFFCURVE",
"-400 -330 CURVE SMOOTH",
"-400 -480 LINE SMOOTH",
"-400 -547 OFFCURVE",
"-358 -580 OFFCURVE",
"-275 -580 CURVE SMOOTH",
"-192 -580 OFFCURVE",
"-150 -547 OFFCURVE",
"-150 -480 CURVE SMOOTH",
"-150 -330 LINE SMOOTH",
"-150 -163 OFFCURVE",
"-252 -80 OFFCURVE",
"-456 -80 CURVE SMOOTH",
"-612 -80 OFFCURVE",
"-690 -163 OFFCURVE",
"-690 -330 CURVE SMOOTH",
"-690 -397 OFFCURVE",
"-708 -430 OFFCURVE",
"-745 -430 CURVE SMOOTH",
"-782 -430 OFFCURVE",
"-800 -397 OFFCURVE",
"-800 -330 CURVE SMOOTH"
);
}
);
width = 0;
}
);
note = uni17D2_17A0;
category = Letter;
},
